<svg width="551" height="281" viewBox="0 0 551 281" fill="none" xmlns="http://www.w3.org/2000/svg">
<path d="M550.5 170.5C550.5 185.576 542.885 199.988 529.006 213.149C515.126 226.311 495.015 238.187 470.122 248.171C420.339 268.139 351.53 280.5 275.5 280.5C199.47 280.5 130.661 268.139 80.8782 248.171C55.9853 238.187 35.8741 226.311 21.9942 213.149C8.11544 199.988 0.5 185.576 0.5 170.5C0.5 155.424 8.11544 141.012 21.9942 127.851C35.8741 114.689 55.9853 102.813 80.8782 92.8288C130.661 72.8613 199.47 60.5 275.5 60.5C351.53 60.5 420.339 72.8613 470.122 92.8288C495.015 102.813 515.126 114.689 529.006 127.851C542.885 141.012 550.5 155.424 550.5 170.5Z" stroke="#333333"/>
<path d="M524.5 100.5C524.5 114.196 517.625 127.293 505.087 139.257C492.548 151.223 474.377 162.021 451.882 171.101C406.895 189.258 344.712 200.5 276 200.5C207.288 200.5 145.105 189.258 100.118 171.101C77.6226 162.021 59.4518 151.223 46.9128 139.257C34.3751 127.293 27.5 114.196 27.5 100.5C27.5 86.8039 34.3751 73.7068 46.9128 61.7426C59.4518 49.7772 77.6226 38.9787 100.118 29.8994C145.105 11.7419 207.288 0.5 276 0.5C344.712 0.5 406.895 11.7419 451.882 29.8994C474.377 38.9787 492.548 49.7772 505.087 61.7426C517.625 73.7068 524.5 86.8039 524.5 100.5Z" stroke="#333333"/>
</svg>
