<svg width="343" height="282" viewBox="0 0 343 282" fill="none" xmlns="http://www.w3.org/2000/svg">
<path d="M35.9573 9.69214L36.3303 10.3088L31.3872 13.2993C30.8391 13.6309 30.3131 13.7916 29.8093 13.7814C29.3055 13.7712 28.8451 13.6251 28.428 13.3433C28.013 13.0648 27.6629 12.6899 27.3778 12.2186C27.0846 11.734 26.911 11.2433 26.8569 10.7464C26.8029 10.2495 26.8892 9.77722 27.116 9.32955C27.3449 8.88523 27.7333 8.49727 28.2815 8.16566L33.2246 5.17514L33.5946 5.78677L28.6515 8.77728C28.227 9.03408 27.9216 9.33297 27.7353 9.67397C27.549 10.015 27.4729 10.376 27.5071 10.7571C27.5413 11.1381 27.6737 11.5192 27.9042 11.9002C28.1327 12.2778 28.4078 12.5703 28.7294 12.7774C29.0511 12.9846 29.4061 13.0848 29.7947 13.078C30.1832 13.0712 30.5897 12.9394 31.0142 12.6827L35.9573 9.69214Z" fill="white"/>
<path d="M40.4916 16.9735L33.2848 21.539L32.8991 20.9302L40.106 16.3646L40.4916 16.9735Z" fill="white"/>
<path d="M46.6286 26.442L36.9328 28.5629L36.5847 28.0345L46.2805 25.9135L46.6286 26.442Z" fill="white"/>
<path d="M53.2061 36.1174L53.6154 36.7105L48.8604 39.9919C48.3332 40.3558 47.8178 40.5477 47.3142 40.5677C46.8107 40.5877 46.3424 40.4695 45.9092 40.2131C45.4782 39.96 45.1063 39.6068 44.7935 39.1535C44.4717 38.6873 44.269 38.2078 44.1853 37.7151C44.1015 37.2223 44.1594 36.7457 44.359 36.2853C44.5608 35.828 44.9253 35.4175 45.4526 35.0536L50.2076 31.7722L50.6136 32.3606L45.8586 35.642C45.4503 35.9237 45.1633 36.2404 44.9978 36.592C44.8322 36.9435 44.7779 37.3084 44.8349 37.6868C44.8919 38.0651 45.0469 38.4375 45.2998 38.804C45.5505 39.1673 45.8426 39.4427 46.1761 39.6303C46.5096 39.8178 46.8701 39.8965 47.2575 39.8665C47.6449 39.8364 48.0428 39.6805 48.4511 39.3987L53.2061 36.1174Z" fill="white"/>
<path d="M57.7427 42.5336L56.2398 46.5953L60.5706 46.4251L61.0735 47.1172L56.0147 47.3022L54.2237 52.2034L53.7173 51.5066L55.2634 47.3049L50.7895 47.4776L50.2867 46.7855L55.5014 46.5959L57.2398 41.8415L57.7427 42.5336Z" fill="white"/>
<path d="M66.4492 64.5464L72.5164 62.0974L72.8769 62.5518L71.1258 63.3425L64.6746 65.9391L64.3287 65.503L66.4492 64.5464ZM70.0295 58.9619L66.1274 64.0463L64.6054 65.8519L64.2449 65.3974L69.5707 58.3835L70.0295 58.9619ZM69.5574 68.3707L75.3821 65.7102L75.8408 66.2886L67.8023 69.8825L67.4419 69.428L69.5574 68.3707ZM72.917 62.6023L69.1364 67.9343L67.7186 69.7769L67.3727 69.3408L71.3952 63.6822L72.5601 62.1524L72.917 62.6023Z" fill="white"/>
<path d="M77.2699 80.4102L76.7981 80.8051L73.7183 77.1248L74.1901 76.73L77.2699 80.4102ZM80.4001 71.816L73.8575 77.2911L73.3949 76.7384L79.9376 71.2633L80.4001 71.816ZM80.0228 77.3272L79.551 77.722L76.8548 74.5001L77.3267 74.1053L80.0228 77.3272ZM83.3219 75.3075L82.8456 75.7061L79.7846 72.0484L80.2609 71.6498L83.3219 75.3075Z" fill="white"/>
<path d="M86.1928 85.414L84.6083 83.6082L85.0586 83.1975L86.4228 84.7522C86.701 85.0693 86.9836 85.2995 87.2704 85.4428C87.5572 85.5861 87.8404 85.6364 88.12 85.5937C88.4051 85.5514 88.6798 85.4144 88.9441 85.1825C89.2142 84.9455 89.3871 84.6924 89.4628 84.4233C89.5414 84.1516 89.5228 83.8639 89.407 83.5602C89.2912 83.2565 89.0813 82.9314 88.7773 82.5849L87.5947 81.2372L81.649 86.4544L81.1736 85.9126L87.5862 80.2858L89.2441 82.1753C89.5301 82.5012 89.7542 82.8217 89.9163 83.1367C90.0784 83.4518 90.1703 83.7609 90.1921 84.064C90.2138 84.3671 90.1602 84.6584 90.0312 84.9379C89.9078 85.2177 89.7007 85.4851 89.41 85.7402C89.1458 85.9721 88.855 86.1233 88.5376 86.194C88.2231 86.262 87.9043 86.2481 87.5812 86.1523C87.2635 86.0568 86.9585 85.875 86.666 85.6068L86.1928 85.414ZM83.075 88.0795L81.3746 86.1417L82.0805 86.0133L83.5375 87.6737C83.8157 87.9909 84.1056 88.2146 84.4071 88.345C84.7141 88.4758 85.0203 88.5137 85.3256 88.4589C85.6308 88.4041 85.9215 88.2556 86.1975 88.0134C86.4412 87.7996 86.6136 87.5548 86.7146 87.2791C86.8156 87.0033 86.8266 86.7079 86.7475 86.3927C86.6714 86.0749 86.4865 85.7487 86.1928 85.414L85.2073 84.2909L85.6731 83.8978L87.0682 85.4877L86.9902 85.7276C87.2134 86.0411 87.3441 86.3707 87.3824 86.7165C87.4263 87.0626 87.3867 87.3935 87.2636 87.7093C87.1432 88.0281 86.9479 88.306 86.6778 88.543C86.2902 88.8831 85.8853 89.0851 85.4632 89.1488C85.0466 89.213 84.6326 89.1528 84.2211 88.9681C83.8152 88.7839 83.4331 88.4877 83.075 88.0795Z" fill="white"/>
<path d="M96.8843 103.224L95.5528 101.822L96.007 101.406L97.3305 102.8C97.7528 103.245 98.2151 103.533 98.7173 103.665C99.225 103.797 99.7393 103.782 100.26 103.622C100.781 103.461 101.275 103.159 101.742 102.715L102.32 102.166C102.677 101.827 102.952 101.47 103.144 101.093C103.339 100.72 103.449 100.343 103.476 99.9622C103.505 99.5789 103.451 99.2045 103.314 98.839C103.18 98.4763 102.96 98.1349 102.657 97.8149L101.265 96.349L101.715 95.9213L103.107 97.3872C103.473 97.7724 103.741 98.1883 103.912 98.6348C104.088 99.0814 104.163 99.5406 104.137 100.012C104.117 100.484 103.994 100.948 103.77 101.404C103.548 101.862 103.225 102.293 102.8 102.697L102.235 103.233C101.81 103.637 101.363 103.938 100.893 104.135C100.427 104.336 99.9574 104.435 99.485 104.431C99.0126 104.427 98.5552 104.325 98.1127 104.126C97.6731 103.924 97.2636 103.623 96.8843 103.224ZM101.961 96.1805L95.7748 102.055L95.2785 101.533L101.465 95.6579L101.961 96.1805Z" fill="white"/>
<path d="M108.491 114.242L108.055 114.676L104.67 111.275L105.106 110.841L108.491 114.242ZM110.87 105.41L104.823 111.428L104.315 110.917L110.362 104.899L110.87 105.41ZM110.969 110.933L110.533 111.367L107.569 108.39L108.005 107.956L110.969 110.933ZM114.082 108.637L113.641 109.075L110.277 105.695L110.717 105.257L114.082 108.637Z" fill="white"/>
<path d="M117.792 121.215C117.954 121.046 118.07 120.868 118.141 120.681C118.212 120.495 118.232 120.287 118.202 120.058C118.178 119.829 118.101 119.566 117.97 119.267C117.845 118.969 117.665 118.62 117.43 118.222C117.207 117.84 117.021 117.478 116.873 117.136C116.725 116.793 116.627 116.469 116.579 116.164C116.534 115.861 116.551 115.574 116.631 115.305C116.714 115.032 116.872 114.775 117.104 114.532C117.331 114.296 117.589 114.128 117.877 114.031C118.165 113.934 118.468 113.903 118.786 113.938C119.108 113.975 119.43 114.076 119.754 114.24C120.081 114.408 120.395 114.636 120.697 114.925C121.128 115.339 121.422 115.777 121.578 116.241C121.737 116.707 121.769 117.162 121.673 117.607C121.583 118.05 121.373 118.444 121.043 118.788L120.523 118.29C120.78 118.022 120.945 117.723 121.018 117.392C121.097 117.062 121.075 116.724 120.951 116.378C120.834 116.033 120.605 115.698 120.267 115.373C119.929 115.049 119.594 114.828 119.263 114.711C118.937 114.593 118.633 114.564 118.349 114.622C118.071 114.681 117.832 114.814 117.632 115.023C117.492 115.169 117.39 115.332 117.328 115.51C117.268 115.685 117.25 115.887 117.274 116.116C117.304 116.345 117.38 116.607 117.502 116.903C117.627 117.196 117.805 117.532 118.037 117.911C118.278 118.315 118.472 118.693 118.62 119.047C118.769 119.4 118.861 119.732 118.898 120.044C118.938 120.352 118.912 120.644 118.821 120.92C118.731 121.195 118.565 121.458 118.324 121.709C118.084 121.96 117.814 122.134 117.515 122.232C117.221 122.329 116.912 122.355 116.588 122.309C116.267 122.266 115.941 122.157 115.611 121.982C115.284 121.809 114.969 121.577 114.664 121.285C114.391 121.022 114.152 120.726 113.949 120.396C113.746 120.066 113.602 119.72 113.517 119.357C113.438 118.994 113.443 118.631 113.532 118.267C113.623 117.906 113.825 117.563 114.136 117.239L114.652 117.733C114.403 117.993 114.246 118.261 114.18 118.539C114.114 118.817 114.114 119.093 114.181 119.368C114.25 119.645 114.365 119.91 114.525 120.16C114.69 120.411 114.879 120.638 115.09 120.841C115.414 121.152 115.741 121.373 116.07 121.504C116.401 121.638 116.714 121.681 117.009 121.633C117.309 121.585 117.57 121.446 117.792 121.215Z" fill="white"/>
<path d="M128.745 122.65L122.968 128.928L122.438 128.44L128.214 122.162L128.745 122.65Z" fill="white"/>
<path d="M136.295 135.431L134.288 137.709C134.12 137.753 133.888 137.762 133.593 137.736C133.298 137.711 132.955 137.615 132.566 137.448C132.179 137.279 131.761 136.997 131.312 136.602C130.937 136.271 130.652 135.901 130.457 135.489C130.263 135.078 130.162 134.643 130.155 134.184C130.153 133.725 130.248 133.259 130.44 132.788C130.635 132.319 130.929 131.86 131.324 131.412L132.006 130.638C132.393 130.198 132.799 129.853 133.223 129.602C133.65 129.348 134.083 129.191 134.522 129.13C134.961 129.069 135.391 129.106 135.812 129.243C136.238 129.379 136.642 129.615 137.023 129.951C137.498 130.369 137.826 130.804 138.007 131.255C138.187 131.705 138.242 132.154 138.171 132.602C138.105 133.049 137.935 133.472 137.662 133.871L137.121 133.395C137.304 133.104 137.426 132.794 137.486 132.467C137.548 132.136 137.514 131.797 137.384 131.448C137.257 131.101 137 130.758 136.613 130.417C136.302 130.143 135.975 129.957 135.631 129.857C135.29 129.759 134.944 129.744 134.594 129.81C134.244 129.876 133.896 130.02 133.55 130.241C133.207 130.46 132.877 130.749 132.559 131.109L131.87 131.892C131.539 132.267 131.288 132.647 131.116 133.032C130.946 133.419 130.856 133.799 130.843 134.174C130.831 134.548 130.898 134.904 131.044 135.241C131.192 135.574 131.419 135.876 131.723 136.144C132.049 136.431 132.353 136.644 132.636 136.784C132.919 136.924 133.166 137.012 133.379 137.048C133.597 137.084 133.771 137.091 133.899 137.069L135.352 135.421L133.633 133.906L134.039 133.444L136.295 135.431Z" fill="white"/>
<path d="M149.933 141.136L144.463 147.684L143.906 147.218L144.815 138.48L140.142 144.073L139.589 143.611L145.058 137.064L145.612 137.526L144.711 146.272L149.384 140.678L149.933 141.136Z" fill="white"/>
<path d="M154.953 155.347L154.57 155.828L150.813 152.842L151.196 152.361L154.953 155.347ZM156.292 146.299L150.983 152.977L150.419 152.529L155.727 145.85L156.292 146.299ZM157.03 151.773L156.647 152.255L153.358 149.641L153.741 149.159L157.03 151.773ZM159.856 149.132L159.469 149.618L155.735 146.65L156.122 146.164L159.856 149.132Z" fill="white"/>
<path d="M165.02 153.14L167.229 154.813C167.699 155.17 168.049 155.555 168.279 155.969C168.509 156.384 168.605 156.811 168.565 157.251C168.531 157.691 168.35 158.127 168.022 158.56C167.779 158.881 167.49 159.12 167.155 159.278C166.823 159.438 166.472 159.517 166.101 159.516C165.732 159.511 165.367 159.423 165.006 159.253L164.749 159.175L162.39 157.389L162.752 156.891L164.728 158.388C165.083 158.657 165.43 158.812 165.771 158.854C166.111 158.897 166.426 158.85 166.714 158.716C167.007 158.58 167.252 158.384 167.448 158.125C167.681 157.817 167.816 157.5 167.852 157.174C167.893 156.848 167.831 156.526 167.664 156.209C167.498 155.892 167.228 155.592 166.854 155.309L165.219 154.07L160.443 160.376L159.869 159.941L165.02 153.14ZM164.068 163.121L164.61 158.747L165.23 159.209L164.726 163.524L164.68 163.585L164.068 163.121Z" fill="white"/>
<path d="M180.456 169.332L182.17 169.27C182.48 169.262 182.761 169.218 183.013 169.136C183.271 169.054 183.482 168.894 183.648 168.657C183.806 168.429 183.866 168.169 183.828 167.876C183.79 167.582 183.617 167.328 183.309 167.114C183.085 166.957 182.861 166.875 182.638 166.867C182.417 166.856 182.21 166.907 182.017 167.02C181.826 167.13 181.663 167.283 181.527 167.478C181.419 167.632 181.338 167.813 181.283 168.023C181.233 168.231 181.203 168.465 181.193 168.724C181.189 168.983 181.202 169.269 181.232 169.58L181.867 175.923L181.175 175.44L180.626 170.05C180.581 169.61 180.55 169.21 180.534 168.851C180.521 168.494 180.543 168.171 180.601 167.883C180.659 167.595 180.771 167.332 180.936 167.095C181.166 166.765 181.43 166.527 181.727 166.382C182.023 166.236 182.336 166.183 182.666 166.223C182.998 166.259 183.327 166.391 183.654 166.619C183.968 166.838 184.191 167.088 184.323 167.371C184.46 167.652 184.515 167.938 184.489 168.229C184.464 168.517 184.365 168.786 184.191 169.036C184.045 169.244 183.864 169.405 183.646 169.52C183.431 169.637 183.2 169.719 182.953 169.766C182.712 169.812 182.47 169.841 182.228 169.853L180.262 169.947C179.833 169.976 179.486 170.036 179.222 170.128C178.961 170.223 178.759 170.327 178.617 170.443C178.475 170.558 178.367 170.668 178.293 170.774C178.121 171.021 178.019 171.29 177.987 171.582C177.955 171.874 178.013 172.166 178.16 172.46C178.308 172.753 178.562 173.025 178.92 173.276C179.222 173.486 179.558 173.625 179.929 173.693C180.303 173.758 180.684 173.748 181.073 173.662C181.467 173.575 181.844 173.409 182.204 173.165C182.57 172.92 182.896 172.593 183.182 172.183L183.711 172.551C183.499 172.856 183.27 173.12 183.023 173.343C182.78 173.569 182.523 173.754 182.251 173.898C181.979 174.041 181.693 174.149 181.391 174.219C181.343 174.234 181.307 174.247 181.284 174.259C181.265 174.274 181.233 174.285 181.189 174.293C180.745 174.384 180.296 174.387 179.84 174.302C179.385 174.218 178.963 174.041 178.575 173.771C178.13 173.46 177.798 173.112 177.581 172.727C177.367 172.345 177.27 171.951 177.29 171.546C177.316 171.14 177.46 170.75 177.721 170.375C177.915 170.096 178.151 169.884 178.428 169.74C178.706 169.595 179.016 169.495 179.36 169.439C179.703 169.383 180.069 169.347 180.456 169.332Z" fill="white"/>
<path d="M197.306 183.475L202.237 179.175L202.726 179.486L201.331 180.807L196.085 185.372L195.616 185.074L197.306 183.475ZM198.861 177.027L196.838 183.108L195.991 185.313L195.502 185.001L198.238 176.63L198.861 177.027ZM201.495 186.071L206.128 181.65L206.75 182.047L200.332 188.074L199.842 187.763L201.495 186.071ZM202.781 179.521L200.954 185.797L200.218 188.002L199.748 187.703L201.697 181.039L202.296 179.213L202.781 179.521Z" fill="white"/>
<path d="M212.724 194.923L212.407 195.451L208.293 192.982L208.609 192.454L212.724 194.923ZM212.868 185.778L208.478 193.093L207.86 192.722L212.25 185.407L212.868 185.778ZM214.316 191.109L213.999 191.636L210.397 189.475L210.713 188.947L214.316 191.109ZM216.772 188.12L216.452 188.653L212.362 186.199L212.682 185.666L216.772 188.12Z" fill="white"/>
<path d="M222.794 196.729L220.705 195.541L220.996 195.006L222.794 196.028C223.161 196.237 223.504 196.362 223.821 196.403C224.139 196.445 224.423 196.399 224.674 196.268C224.929 196.134 225.144 195.915 225.318 195.609C225.495 195.297 225.576 195.001 225.559 194.722C225.545 194.44 225.433 194.174 225.224 193.925C225.015 193.676 224.71 193.437 224.31 193.209L222.751 192.323L218.841 199.199L218.215 198.843L222.431 191.427L224.617 192.669C224.994 192.884 225.31 193.113 225.567 193.358C225.823 193.603 226.011 193.864 226.131 194.144C226.25 194.423 226.295 194.716 226.265 195.022C226.24 195.327 226.132 195.647 225.941 195.984C225.767 196.289 225.542 196.527 225.265 196.698C224.99 196.865 224.684 196.957 224.347 196.972C224.016 196.986 223.668 196.914 223.304 196.756L222.794 196.729ZM220.721 200.268L218.479 198.994L219.104 198.641L221.025 199.733C221.391 199.942 221.739 200.058 222.066 200.083C222.399 200.106 222.701 200.042 222.971 199.89C223.242 199.738 223.468 199.503 223.649 199.183C223.81 198.902 223.892 198.614 223.898 198.32C223.903 198.027 223.816 197.744 223.638 197.472C223.462 197.197 223.181 196.949 222.794 196.729L221.495 195.99L221.806 195.466L223.645 196.512L223.65 196.764C223.963 196.987 224.195 197.256 224.344 197.57C224.499 197.883 224.57 198.208 224.557 198.547C224.548 198.888 224.454 199.214 224.277 199.527C224.022 199.975 223.705 200.298 223.327 200.497C222.955 200.694 222.544 200.772 222.094 200.733C221.651 200.691 221.193 200.537 220.721 200.268Z" fill="white"/>
<path d="M240.829 207.233L238.669 206.116L238.952 205.569L241.112 206.687C241.563 206.921 241.966 207.037 242.323 207.037C242.684 207.035 242.995 206.941 243.254 206.754C243.517 206.569 243.731 206.318 243.894 206.003C244.054 205.694 244.135 205.375 244.138 205.047C244.144 204.72 244.046 204.405 243.842 204.102C243.644 203.797 243.319 203.528 242.868 203.294L240.932 202.292L237.296 209.317L236.656 208.986L240.578 201.409L243.153 202.743C243.709 203.03 244.126 203.367 244.405 203.754C244.688 204.142 244.838 204.556 244.857 204.997C244.875 205.437 244.769 205.88 244.539 206.324C244.299 206.789 243.994 207.139 243.626 207.375C243.259 207.607 242.841 207.714 242.371 207.695C241.902 207.677 241.387 207.523 240.829 207.233Z" fill="white"/>
<path d="M256.633 209.483L257.281 209.799L254.751 214.992C254.471 215.568 254.116 215.989 253.687 216.253C253.258 216.518 252.792 216.645 252.289 216.635C251.789 216.626 251.292 216.501 250.797 216.26C250.287 216.012 249.875 215.694 249.56 215.305C249.245 214.917 249.062 214.474 249.009 213.975C248.961 213.477 249.076 212.941 249.357 212.365L251.887 207.171L252.53 207.484L250 212.678C249.782 213.124 249.688 213.541 249.716 213.928C249.745 214.316 249.877 214.66 250.112 214.962C250.348 215.263 250.666 215.512 251.066 215.707C251.463 215.9 251.853 215.996 252.235 215.996C252.618 215.995 252.97 215.887 253.293 215.67C253.616 215.454 253.886 215.123 254.103 214.677L256.633 209.483Z" fill="white"/>
<path d="M264.393 218.016L262.209 217.016L262.451 216.457L264.332 217.318C264.716 217.493 265.068 217.587 265.388 217.601C265.709 217.614 265.988 217.544 266.225 217.391C266.468 217.236 266.663 216.998 266.809 216.678C266.958 216.352 267.013 216.05 266.972 215.773C266.932 215.493 266.797 215.238 266.567 215.009C266.337 214.779 266.013 214.568 265.594 214.377L263.963 213.631L260.673 220.824L260.018 220.525L263.566 212.766L265.852 213.812C266.246 213.992 266.582 214.193 266.859 214.414C267.136 214.635 267.346 214.879 267.49 215.147C267.634 215.415 267.704 215.703 267.701 216.01C267.703 216.316 267.623 216.645 267.462 216.997C267.316 217.316 267.113 217.573 266.852 217.768C266.593 217.958 266.296 218.076 265.962 218.121C265.633 218.164 265.281 218.123 264.904 217.998L264.393 218.016ZM262.639 221.724L260.295 220.651L260.886 220.245L262.895 221.164C263.279 221.34 263.635 221.425 263.964 221.421C264.297 221.414 264.592 221.324 264.848 221.149C265.104 220.974 265.309 220.719 265.461 220.385C265.596 220.091 265.653 219.797 265.633 219.504C265.612 219.211 265.501 218.937 265.3 218.682C265.101 218.423 264.798 218.201 264.393 218.016L263.035 217.394L263.299 216.845L265.222 217.725L265.249 217.975C265.581 218.17 265.835 218.417 266.012 218.717C266.193 219.015 266.293 219.333 266.31 219.672C266.33 220.012 266.266 220.345 266.116 220.672C265.902 221.141 265.615 221.491 265.256 221.722C264.902 221.951 264.5 222.065 264.049 222.065C263.603 222.063 263.133 221.949 262.639 221.724Z" fill="white"/>
<path d="M276.679 227.242L276.436 227.807L272.371 226.062L272.614 225.496L276.679 227.242ZM275.931 218.306L272.565 226.145L271.903 225.861L275.268 218.021L275.931 218.306Z" fill="white"/>
<path d="M287.01 222.952L283.799 230.856L283.131 230.585L286.342 222.681L287.01 222.952Z" fill="white"/>
<path d="M296.625 233.637C296.709 233.418 296.747 233.209 296.74 233.009C296.732 232.81 296.67 232.611 296.554 232.411C296.443 232.21 296.269 231.997 296.033 231.773C295.802 231.547 295.5 231.295 295.129 231.02C294.775 230.754 294.463 230.493 294.193 230.235C293.924 229.977 293.708 229.717 293.545 229.454C293.385 229.192 293.29 228.922 293.259 228.642C293.229 228.359 293.275 228.061 293.395 227.747C293.512 227.44 293.684 227.186 293.912 226.985C294.139 226.783 294.407 226.637 294.714 226.545C295.024 226.454 295.361 226.422 295.723 226.448C296.089 226.475 296.467 226.563 296.858 226.712C297.416 226.926 297.857 227.216 298.181 227.582C298.509 227.95 298.715 228.357 298.799 228.804C298.889 229.248 298.849 229.692 298.678 230.137L298.005 229.88C298.138 229.533 298.173 229.194 298.113 228.861C298.057 228.526 297.905 228.223 297.657 227.953C297.414 227.68 297.074 227.46 296.636 227.292C296.198 227.125 295.804 227.052 295.453 227.072C295.107 227.091 294.815 227.182 294.577 227.346C294.343 227.507 294.175 227.723 294.072 227.993C293.999 228.183 293.969 228.372 293.98 228.56C293.993 228.745 294.056 228.938 294.167 229.14C294.283 229.339 294.455 229.551 294.682 229.776C294.911 229.998 295.206 230.238 295.567 230.497C295.946 230.776 296.272 231.049 296.546 231.317C296.82 231.585 297.035 231.855 297.19 232.127C297.346 232.396 297.436 232.675 297.459 232.965C297.482 233.254 297.432 233.561 297.308 233.885C297.184 234.21 297.003 234.475 296.765 234.681C296.532 234.885 296.258 235.029 295.941 235.113C295.629 235.198 295.286 235.224 294.914 235.191C294.546 235.159 294.165 235.067 293.771 234.916C293.417 234.781 293.082 234.601 292.767 234.376C292.451 234.151 292.184 233.887 291.965 233.586C291.75 233.282 291.614 232.946 291.554 232.576C291.499 232.208 291.551 231.814 291.711 231.394L292.379 231.649C292.251 231.985 292.21 232.294 292.257 232.575C292.304 232.856 292.412 233.111 292.58 233.338C292.752 233.567 292.96 233.766 293.205 233.935C293.455 234.102 293.717 234.237 293.99 234.342C294.41 234.502 294.797 234.579 295.151 234.572C295.508 234.567 295.814 234.485 296.066 234.326C296.324 234.166 296.511 233.936 296.625 233.637Z" fill="white"/>
<path d="M310.544 235.924L310.339 236.504L305.45 234.775L305.655 234.195L310.544 235.924ZM307.091 230.644L304.246 238.687L303.567 238.447L306.411 230.404L307.091 230.644ZM312.366 232.51L309.522 240.553L308.842 240.313L311.687 232.27L312.366 232.51Z" fill="white"/>
<path d="M322.058 244.09L321.867 244.675L317.305 243.186L317.496 242.601L322.058 244.09ZM320.159 235.143L317.511 243.253L316.826 243.03L319.474 234.92L320.159 235.143ZM322.759 240.017L322.568 240.602L318.574 239.298L318.765 238.713L322.759 240.017ZM324.487 236.556L324.294 237.147L319.76 235.666L319.953 235.076L324.487 236.556Z" fill="white"/>
<path d="M330.725 238.513L333.379 239.311C333.943 239.481 334.406 239.72 334.766 240.028C335.126 240.337 335.364 240.704 335.481 241.131C335.602 241.555 335.585 242.027 335.428 242.547C335.312 242.932 335.125 243.257 334.866 243.522C334.61 243.787 334.309 243.984 333.96 244.112C333.613 244.236 333.24 244.281 332.843 244.247L332.574 244.264L329.741 243.412L329.907 242.819L332.28 243.533C332.707 243.661 333.087 243.686 333.421 243.607C333.754 243.528 334.033 243.375 334.256 243.148C334.484 242.919 334.645 242.649 334.738 242.339C334.849 241.969 334.865 241.625 334.785 241.307C334.71 240.987 334.54 240.707 334.273 240.467C334.006 240.228 333.649 240.041 333.2 239.906L331.236 239.315L328.958 246.89L328.267 246.683L330.725 238.513ZM333.312 248.2L332.295 243.911L333.037 244.128L334.069 248.348L334.047 248.421L333.312 248.2Z" fill="white"/>
</svg>
