<svg width="1917" height="20" viewBox="0 0 1917 20" fill="none" xmlns="http://www.w3.org/2000/svg">
<path d="M1894 9.61654C1902.42 9.61654 1909.26 5.30959 1909.26 0C1909.26 2.87712 1911.26 5.4578 1914.43 7.21894C1916.75 8.50929 1916.75 10.7238 1914.43 12.0054C1911.25 13.7666 1909.26 16.3472 1909.26 19.2244C1909.26 13.9235 1902.42 9.61654 1894 9.61654Z" fill="white"/>
<path d="M1890.93 9.31138C1890.93 11.0812 1892.28 12.5198 1893.93 12.5198C1895.59 12.5198 1896.93 11.0812 1896.93 9.31138C1896.93 7.54152 1895.59 6.10297 1893.93 6.10297C1892.28 6.10297 1890.93 7.54152 1890.93 9.31138Z" fill="white"/>
<path d="M1890.93 8.71851H23.6633V10.4622H1890.93V8.71851Z" fill="white"/>
<path d="M6.91585 19.2244C6.91585 16.3472 4.91023 13.7666 1.74279 12.0054C-0.580929 10.7151 -0.580929 8.50057 1.74279 7.21894C4.92406 5.4578 6.91585 2.87712 6.91585 0C6.91585 5.30959 13.7487 9.61654 22.1721 9.61654C13.7487 9.60782 6.91585 13.9148 6.91585 19.2244Z" fill="white"/>
<path d="M24.9355 9.60777C24.9355 11.3776 23.5904 12.8162 21.9355 12.8162C20.2807 12.8162 18.9355 11.3776 18.9355 9.60777C18.9355 7.8379 20.2807 6.39935 21.9355 6.39935C23.5904 6.39935 24.9355 7.8379 24.9355 9.60777Z" fill="white"/>
<path d="M47.6444 9.31138C47.6444 11.0812 46.2993 12.5198 44.6444 12.5198C42.9895 12.5198 41.6444 11.0812 41.6444 9.31138C41.6444 7.54152 42.9895 6.10297 44.6444 6.10297C46.2993 6.10297 47.6444 7.54152 47.6444 9.31138Z" fill="white"/>
<path d="M1872.59 9.31138C1872.59 11.0812 1871.25 12.5198 1869.59 12.5198C1867.94 12.5198 1866.59 11.0812 1866.59 9.31138C1866.59 7.54152 1867.94 6.10297 1869.59 6.10297C1871.25 6.10297 1872.59 7.54152 1872.59 9.31138Z" fill="white"/>
<path d="M82.4877 6.97485L85.4877 9.45094L82.4877 11.9182L79.4877 9.45094L82.4877 6.97485Z" fill="white"/>
<path d="M90.3718 6.97485L93.3718 9.45094L90.3718 11.9182L87.3718 9.45094L90.3718 6.97485Z" fill="white"/>
<path d="M1826.16 6.97485L1829.16 9.45094L1826.16 11.9182L1823.16 9.45094L1826.16 6.97485Z" fill="white"/>
<path d="M1834.04 6.97485L1837.04 9.45094L1834.04 11.9182L1831.04 9.45094L1834.04 6.97485Z" fill="white"/>
</svg>
