<svg width="30" height="30" viewBox="0 0 30 30" fill="none" xmlns="http://www.w3.org/2000/svg">
<path d="M26.25 7.5H23.75V5.8875C23.75 4.98908 23.3931 4.12746 22.7578 3.49218C22.1225 2.8569 21.2609 2.5 20.3625 2.5H10.8875C9.98908 2.5 9.12746 2.8569 8.49218 3.49218C7.8569 4.12746 7.5 4.98908 7.5 5.8875V7.5H3.75C3.41848 7.5 3.10054 7.6317 2.86612 7.86612C2.6317 8.10054 2.5 8.41848 2.5 8.75V26.25C2.5 26.5815 2.6317 26.8995 2.86612 27.1339C3.10054 27.3683 3.41848 27.5 3.75 27.5H26.25C26.5815 27.5 26.8995 27.3683 27.1339 27.1339C27.3683 26.8995 27.5 26.5815 27.5 26.25V8.75C27.5 8.41848 27.3683 8.10054 27.1339 7.86612C26.8995 7.6317 26.5815 7.5 26.25 7.5ZM10 10H20V25H10V10ZM10 5.8875C10 5.65212 10.0935 5.42638 10.2599 5.25994C10.4264 5.0935 10.6521 5 10.8875 5H20.3625C20.5979 5 20.8236 5.0935 20.9901 5.25994C21.1565 5.42638 21.25 5.65212 21.25 5.8875V7.5H10V5.8875ZM5 10H7.5V25H5V10ZM25 25H22.5V10H25V25Z" fill="white"/>
</svg>
