<svg width="38" height="35" viewBox="0 0 38 35" fill="none" xmlns="http://www.w3.org/2000/svg">
<path d="M26.25 12.5H23.75V10.8875C23.75 9.98908 23.3931 9.12746 22.7578 8.49218C22.1225 7.8569 21.2609 7.5 20.3625 7.5H10.8875C9.98908 7.5 9.12746 7.8569 8.49218 8.49218C7.8569 9.12746 7.5 9.98908 7.5 10.8875V12.5H3.75C3.41848 12.5 3.10054 12.6317 2.86612 12.8661C2.6317 13.1005 2.5 13.4185 2.5 13.75V31.25C2.5 31.5815 2.6317 31.8995 2.86612 32.1339C3.10054 32.3683 3.41848 32.5 3.75 32.5H26.25C26.5815 32.5 26.8995 32.3683 27.1339 32.1339C27.3683 31.8995 27.5 31.5815 27.5 31.25V13.75C27.5 13.4185 27.3683 13.1005 27.1339 12.8661C26.8995 12.6317 26.5815 12.5 26.25 12.5ZM10 15H20V30H10V15ZM10 10.8875C10 10.6521 10.0935 10.4264 10.2599 10.2599C10.4264 10.0935 10.6521 10 10.8875 10H20.3625C20.5979 10 20.8236 10.0935 20.9901 10.2599C21.1565 10.4264 21.25 10.6521 21.25 10.8875V12.5H10V10.8875ZM5 15H7.5V30H5V15ZM25 30H22.5V15H25V30Z" fill="white"/>
<circle cx="30" cy="8" r="8" fill="#FEDB77"/>
<path d="M29.66 4.74C30.12 4.74 30.5067 4.88333 30.82 5.17C31.14 5.45667 31.38 5.84 31.54 6.32C31.7067 6.79333 31.79 7.31333 31.79 7.88C31.79 8.44667 31.7067 8.97 31.54 9.45C31.3733 9.92333 31.13 10.3067 30.81 10.6C30.4967 10.8867 30.1133 11.03 29.66 11.03C29.22 11.03 28.84 10.8867 28.52 10.6C28.2 10.3067 27.9533 9.92333 27.78 9.45C27.6133 8.97 27.53 8.44667 27.53 7.88C27.53 7.31333 27.6133 6.79333 27.78 6.32C27.9467 5.84 28.19 5.45667 28.51 5.17C28.83 4.88333 29.2133 4.74 29.66 4.74ZM29.71 5.1C29.4367 5.1 29.2 5.22667 29 5.48C28.8067 5.72667 28.6567 6.06 28.55 6.48C28.4433 6.9 28.39 7.36667 28.39 7.88C28.39 8.38667 28.4433 8.85333 28.55 9.28C28.6567 9.7 28.8 10.0367 28.98 10.29C29.1667 10.5433 29.38 10.67 29.62 10.67C29.9133 10.67 30.1567 10.54 30.35 10.28C30.5433 10.02 30.6867 9.67333 30.78 9.24C30.88 8.80667 30.93 8.33667 30.93 7.83C30.93 7.31667 30.8767 6.85667 30.77 6.45C30.67 6.03667 30.5267 5.71 30.34 5.47C30.16 5.22333 29.95 5.1 29.71 5.1Z" fill="black"/>
</svg>
