<svg width="26" height="26" viewBox="0 0 26 26" fill="none" xmlns="http://www.w3.org/2000/svg">
<path d="M12.9999 0.0689697C9.57154 0.0728249 6.28472 1.43644 3.86052 3.86064C1.43631 6.28484 0.0727028 9.57166 0.0688477 13C0.0746764 16.4277 1.43892 19.7134 3.8627 22.1372C6.28647 24.561 9.57215 25.9252 12.9999 25.931C16.4294 25.931 19.7185 24.5687 22.1435 22.1436C24.5685 19.7186 25.9309 16.4295 25.9309 13C25.9309 9.57048 24.5685 6.28142 22.1435 3.85638C19.7185 1.43134 16.4294 0.0689697 12.9999 0.0689697V0.0689697ZM20.8651 20.4616C20.1388 18.9968 19.0177 17.7642 17.6282 16.9028C16.2386 16.0413 14.636 15.5853 13.0011 15.5862C11.3662 15.5871 9.76406 16.0448 8.37546 16.9078C6.98685 17.7707 5.86703 19.0046 5.14232 20.4701C3.20859 18.4648 2.13106 15.7858 2.13781 13C2.13781 10.1192 3.28221 7.35639 5.31924 5.31936C7.35627 3.28233 10.1191 2.13794 12.9999 2.13794C15.8807 2.13794 18.6435 3.28233 20.6805 5.31936C22.7176 7.35639 23.8619 10.1192 23.8619 13C23.8684 15.7817 22.7939 18.4571 20.8651 20.4616V20.4616ZM12.9999 5.24138C12.0792 5.24138 11.1791 5.5144 10.4136 6.02592C9.64807 6.53744 9.0514 7.26448 8.69906 8.1151C8.34672 8.96572 8.25454 9.90172 8.43416 10.8047C8.61378 11.7078 9.05714 12.5372 9.70818 13.1883C10.3592 13.8393 11.1887 14.2827 12.0917 14.4623C12.9947 14.6419 13.9307 14.5497 14.7813 14.1974C15.632 13.845 16.359 13.2484 16.8705 12.4828C17.382 11.7173 17.6551 10.8173 17.6551 9.89656C17.6551 9.28523 17.5346 8.67989 17.3007 8.1151C17.0668 7.55031 16.7239 7.03712 16.2916 6.60485C15.8593 6.17258 15.3461 5.82968 14.7813 5.59574C14.2165 5.36179 13.6112 5.24138 12.9999 5.24138V5.24138Z" fill="white"/>
</svg>
