<svg width="30" height="30" viewBox="0 0 30 30" fill="none" xmlns="http://www.w3.org/2000/svg">
<path d="M14.9999 2.06897C11.5715 2.07282 8.28472 3.43644 5.86052 5.86064C3.43631 8.28484 2.0727 11.5717 2.06885 15C2.07468 18.4277 3.43892 21.7134 5.8627 24.1372C8.28648 26.561 11.5721 27.9252 14.9999 27.931C18.4294 27.931 21.7185 26.5687 24.1435 24.1436C26.5685 21.7186 27.9309 18.4295 27.9309 15C27.9309 11.5705 26.5685 8.28142 24.1435 5.85638C21.7185 3.43134 18.4294 2.06897 14.9999 2.06897ZM22.8651 22.4616C22.1388 20.9968 21.0177 19.7642 19.6282 18.9028C18.2386 18.0413 16.636 17.5853 15.0011 17.5862C13.3662 17.5871 11.7641 18.0448 10.3755 18.9078C8.98685 19.7707 7.86703 21.0046 7.14232 22.4701C5.20859 20.4648 4.13106 17.7858 4.13781 15C4.13781 12.1192 5.28221 9.35639 7.31924 7.31936C9.35627 5.28233 12.1191 4.13794 14.9999 4.13794C17.8807 4.13794 20.6435 5.28233 22.6805 7.31936C24.7176 9.35639 25.8619 12.1192 25.8619 15C25.8684 17.7817 24.7939 20.4571 22.8651 22.4616ZM14.9999 7.24138C14.0792 7.24138 13.1791 7.5144 12.4136 8.02592C11.6481 8.53744 11.0514 9.26448 10.6991 10.1151C10.3467 10.9657 10.2545 11.9017 10.4342 12.8047C10.6138 13.7078 11.0571 14.5372 11.7082 15.1883C12.3592 15.8393 13.1887 16.2827 14.0917 16.4623C14.9947 16.6419 15.9307 16.5497 16.7813 16.1974C17.632 15.845 18.359 15.2484 18.8705 14.4828C19.382 13.7173 19.6551 12.8173 19.6551 11.8966C19.6551 11.2852 19.5346 10.6799 19.3007 10.1151C19.0668 9.55031 18.7239 9.03713 18.2916 8.60485C17.8593 8.17258 17.3461 7.82968 16.7813 7.59574C16.2165 7.36179 15.6112 7.24138 14.9999 7.24138Z" fill="#281E1C"/>
</svg>
