<svg width="270" height="49" viewBox="0 0 270 49" fill="none" xmlns="http://www.w3.org/2000/svg">
<path d="M4.51806 16.03C5.03184 16.03 5.3662 15.73 5.52931 15.13C6.11649 12.9 6.96464 10.69 9.16657 9.61C9.7456 9.33 10.3083 9.27 10.7569 9.22C11.0586 9.19 11.3277 9.16 11.5316 9.08C11.9149 8.92 12.2085 8.5 12.6652 7.83C12.9017 7.48 13.1464 7.12 13.44 6.77C15.5522 4.26 18.3821 2.89 21.6116 2.8C22.1743 2.79 22.737 2.78001 23.2997 2.78001C23.8543 2.78001 24.417 2.78 24.9716 2.79C25.5261 2.79 26.0725 2.8 26.6271 2.8H52.0391H119.638H146.2H211.475H240.5C241.43 2.8 242.4 2.76 243.436 2.72C244.537 2.67 245.679 2.63 246.829 2.63C250.988 2.63 255.677 3.20001 258.842 7.46001C258.997 7.67001 259.143 7.88 259.282 8.09C259.608 8.58 259.804 8.86 260.081 9.02C260.261 9.12 260.562 9.15 260.88 9.18C261.264 9.22 261.704 9.26 262.161 9.43C264.656 10.37 265.611 12.85 266.214 15.14C266.41 15.88 266.875 16.04 267.225 16.04C267.633 16.04 268.033 15.82 268.22 15.5C268.31 15.35 268.416 15.09 268.277 14.58C267.56 11.87 265.725 7.24001 261.427 6.60001L260.938 6.53001L260.611 6.07C257.912 2.27 254.112 0.240007 249.626 0.210007C248.957 0.210007 248.28 0.200005 247.612 0.200005C246.935 0.200005 246.266 0.200005 245.589 0.200005C244.912 0.200005 244.235 0.200005 243.567 0.200005H217.372H151.436H125.82H62.5023H33.1024C31.765 0.200005 30.3867 0.150006 29.0492 0.100006C27.7036 0.0500061 26.3172 0 24.9553 0C22.8431 0 21.1467 0.120005 19.6054 0.380005C16.327 0.930005 13.3095 2.94 11.1157 6.05L10.7895 6.51L10.3002 6.58C6.00232 7.22 4.16738 11.85 3.44971 14.56C3.31923 15.06 3.41707 15.32 3.50678 15.47C3.71066 15.82 4.11029 16.03 4.51806 16.03Z" fill="#281E1C"/>
<path d="M267.225 32.96C266.712 32.96 266.377 33.26 266.214 33.86C265.627 36.09 264.779 38.3 262.577 39.38C261.998 39.66 261.435 39.72 260.987 39.77C260.685 39.8 260.416 39.83 260.212 39.91C259.828 40.07 259.535 40.49 259.078 41.16C258.842 41.51 258.597 41.87 258.303 42.22C256.191 44.73 253.361 46.1 250.132 46.19C249.569 46.2 249.006 46.21 248.444 46.21C247.889 46.21 247.326 46.21 246.772 46.2C246.217 46.2 245.671 46.19 245.116 46.19H219.704H152.105H125.543H60.2679H31.2431C30.3134 46.19 29.3429 46.23 28.3072 46.27C27.2062 46.32 26.0645 46.36 24.9146 46.36C20.7554 46.36 16.0743 45.79 12.9018 41.53C12.7469 41.32 12.6001 41.11 12.4614 40.9C12.1352 40.41 11.9395 40.13 11.6622 39.97C11.4828 39.87 11.1811 39.84 10.8548 39.81C10.4715 39.77 10.0311 39.73 9.57445 39.56C7.07892 38.62 6.12475 36.14 5.52126 33.85C5.32553 33.11 4.86068 32.95 4.51001 32.95C4.10224 32.95 3.70263 33.17 3.51506 33.49C3.42535 33.64 3.31932 33.9 3.45796 34.41C4.17563 37.12 6.01057 41.75 10.3084 42.39L10.7977 42.46L11.124 42.92C13.8234 46.72 17.6237 48.75 22.1092 48.78C22.7779 48.78 23.4548 48.79 24.1235 48.79C24.8004 48.79 25.4692 48.79 26.1461 48.79C26.823 48.79 27.4999 48.79 28.1686 48.79H54.3635H120.299H145.915H209.233H238.633C239.97 48.79 241.349 48.84 242.686 48.89C244.032 48.94 245.418 48.99 246.78 48.99C248.892 48.99 250.589 48.87 252.13 48.61C255.408 48.06 258.426 46.05 260.62 42.94L260.946 42.48L261.435 42.41C265.733 41.77 267.568 37.14 268.286 34.43C268.416 33.93 268.318 33.67 268.228 33.52C268.033 33.18 267.633 32.96 267.225 32.96Z" fill="#281E1C"/>
<path d="M267.25 21.62C265.904 21.62 264.819 22.91 264.819 24.5C264.819 26.09 265.912 27.38 267.25 27.38C268.595 27.38 269.68 26.09 269.68 24.5C269.68 22.91 268.595 21.62 267.25 21.62Z" fill="#281E1C"/>
<path d="M4.86056 24.5C4.86056 22.91 3.76777 21.62 2.43029 21.62C1.08467 21.62 0 22.91 0 24.5C0 26.09 1.09282 27.38 2.43029 27.38C3.77592 27.37 4.86056 26.08 4.86056 24.5Z" fill="#281E1C"/>
</svg>
