<svg width="30" height="30" viewBox="0 0 30 30" fill="none" xmlns="http://www.w3.org/2000/svg">
<path d="M4.5301 18.75C6.26102 20.4833 8.56606 21.5239 11.011 21.6756C13.4559 21.8274 15.8719 21.0798 17.8039 19.5737L24.4514 26.2212C24.6871 26.4489 25.0029 26.5749 25.3306 26.5721C25.6583 26.5692 25.9719 26.4378 26.2036 26.206C26.4354 25.9742 26.5668 25.6607 26.5697 25.333C26.5725 25.0052 26.4465 24.6895 26.2189 24.4537L19.5714 17.8062C21.1442 15.7877 21.8879 13.2452 21.6506 10.6972C21.4133 8.14922 20.213 5.78772 18.2945 4.09431C16.3759 2.40089 13.8836 1.50312 11.3259 1.58408C8.76822 1.66503 6.33771 2.71862 4.5301 4.52998C3.5961 5.46351 2.85518 6.57191 2.34967 7.79187C1.84417 9.01183 1.58398 10.3194 1.58398 11.64C1.58398 12.9605 1.84417 14.2681 2.34967 15.4881C2.85518 16.708 3.5961 17.8164 4.5301 18.75V18.75ZM6.2976 6.29998C7.53332 5.06429 9.15925 4.29528 10.8984 4.12397C12.6375 3.95267 14.3822 4.38966 15.8353 5.36051C17.2884 6.33135 18.3599 7.77597 18.8672 9.44825C19.3746 11.1205 19.2865 12.917 18.6178 14.5316C17.9492 16.1461 16.7414 17.4789 15.2003 18.3028C13.6591 19.1268 11.88 19.3909 10.166 19.0501C8.452 18.7094 6.90916 17.7849 5.80035 16.4342C4.69154 15.0834 4.08537 13.39 4.0851 11.6425C4.08167 10.6494 4.27548 9.66562 4.65529 8.74808C5.03509 7.83054 5.59333 6.99756 6.2976 6.29748V6.29998Z" fill="white"/>
</svg>
