<svg width="270" height="49" viewBox="0 0 270 49" fill="none" xmlns="http://www.w3.org/2000/svg">
<path d="M4.5183 16.03C5.03209 16.03 5.36645 15.73 5.52955 15.13C6.11673 12.9 6.96488 10.69 9.16682 9.61C9.74584 9.33 10.3086 9.27 10.7571 9.22C11.0589 9.19 11.328 9.16 11.5319 9.08C11.9152 8.92 12.2088 8.5 12.6655 7.83C12.902 7.48 13.1466 7.12 13.4402 6.77C15.5524 4.26 18.3823 2.89 21.6118 2.8C22.1746 2.79 22.7373 2.78001 23.3 2.78001C23.8546 2.78001 24.4173 2.78 24.9718 2.79C25.5264 2.79 26.0728 2.8 26.6274 2.8H52.0393H119.639H146.201H211.476H240.501C241.43 2.8 242.401 2.76 243.436 2.72C244.537 2.67 245.679 2.63 246.829 2.63C250.988 2.63 255.678 3.20001 258.842 7.46001C258.997 7.67001 259.144 7.88 259.282 8.09C259.608 8.58 259.804 8.86 260.081 9.02C260.261 9.12 260.563 9.15 260.881 9.18C261.264 9.22 261.704 9.26 262.161 9.43C264.657 10.37 265.611 12.85 266.214 15.14C266.41 15.88 266.875 16.04 267.226 16.04C267.633 16.04 268.033 15.82 268.22 15.5C268.31 15.35 268.416 15.09 268.278 14.58C267.56 11.87 265.725 7.24001 261.427 6.60001L260.938 6.53001L260.612 6.07C257.912 2.27 254.112 0.240007 249.626 0.210007C248.958 0.210007 248.281 0.200005 247.612 0.200005C246.935 0.200005 246.266 0.200005 245.589 0.200005C244.913 0.200005 244.236 0.200005 243.567 0.200005H217.372H151.436H125.82H62.5026H33.1027C31.7652 0.200005 30.387 0.150006 29.0495 0.100006C27.7039 0.0500061 26.3175 0 24.9555 0C22.8433 0 21.147 0.120005 19.6056 0.380005C16.3272 0.930005 13.3097 2.94 11.1159 6.05L10.7897 6.51L10.3004 6.58C6.00257 7.22 4.16762 11.85 3.44996 14.56C3.31947 15.06 3.41732 15.32 3.50702 15.47C3.71091 15.82 4.11053 16.03 4.5183 16.03Z" fill="white"/>
<path d="M267.225 32.96C266.712 32.96 266.377 33.26 266.214 33.86C265.627 36.09 264.779 38.3 262.577 39.38C261.998 39.66 261.435 39.72 260.987 39.77C260.685 39.8 260.416 39.83 260.212 39.91C259.828 40.07 259.535 40.49 259.078 41.16C258.842 41.51 258.597 41.87 258.303 42.22C256.191 44.73 253.361 46.1 250.132 46.19C249.569 46.2 249.006 46.21 248.444 46.21C247.889 46.21 247.326 46.21 246.772 46.2C246.217 46.2 245.671 46.19 245.116 46.19H219.704H152.105H125.543H60.2679H31.2431C30.3134 46.19 29.3429 46.23 28.3072 46.27C27.2062 46.32 26.0645 46.36 24.9146 46.36C20.7554 46.36 16.0743 45.79 12.9018 41.53C12.7469 41.32 12.6001 41.11 12.4614 40.9C12.1352 40.41 11.9395 40.13 11.6622 39.97C11.4828 39.87 11.1811 39.84 10.8548 39.81C10.4715 39.77 10.0311 39.73 9.57445 39.56C7.07892 38.62 6.12475 36.14 5.52126 33.85C5.32553 33.11 4.86068 32.95 4.51001 32.95C4.10224 32.95 3.70263 33.17 3.51506 33.49C3.42535 33.64 3.31932 33.9 3.45796 34.41C4.17563 37.12 6.01057 41.75 10.3084 42.39L10.7977 42.46L11.124 42.92C13.8234 46.72 17.6237 48.75 22.1092 48.78C22.7779 48.78 23.4548 48.79 24.1235 48.79C24.8004 48.79 25.4692 48.79 26.1461 48.79C26.823 48.79 27.4999 48.79 28.1686 48.79H54.3635H120.299H145.915H209.233H238.633C239.97 48.79 241.349 48.84 242.686 48.89C244.032 48.94 245.418 48.99 246.78 48.99C248.892 48.99 250.589 48.87 252.13 48.61C255.408 48.06 258.426 46.05 260.62 42.94L260.946 42.48L261.435 42.41C265.733 41.77 267.568 37.14 268.286 34.43C268.416 33.93 268.318 33.67 268.228 33.52C268.033 33.18 267.633 32.96 267.225 32.96Z" fill="white"/>
<path d="M267.25 21.62C265.904 21.62 264.819 22.91 264.819 24.5C264.819 26.09 265.912 27.38 267.25 27.38C268.595 27.38 269.68 26.09 269.68 24.5C269.68 22.91 268.595 21.62 267.25 21.62Z" fill="white"/>
<path d="M4.86056 24.5C4.86056 22.91 3.76776 21.62 2.43029 21.62C1.08467 21.62 0 22.91 0 24.5C0 26.09 1.09282 27.38 2.43029 27.38C3.77592 27.37 4.86056 26.08 4.86056 24.5Z" fill="white"/>
</svg>
