<svg width="90" height="90" viewBox="0 0 90 90" fill="none" xmlns="http://www.w3.org/2000/svg">
<path d="M74.5313 78.3281L68.9063 27.7031C68.6251 25.5938 66.6563 23.9062 64.4063 23.9062H56.2501V18.4219C56.2501 12.0938 51.1876 7.03125 45.0001 7.03125C38.8126 7.03125 33.7501 12.0938 33.7501 18.4219V23.9062H25.7345C23.3438 23.9062 21.3751 25.5938 21.2345 27.7031L15.6095 78.3281C15.4688 79.4531 15.8907 80.5781 16.5938 81.4219C17.4376 82.4063 18.7032 82.9688 20.1095 82.9688H70.0313C71.4376 82.9688 72.7032 82.4063 73.547 81.4219C74.2501 80.5781 74.672 79.4531 74.5313 78.3281ZM36.5626 18.4219C36.5626 13.6406 40.3595 9.84375 45.0001 9.84375C49.6407 9.84375 53.4376 13.6406 53.4376 18.4219V23.9062H36.5626V18.4219ZM71.4376 79.5937C71.1563 80.0156 70.5938 80.1562 70.0313 80.1562H19.9688C19.4063 80.1562 18.8438 79.875 18.5626 79.5937C18.422 79.4531 18.1407 79.0313 18.2813 78.6094L23.9063 27.9844C24.047 27.2812 24.7501 26.7188 25.5938 26.7188H33.7501V36.5625C33.7501 37.4063 34.3126 37.9688 35.1563 37.9688C36.0001 37.9688 36.5626 37.4063 36.5626 36.5625V26.7188H53.4376V36.5625C53.4376 37.4063 54.0001 37.9688 54.8438 37.9688C55.6876 37.9688 56.2501 37.4063 56.2501 36.5625V26.7188H64.2657C65.1095 26.7188 65.9532 27.2812 65.9532 27.9844L71.5782 78.6094C71.7188 79.0313 71.5782 79.3125 71.4376 79.5937Z" fill="white"/>
<path d="M38.2654 44.938C38.5221 44.938 38.7164 44.9233 38.8484 44.894C38.9878 44.8573 39.0941 44.8243 39.1674 44.795C39.2408 44.7583 39.3104 44.74 39.3764 44.74C39.4204 44.74 39.4461 44.7437 39.4534 44.751C39.4681 44.751 39.4864 44.7583 39.5084 44.773L39.7944 46.742C39.7798 46.7567 39.7358 46.775 39.6624 46.797C39.5964 46.8117 39.5378 46.819 39.4864 46.819C39.4204 46.819 39.3838 46.8007 39.3764 46.764C39.3398 46.5293 39.2664 46.3093 39.1564 46.104C39.0464 45.8987 38.9108 45.7337 38.7494 45.609C38.5881 45.477 38.4158 45.411 38.2324 45.411H37.2314V50.438C37.2314 50.6653 37.2351 50.8633 37.2424 51.032C37.2498 51.2007 37.2754 51.34 37.3194 51.45C37.3414 51.494 37.3964 51.5307 37.4844 51.56C37.5798 51.5893 37.6788 51.6113 37.7814 51.626C37.8841 51.6333 37.9574 51.6407 38.0014 51.648C38.0308 51.6847 38.0418 51.7507 38.0344 51.846C38.0344 51.9413 38.0234 52.0073 38.0014 52.044C37.7961 52.022 37.5468 52.0037 37.2534 51.989C36.9601 51.9743 36.6998 51.967 36.4724 51.967C36.2451 51.967 35.9884 51.9743 35.7024 51.989C35.4164 52.0037 35.1671 52.022 34.9544 52.044C34.9324 52.0073 34.9178 51.9413 34.9104 51.846C34.9104 51.7507 34.9251 51.6847 34.9544 51.648C35.0058 51.6407 35.0791 51.6333 35.1744 51.626C35.2771 51.6113 35.3761 51.5893 35.4714 51.56C35.5668 51.5307 35.6218 51.494 35.6364 51.45C35.6804 51.34 35.7061 51.2007 35.7134 51.032C35.7208 50.8633 35.7244 50.6653 35.7244 50.438V45.411H34.7234C34.5401 45.411 34.3678 45.477 34.2064 45.609C34.0451 45.7337 33.9094 45.8987 33.7994 46.104C33.6894 46.3093 33.6161 46.5293 33.5794 46.764C33.5721 46.8007 33.5354 46.819 33.4694 46.819C33.4181 46.819 33.3558 46.8117 33.2824 46.797C33.2164 46.775 33.1761 46.7567 33.1614 46.742L33.4474 44.773C33.4694 44.7583 33.4841 44.751 33.4914 44.751C33.5061 44.7437 33.5354 44.74 33.5794 44.74C33.6454 44.74 33.7151 44.7583 33.7884 44.795C33.8618 44.8243 33.9644 44.8573 34.0964 44.894C34.2358 44.9233 34.4338 44.938 34.6904 44.938H38.2654ZM44.031 44.938C44.119 44.938 44.273 44.938 44.493 44.938C44.7203 44.9307 44.977 44.9233 45.263 44.916C45.5563 44.9087 45.8533 44.905 46.154 44.905C46.4547 44.8977 46.726 44.8903 46.968 44.883C47.2173 44.8757 47.4043 44.872 47.529 44.872C47.5657 45.1433 47.6133 45.4147 47.672 45.686C47.7307 45.9573 47.7857 46.214 47.837 46.456C47.8223 46.4707 47.7857 46.4853 47.727 46.5C47.6683 46.5073 47.6207 46.511 47.584 46.511C47.496 46.511 47.441 46.4817 47.419 46.423C47.3017 46.1223 47.1587 45.8693 46.99 45.664C46.8287 45.4513 46.583 45.345 46.253 45.345H45.362C45.2447 45.345 45.131 45.3523 45.021 45.367C44.9183 45.3743 44.8523 45.4073 44.823 45.466C44.801 45.5247 44.7863 45.598 44.779 45.686C44.779 45.774 44.779 45.8767 44.779 45.994C44.779 46.016 44.779 46.038 44.779 46.06C44.779 46.082 44.779 46.104 44.779 46.126V48.051C44.779 48.0803 44.8267 48.106 44.922 48.128C45.0173 48.15 45.1237 48.161 45.241 48.161H45.802C46.0147 48.161 46.176 48.1427 46.286 48.106C46.4033 48.0693 46.495 47.996 46.561 47.886C46.627 47.776 46.6893 47.6183 46.748 47.413C46.7627 47.3543 46.8067 47.325 46.88 47.325C46.9753 47.325 47.0413 47.3433 47.078 47.38V49.448C47.0707 49.4553 47.045 49.4627 47.001 49.47C46.9643 49.4773 46.9277 49.481 46.891 49.481C46.7957 49.481 46.7443 49.4553 46.737 49.404C46.671 49.1473 46.605 48.9787 46.539 48.898C46.473 48.8173 46.4143 48.766 46.363 48.744C46.2383 48.6927 45.967 48.667 45.549 48.667C45.4537 48.667 45.3437 48.6707 45.219 48.678C45.1017 48.6853 44.999 48.7 44.911 48.722C44.823 48.744 44.779 48.777 44.779 48.821V50.482C44.779 50.482 44.779 50.4893 44.779 50.504C44.779 50.5407 44.779 50.614 44.779 50.724C44.779 50.8267 44.7827 50.9367 44.79 51.054C44.8047 51.1713 44.8267 51.263 44.856 51.329C44.8927 51.4023 44.9843 51.4573 45.131 51.494C45.2777 51.5307 45.4207 51.549 45.56 51.549H46.264C46.4693 51.549 46.6563 51.5197 46.825 51.461C47.001 51.4023 47.1477 51.3143 47.265 51.197C47.3823 51.0797 47.485 50.9403 47.573 50.779C47.661 50.6177 47.7527 50.416 47.848 50.174C47.8627 50.13 47.9103 50.108 47.991 50.108C48.0497 50.108 48.1157 50.1153 48.189 50.13C48.2623 50.1447 48.3063 50.1593 48.321 50.174C48.255 50.3647 48.1817 50.5737 48.101 50.801C48.0203 51.0283 47.947 51.2483 47.881 51.461C47.815 51.6737 47.7673 51.8607 47.738 52.022C47.6647 52.022 47.496 52.022 47.232 52.022C46.968 52.022 46.649 52.022 46.275 52.022C45.901 52.022 45.5087 52.022 45.098 52.022C44.6947 52.022 44.306 52.022 43.932 52.022C43.5653 52.022 43.25 52.022 42.986 52.022C42.7293 52.0293 42.5643 52.033 42.491 52.033C42.469 51.9963 42.4543 51.9303 42.447 51.835C42.447 51.7397 42.4617 51.6737 42.491 51.637C42.5423 51.6297 42.6193 51.6223 42.722 51.615C42.8247 51.6003 42.9237 51.582 43.019 51.56C43.1143 51.5307 43.1693 51.494 43.184 51.45C43.228 51.34 43.2537 51.2007 43.261 51.032C43.2683 50.8633 43.272 50.6653 43.272 50.438V46.489C43.272 46.2543 43.2683 46.0563 43.261 45.895C43.2537 45.7263 43.228 45.587 43.184 45.477C43.1693 45.4257 43.1143 45.389 43.019 45.367C42.9237 45.345 42.8247 45.3303 42.722 45.323C42.6193 45.3157 42.5423 45.312 42.491 45.312C42.4617 45.2753 42.447 45.2057 42.447 45.103C42.4543 45.0003 42.469 44.9343 42.491 44.905C42.733 44.9197 42.9933 44.9307 43.272 44.938C43.5507 44.938 43.8037 44.938 44.031 44.938ZM51.6876 50.559L53.9756 45.301C54.0123 45.2277 54.0709 45.1433 54.1516 45.048C54.2396 44.9453 54.3129 44.894 54.3716 44.894C54.4963 44.894 54.5733 44.916 54.6026 44.96L56.8026 50.405C56.8759 50.5663 56.9309 50.7093 56.9676 50.834C57.0043 50.9513 57.0483 51.0687 57.0996 51.186C57.1656 51.3327 57.2573 51.439 57.3746 51.505C57.4993 51.571 57.6166 51.6113 57.7266 51.626C57.8439 51.6407 57.9173 51.648 57.9466 51.648C57.9759 51.6993 57.9906 51.7727 57.9906 51.868C57.9979 51.9633 57.9906 52.022 57.9686 52.044C57.7559 52.0293 57.5213 52.011 57.2646 51.989C57.0079 51.967 56.7623 51.956 56.5276 51.956C56.3663 51.956 56.1829 51.9633 55.9776 51.978C55.7723 51.9853 55.5743 51.9963 55.3836 52.011C55.2003 52.0257 55.0426 52.0367 54.9106 52.044C54.8959 52.022 54.8849 51.9817 54.8776 51.923C54.8703 51.857 54.8703 51.7947 54.8776 51.736C54.8849 51.6773 54.8959 51.648 54.9106 51.648C55.0059 51.648 55.1159 51.6333 55.2406 51.604C55.3726 51.5673 55.4753 51.516 55.5486 51.45C55.6073 51.3987 55.6366 51.34 55.6366 51.274C55.6366 51.252 55.6146 51.186 55.5706 51.076C55.5266 50.9587 55.4716 50.8193 55.4056 50.658C55.3469 50.4967 55.2846 50.339 55.2186 50.185C55.1599 50.0237 55.1086 49.8917 55.0646 49.789C55.0206 49.6863 54.9986 49.635 54.9986 49.635C54.9986 49.635 54.9876 49.6277 54.9656 49.613C54.9509 49.5983 54.9363 49.591 54.9216 49.591C54.7676 49.5837 54.6173 49.58 54.4706 49.58C54.3313 49.58 54.2029 49.58 54.0856 49.58C54.0489 49.58 54.0123 49.58 53.9756 49.58C53.9463 49.58 53.9169 49.58 53.8876 49.58C53.6676 49.58 53.4733 49.58 53.3046 49.58C53.1433 49.58 52.9673 49.5837 52.7766 49.591C52.7473 49.591 52.7216 49.6093 52.6996 49.646C52.6996 49.646 52.6739 49.701 52.6226 49.811C52.5786 49.921 52.5273 50.0457 52.4686 50.185C52.4099 50.3243 52.3586 50.4453 52.3146 50.548C52.2633 50.68 52.2083 50.8267 52.1496 50.988C52.0983 51.1493 52.0726 51.2483 52.0726 51.285C52.0726 51.373 52.1349 51.4463 52.2596 51.505C52.3843 51.5563 52.5126 51.593 52.6446 51.615C52.7839 51.637 52.8683 51.648 52.8976 51.648C52.9343 51.6847 52.9489 51.7543 52.9416 51.857C52.9343 51.9597 52.9233 52.022 52.9086 52.044C52.7253 52.022 52.5456 52.0037 52.3696 51.989C52.1936 51.967 51.9883 51.956 51.7536 51.956C51.5043 51.956 51.2916 51.967 51.1156 51.989C50.9469 52.0037 50.7673 52.022 50.5766 52.044C50.5546 52.022 50.5399 51.967 50.5326 51.879C50.5253 51.791 50.5326 51.7177 50.5546 51.659C50.5986 51.659 50.6719 51.6443 50.7746 51.615C50.8846 51.5783 50.9909 51.5343 51.0936 51.483C51.2036 51.4317 51.2769 51.3767 51.3136 51.318C51.4089 51.1713 51.4786 51.0467 51.5226 50.944C51.5666 50.834 51.6216 50.7057 51.6876 50.559ZM53.8436 46.885L52.9306 48.997C52.9306 48.997 52.9306 49.0043 52.9306 49.019C52.9379 49.0263 52.9453 49.03 52.9526 49.03C53.0626 49.0373 53.2093 49.0447 53.3926 49.052C53.5759 49.0593 53.7263 49.063 53.8436 49.063C54.0123 49.063 54.1553 49.063 54.2726 49.063C54.3973 49.0557 54.5403 49.0483 54.7016 49.041C54.7163 49.041 54.7236 49.0337 54.7236 49.019C54.7309 49.0043 54.7346 48.997 54.7346 48.997L53.8436 46.885ZM31.176 63.806C31.4986 63.806 31.7956 63.839 32.067 63.905C32.3456 63.9637 32.65 64.0297 32.98 64.103C33.0093 64.389 33.0313 64.675 33.046 64.961C33.068 65.247 33.0863 65.555 33.101 65.885C33.0716 65.929 33.0313 65.951 32.98 65.951C32.98 65.951 32.9763 65.951 32.969 65.951C32.9396 65.951 32.881 65.951 32.793 65.951C32.7123 65.9437 32.6683 65.918 32.661 65.874C32.639 65.72 32.5913 65.5513 32.518 65.368C32.4446 65.1847 32.3456 65.0087 32.221 64.84C32.0963 64.6713 31.9496 64.532 31.781 64.422C31.6196 64.312 31.4363 64.257 31.231 64.257C31.0916 64.257 30.9523 64.2863 30.813 64.345C30.6736 64.3963 30.5563 64.4917 30.461 64.631C30.3656 64.763 30.318 64.95 30.318 65.192C30.318 65.412 30.4023 65.6283 30.571 65.841C30.7396 66.0463 30.9413 66.2407 31.176 66.424C31.418 66.6 31.649 66.7613 31.869 66.908C32.1036 67.062 32.342 67.2307 32.584 67.414C32.8333 67.59 33.0386 67.8137 33.2 68.085C33.3686 68.349 33.453 68.6937 33.453 69.119C33.453 69.5077 33.3393 69.8523 33.112 70.153C32.8846 70.4537 32.5913 70.6883 32.232 70.857C31.88 71.0257 31.506 71.11 31.11 71.11C30.7946 71.11 30.4536 71.0807 30.087 71.022C29.7276 70.9633 29.3866 70.8973 29.064 70.824C29.0273 70.6627 28.9906 70.4573 28.954 70.208C28.9173 69.9587 28.8843 69.7203 28.855 69.493C28.833 69.2583 28.8183 69.0933 28.811 68.998C28.833 68.9613 28.8806 68.9283 28.954 68.899C29.0346 68.8697 29.0896 68.855 29.119 68.855C29.207 68.855 29.2546 68.8807 29.262 68.932C29.284 69.0787 29.3426 69.251 29.438 69.449C29.5333 69.6397 29.6543 69.8303 29.801 70.021C29.955 70.2043 30.131 70.3583 30.329 70.483C30.5343 70.6003 30.758 70.659 31 70.659C31.2786 70.659 31.5206 70.582 31.726 70.428C31.9386 70.2667 32.045 69.9953 32.045 69.614C32.045 69.4233 31.9863 69.2437 31.869 69.075C31.759 68.899 31.6196 68.7377 31.451 68.591C31.2823 68.4443 31.1063 68.3087 30.923 68.184C30.7396 68.0593 30.582 67.953 30.45 67.865C30.1933 67.689 29.944 67.5093 29.702 67.326C29.46 67.1427 29.262 66.9263 29.108 66.677C28.9613 66.4277 28.888 66.116 28.888 65.742C28.888 65.368 29.0016 65.038 29.229 64.752C29.4563 64.4587 29.746 64.2277 30.098 64.059C30.45 63.8903 30.8093 63.806 31.176 63.806ZM38.0379 63.96C38.2653 63.96 38.5219 63.9563 38.8079 63.949C39.1013 63.9343 39.3506 63.916 39.5559 63.894C39.5779 63.9233 39.5889 63.9893 39.5889 64.092C39.5963 64.1873 39.5853 64.2533 39.5559 64.29C39.5119 64.29 39.4349 64.2973 39.3249 64.312C39.2223 64.3193 39.1233 64.3377 39.0279 64.367C38.9399 64.389 38.8849 64.4257 38.8629 64.477C38.8263 64.5723 38.8043 64.6933 38.7969 64.84C38.7896 64.9867 38.7859 65.1553 38.7859 65.346C38.7859 65.368 38.7859 65.3937 38.7859 65.423C38.7859 65.445 38.7859 65.467 38.7859 65.489V67.018C38.7859 67.0253 38.7859 67.0327 38.7859 67.04C38.7933 67.0473 38.7969 67.051 38.7969 67.051C39.0096 67.0583 39.2186 67.0657 39.4239 67.073C39.6366 67.0803 39.8639 67.084 40.1059 67.084C40.3039 67.084 40.5129 67.0803 40.7329 67.073C40.9603 67.0657 41.1693 67.0583 41.3599 67.051C41.3599 67.051 41.3636 67.0473 41.3709 67.04C41.3783 67.0253 41.3819 67.0143 41.3819 67.007L41.3709 65.489C41.3709 65.2543 41.3673 65.0563 41.3599 64.895C41.3526 64.7263 41.3269 64.587 41.2829 64.477C41.2683 64.4257 41.2133 64.389 41.1179 64.367C41.0226 64.3377 40.9236 64.3193 40.8209 64.312C40.7256 64.2973 40.6523 64.29 40.6009 64.29C40.5716 64.2533 40.5569 64.1873 40.5569 64.092C40.5643 63.9893 40.5789 63.9233 40.6009 63.894C40.8136 63.916 41.0629 63.9343 41.3489 63.949C41.6423 63.9563 41.9026 63.96 42.1299 63.96C42.3573 63.96 42.6139 63.9563 42.8999 63.949C43.1933 63.9343 43.4426 63.916 43.6479 63.894C43.6699 63.9233 43.6809 63.9893 43.6809 64.092C43.6883 64.1873 43.6773 64.2533 43.6479 64.29C43.6039 64.29 43.5269 64.2973 43.4169 64.312C43.3143 64.3193 43.2153 64.3377 43.1199 64.367C43.0319 64.389 42.9769 64.4257 42.9549 64.477C42.9183 64.5723 42.8963 64.6933 42.8889 64.84C42.8816 64.9867 42.8779 65.1553 42.8779 65.346C42.8779 65.368 42.8779 65.3937 42.8779 65.423C42.8779 65.445 42.8779 65.467 42.8779 65.489V69.438C42.8779 69.46 42.8779 69.4857 42.8779 69.515C42.8779 69.537 42.8779 69.559 42.8779 69.581C42.8779 69.7717 42.8816 69.9403 42.8889 70.087C42.8963 70.2337 42.9183 70.3547 42.9549 70.45C42.9769 70.494 43.0319 70.5307 43.1199 70.56C43.2153 70.5893 43.3143 70.6113 43.4169 70.626C43.5269 70.6333 43.6039 70.6407 43.6479 70.648C43.6773 70.6847 43.6883 70.7507 43.6809 70.846C43.6809 70.9413 43.6699 71.0073 43.6479 71.044C43.4426 71.022 43.1896 71.0037 42.8889 70.989C42.5956 70.9743 42.3353 70.967 42.1079 70.967C41.8806 70.967 41.6239 70.9743 41.3379 70.989C41.0593 71.0037 40.8136 71.022 40.6009 71.044C40.5789 71.0073 40.5643 70.9413 40.5569 70.846C40.5569 70.7507 40.5716 70.6847 40.6009 70.648C40.6523 70.6407 40.7256 70.6333 40.8209 70.626C40.9236 70.6113 41.0226 70.5893 41.1179 70.56C41.2133 70.5307 41.2683 70.494 41.2829 70.45C41.3269 70.34 41.3526 70.2007 41.3599 70.032C41.3673 69.8633 41.3709 69.6653 41.3709 69.438V67.667C41.3709 67.6523 41.3673 67.6413 41.3599 67.634C41.3526 67.6193 41.3489 67.612 41.3489 67.612C41.1509 67.6047 40.9493 67.601 40.7439 67.601C40.5386 67.5937 40.3259 67.59 40.1059 67.59C39.7099 67.59 39.4203 67.5937 39.2369 67.601C39.0536 67.601 38.9363 67.6047 38.8849 67.612C38.8336 67.6193 38.8006 67.6267 38.7859 67.634C38.7786 67.6413 38.7749 67.6523 38.7749 67.667C38.7823 67.6743 38.7859 67.678 38.7859 67.678V69.438C38.7859 69.46 38.7859 69.4857 38.7859 69.515C38.7859 69.537 38.7859 69.559 38.7859 69.581C38.7859 69.7717 38.7896 69.9403 38.7969 70.087C38.8043 70.2337 38.8263 70.3547 38.8629 70.45C38.8849 70.494 38.9399 70.5307 39.0279 70.56C39.1233 70.5893 39.2223 70.6113 39.3249 70.626C39.4349 70.6333 39.5119 70.6407 39.5559 70.648C39.5853 70.6847 39.5963 70.7507 39.5889 70.846C39.5889 70.9413 39.5779 71.0073 39.5559 71.044C39.3506 71.022 39.0976 71.0037 38.7969 70.989C38.5036 70.9743 38.2433 70.967 38.0159 70.967C37.7886 70.967 37.5319 70.9743 37.2459 70.989C36.9599 71.0037 36.7106 71.022 36.4979 71.044C36.4759 71.0073 36.4613 70.9413 36.4539 70.846C36.4539 70.7507 36.4686 70.6847 36.4979 70.648C36.5493 70.6407 36.6263 70.6333 36.7289 70.626C36.8316 70.6113 36.9306 70.5893 37.0259 70.56C37.1213 70.5307 37.1763 70.494 37.1909 70.45C37.2349 70.34 37.2606 70.2007 37.2679 70.032C37.2753 69.8633 37.2789 69.6653 37.2789 69.438V65.489C37.2789 65.2543 37.2753 65.0563 37.2679 64.895C37.2606 64.7263 37.2349 64.587 37.1909 64.477C37.1763 64.4257 37.1213 64.389 37.0259 64.367C36.9306 64.3377 36.8316 64.3193 36.7289 64.312C36.6263 64.2973 36.5493 64.29 36.4979 64.29C36.4686 64.2533 36.4539 64.1873 36.4539 64.092C36.4613 63.9893 36.4759 63.9233 36.4979 63.894C36.7106 63.916 36.9636 63.9343 37.2569 63.949C37.5503 63.9563 37.8106 63.96 38.0379 63.96ZM50.2245 63.839C50.7011 63.839 51.1558 63.9343 51.5885 64.125C52.0285 64.3083 52.4171 64.5687 52.7545 64.906C53.0991 65.236 53.3705 65.621 53.5685 66.061C53.7738 66.501 53.8765 66.974 53.8765 67.48C53.8765 67.986 53.7738 68.459 53.5685 68.899C53.3705 69.3317 53.0991 69.7167 52.7545 70.054C52.4171 70.384 52.0285 70.6443 51.5885 70.835C51.1558 71.0183 50.7011 71.11 50.2245 71.11C49.7551 71.11 49.3005 71.0183 48.8605 70.835C48.4205 70.6443 48.0281 70.384 47.6835 70.054C47.3461 69.7167 47.0748 69.3317 46.8695 68.899C46.6715 68.459 46.5725 67.986 46.5725 67.48C46.5725 66.974 46.6715 66.501 46.8695 66.061C47.0748 65.621 47.3461 65.236 47.6835 64.906C48.0281 64.5687 48.4205 64.3083 48.8605 64.125C49.3005 63.9343 49.7551 63.839 50.2245 63.839ZM49.9715 64.301C49.6561 64.301 49.3885 64.3853 49.1685 64.554C48.9558 64.7227 48.7835 64.9463 48.6515 65.225C48.5268 65.4963 48.4351 65.797 48.3765 66.127C48.3178 66.457 48.2885 66.7833 48.2885 67.106C48.2885 67.5167 48.3251 67.931 48.3985 68.349C48.4791 68.7597 48.6038 69.141 48.7725 69.493C48.9411 69.8377 49.1611 70.1163 49.4325 70.329C49.7111 70.5417 50.0521 70.648 50.4555 70.648C50.7781 70.648 51.0458 70.5673 51.2585 70.406C51.4785 70.2373 51.6545 70.0173 51.7865 69.746C51.9185 69.4747 52.0138 69.174 52.0725 68.844C52.1311 68.514 52.1605 68.1877 52.1605 67.865C52.1605 67.4543 52.1201 67.04 52.0395 66.622C51.9661 66.204 51.8415 65.819 51.6655 65.467C51.4968 65.115 51.2731 64.8327 50.9945 64.62C50.7158 64.4073 50.3748 64.301 49.9715 64.301ZM62.4828 65.819C62.4828 66.2443 62.3765 66.6147 62.1638 66.93C61.9585 67.2453 61.6908 67.491 61.3608 67.667C61.0382 67.8357 60.6935 67.92 60.3268 67.92C60.1362 67.92 59.9712 67.887 59.8318 67.821C59.6998 67.755 59.6155 67.7037 59.5788 67.667C59.5568 67.645 59.5385 67.6083 59.5238 67.557C59.5092 67.4983 59.5018 67.447 59.5018 67.403C59.5018 67.3517 59.5165 67.326 59.5458 67.326C59.6045 67.3407 59.6705 67.3517 59.7438 67.359C59.8245 67.3663 59.9052 67.37 59.9858 67.37C60.2498 67.37 60.4662 67.2417 60.6348 66.985C60.8035 66.721 60.8878 66.3837 60.8878 65.973C60.8878 65.687 60.8365 65.423 60.7338 65.181C60.6385 64.9317 60.4992 64.73 60.3158 64.576C60.1398 64.422 59.9308 64.345 59.6888 64.345C59.5715 64.345 59.4578 64.3523 59.3478 64.367C59.2452 64.3743 59.1792 64.4073 59.1498 64.466C59.1278 64.5247 59.1132 64.598 59.1058 64.686C59.1058 64.774 59.1058 64.8767 59.1058 64.994C59.1058 65.016 59.1058 65.038 59.1058 65.06C59.1058 65.082 59.1058 65.104 59.1058 65.126V69.438C59.1058 69.46 59.1058 69.4857 59.1058 69.515C59.1058 69.537 59.1058 69.559 59.1058 69.581C59.1058 69.7717 59.1095 69.9403 59.1168 70.087C59.1242 70.2337 59.1462 70.3547 59.1828 70.45C59.2048 70.494 59.2598 70.5307 59.3478 70.56C59.4432 70.5893 59.5422 70.6113 59.6448 70.626C59.7548 70.6333 59.8318 70.6407 59.8758 70.648C59.9052 70.6847 59.9162 70.7507 59.9088 70.846C59.9088 70.9413 59.8978 71.0073 59.8758 71.044C59.6705 71.022 59.4175 71.0037 59.1168 70.989C58.8235 70.9743 58.5632 70.967 58.3358 70.967C58.1085 70.967 57.8518 70.9743 57.5658 70.989C57.2798 71.0037 57.0305 71.022 56.8178 71.044C56.7958 71.0073 56.7812 70.9413 56.7738 70.846C56.7738 70.7507 56.7885 70.6847 56.8178 70.648C56.8692 70.6407 56.9462 70.6333 57.0488 70.626C57.1515 70.6113 57.2505 70.5893 57.3458 70.56C57.4412 70.5307 57.4962 70.494 57.5108 70.45C57.5548 70.34 57.5805 70.2007 57.5878 70.032C57.5952 69.8633 57.5988 69.6653 57.5988 69.438V65.489C57.5988 65.2543 57.5952 65.0563 57.5878 64.895C57.5805 64.7263 57.5548 64.587 57.5108 64.477C57.4962 64.4257 57.4412 64.389 57.3458 64.367C57.2505 64.345 57.1515 64.3303 57.0488 64.323C56.9462 64.3157 56.8692 64.312 56.8178 64.312C56.7885 64.2753 56.7738 64.2057 56.7738 64.103C56.7812 64.0003 56.7958 63.9343 56.8178 63.905C57.0598 63.9197 57.3202 63.9307 57.5988 63.938C57.8775 63.938 58.1305 63.938 58.3578 63.938C58.5852 63.938 58.8382 63.9343 59.1168 63.927C59.4028 63.9123 59.7035 63.905 60.0188 63.905C60.4662 63.905 60.8768 63.982 61.2508 64.136C61.6248 64.2827 61.9218 64.499 62.1418 64.785C62.3692 65.0637 62.4828 65.4083 62.4828 65.819Z" fill="white"/>
</svg>
