<svg xmlns="http://www.w3.org/2000/svg" width="320" height="260" viewBox="0 0 320 260" style="enable-background:new 0 0 320 260;version:1"><style>.a{fill:#FFf;}.b{clip-rule:evenodd;fill-rule:evenodd;fill:#Fff;}.c{fill:#fff;stroke-miterlimit:10;stroke-width:0.5;stroke:#FFf;}</style><path d="M302.4 50.8c0-2 1.8-3.7 3.8-3.7 2 0 3.8 1.6 3.8 3.7 0 2-1.7 3.7-3.6 3.7C304.2 54.4 302.4 52.8 302.4 50.8zM306.2 53.9c1.8 0 3.2-1.4 3.2-3.1 0-1.7-1.5-3.1-3.2-3.1 -1.7 0-3.2 1.4-3.2 3.1C303 52.5 304.5 53.9 306.2 53.9zM304.3 52.5c0.5 0 0.6-0.1 0.6-0.6v-2.3c0-0.5-0.1-0.5-0.6-0.6v-0.3h2c1 0 1.8 0.2 1.8 1.1 0 0.8-0.7 0.9-1.2 1.1 1 0.6 0.7 1.5 1.1 1.5 0.2 0 0.3-0.4 0.3-0.5h0.3c0 0.4-0.1 1.1-0.9 1.1 -1.4 0-0.5-2-1.7-2h-0.2v1c0 0.6 0.1 0.6 0.6 0.7v0.3h-2.1V52.5zM305.8 50.5h0.3c0.5 0 0.9-0.1 0.9-0.7 0-0.5-0.1-0.8-0.7-0.8s-0.6 0.2-0.6 0.6V50.5z" class="a"/><path d="M38.3 145.7c0 44.3 53.5 80.3 119.3 80.3 65.8 0 119.3-36 119.3-80.3 0-44.3-53.5-80.3-119.3-80.3C91.8 65.3 38.3 101.4 38.3 145.7zM41.1 145.7c0-42.8 52.3-77.7 116.5-77.7 64.2 0 116.5 34.8 116.5 77.7 0 42.8-52.3 77.7-116.5 77.7C93.3 223.4 41.1 188.5 41.1 145.7z" class="a"/><path d="M127.5 110c-0.3 0-0.8 0-1.5-0.1l-1.3-0.1c-0.8 0-1.6-0.1-2.5-0.1 -0.6 0-1.3 0-2.6 0 -1.2 0-1.5 0.1-2.7 0.2 -0.6 0-0.9 0-1.1 0 -1 0-1.6-0.3-1.6-0.9 0-0.2 0.1-0.4 0.2-0.5 0.3-0.4 0.5-0.4 2-0.6 1.6-0.2 2-0.8 2-2.7l0-1.5V89.4v-1.6c0-1.3-0.2-1.6-1-1.6 -0.4 0-0.8 0.1-1.6 0.5 -0.6 0.3-1 0.4-1.3 0.4 -0.5 0-0.8-0.3-0.8-0.8 0-0.7 0.4-1 2.4-1.6 3.3-1 5-1.7 7.1-2.8 0.3-0.2 0.5-0.2 0.7-0.2 0.4 0 0.7 0.4 0.7 1.2v1.4 1.4 18.1c0 3.3 0.3 3.9 2.1 4.2 1.8 0.2 2.2 0.5 2.2 1.1C128.9 109.6 128.3 110 127.5 110zM120.5 89.6c0-2-0.1-2.6-0.4-3.2 -0.3-0.6-1.1-1-2-1 -0.2 0-0.4 0-0.7 0 1.3 0.2 1.6 0.5 1.7 2.1v1.8 14.1c0 2.9 0 3.1-0.2 3.8 -0.2 0.5-0.6 0.9-1.4 1.2 2.4-0.3 3.1-1.2 3.1-4.5V89.6z" class="a"/><path d="M142 110.7c-5.8 0-10.3-3.2-10.3-7.3 0-2.6 1.9-5 4.9-6.1 0.6-0.2 0.9-0.4 0.9-0.6 0 0-0.1-0.1-0.2-0.2l-1.1-0.6c-2.3-1.3-3.6-3.5-3.6-6.1 0-4.8 4.1-8.1 10.1-8.1 5.8 0 9.8 2.6 9.8 6.5 0 2.2-1.3 3.7-3.9 4.8 -1 0.4-1.2 0.5-1.2 0.6 0 0.1 0.2 0.2 0.4 0.3l1.2 0.7c3.1 1.7 4.8 4.2 4.8 7.2C153.6 106.9 148.7 110.7 142 110.7zM136.1 107.8c-1.3-1.1-2.1-2.8-2.1-4.5 0-1.4 0.6-3.1 1.6-4.2 0.5-0.6 1-1 2.2-1.6 -1.7 0.6-2.2 0.9-3.2 1.7 -1.2 1-2 2.6-2 4.1 0 2.9 2.6 5.5 6.5 6.3C137.4 108.7 137 108.5 136.1 107.8zM145 97.5l-5.2-2.4c-3.6-1.7-5-3.4-5-6.1 0-2.8 1.5-4.9 4.6-6.2 -3.5 1-5.8 3.7-5.8 6.8 0 2.8 1.7 5 5 6.5l4.8 2.1c3.6 1.7 5.3 3.5 5.3 5.9 0 1.4-0.7 2.9-1.9 3.9 -0.8 0.7-1.3 1-2.9 1.5 3.5-0.7 5.8-3.3 5.8-6.2C149.6 100.8 148.1 99 145 97.5zM145.5 100.4c-0.8-0.5-1.9-1.1-3.2-1.8 -0.6-0.3-1.2-0.5-1.8-0.7 -0.3-0.1-0.6-0.2-0.7-0.2 -0.4 0-1.2 0.6-1.5 1.2 -0.6 1.1-1 2.5-1 3.9 0 3.5 2.2 6.1 5.2 6.1 2.8 0 5.1-2.2 5.1-4.8C147.7 102.7 146.9 101.4 145.5 100.4zM142.5 83.4c-2.3 0-4.2 1.7-4.2 3.9 0 1.4 0.8 2.6 2.1 3.3 0.6 0.3 1.7 0.8 3.2 1.4 1 0.5 1.5 0.6 1.7 0.6 0.2 0 0.3-0.1 0.5-0.3 1-1 1.5-2.3 1.5-3.7C147.2 85.6 145.2 83.4 142.5 83.4zM144.6 82.9c2.5 1.6 3.5 3.1 3.5 5.7 0 1.9-0.6 3.2-2.1 4.4 2-1.2 3.3-3 3.3-4.8C149.3 85.8 147.6 84 144.6 82.9z" class="a"/><path d="M168.8 110.4c-2.4 1.4-5 2.1-7.1 2.1 -2.6 0-4.5-1.4-4.5-3.3 0-1.4 1.1-2.5 2.6-2.5 1.1 0 2 0.6 2.6 1.9 0.2 0.5 0.4 0.9 0.6 1.1 0.3 0.6 0.6 0.8 1.2 0.8 0.4 0 1-0.1 1.4-0.3 2.7-1.2 4.7-4.4 4.7-7.8 0-4-2.7-7.2-6.3-7.2 -1.4 0-3.2 0.4-4.2 0.9 -0.7 0.3-1 0.5-1 0.5 -0.1 0-0.3 0.1-0.4 0.1 -0.4 0-0.6-0.3-0.6-0.7 0-0.2 0-0.3 0.1-0.5 0.2-0.3 0.5-0.6 0.8-0.8 0.3-0.2 1.1-0.7 2.3-1.3 4.2-2.4 6.2-4.8 6.2-7.4 0-2-1.5-3.4-3.5-3.4 -1.3 0-2.6 0.7-3.5 1.9l-0.9 1.2c-0.3 0.4-0.5 0.6-0.8 0.6 -0.4 0-0.7-0.3-0.7-0.7 0-0.5 0.5-1.5 1.2-2.4 1.7-2.1 4.1-3.1 7.3-3.1 4.3 0 7.1 1.8 7.1 4.6 0 2.1-1.7 4.1-4.5 5.6l-2.9 1.4 -0.8 0.5c1.7-0.3 2.3-0.3 3.2-0.3 4.8 0 8.1 3 8.1 7.5C176.3 103.5 173.5 107.7 168.8 110.4zM158.9 109.3c0-1 0.3-1.4 1.1-1.9 -1.3 0-2.1 0.7-2.1 1.9 0 1.2 0.8 2 2.6 2.6C159.3 111.1 158.9 110.4 158.9 109.3zM164.8 94.1c-1.1 0-1.7 0.1-3.2 0.5 1.1-0.2 1.5-0.2 2.1-0.2 4.1 0 7.1 3.3 7.1 7.9 0 3.2-1.4 5.8-4.2 8.1 1.7-0.9 2.3-1.5 3.5-3.1 1.4-1.9 2-3.7 2-5.9C172.2 97 169.3 94.1 164.8 94.1zM164.8 81.3c-0.9 0-1.5 0.2-2.3 0.6 0.6-0.2 0.9-0.2 1.3-0.2 2.3 0 4.1 1.9 4.1 4.1 0 0.7-0.1 1.4-0.4 2 -0.5 1.4-1 2-2.8 3.6l-0.8 0.8c3.5-2.4 5.2-4.7 5.2-7.2C169.2 82.9 167.4 81.3 164.8 81.3z" class="a"/><path d="M199.5 83.6c-0.2 0.4-0.6 1.3-1.2 2.6l-1.8 4c-2.3 5-4.3 9.8-5.2 12l-2.3 6c-0.6 1.4-0.9 2.2-1 2.5 -0.2 0.8-0.5 1.2-0.8 1.3 -0.2 0-0.9 0.1-1.5 0.1 -0.3 0-0.4-0.1-0.4-0.3 0-0.1 0.1-0.4 0.2-0.6 0.8-1.6 1.2-2.5 2.1-4.8 0.8-2 1.5-3.8 2.1-5.3 1.7-4.1 3.1-8.1 3.9-10.3l0.5-1.4c0.1-0.1 0.1-0.2 0.1-0.3 0-0.3-0.2-0.4-1-0.4h-6.1c-0.4 0-1.5 0-3.6 0.1 -1.8 0-2.5 0.1-3.4 0.2 -0.2 0-0.4 0.1-0.5 0.1 -0.6 0-0.7-0.3-0.8-2.1l-0.1-2.4 0-1.4v-0.1c0-0.8 0.1-0.9 0.6-0.9 0.2 0 0.5 0 0.8 0 0.7 0.1 2.1 0.1 4.2 0.1h5.2 9.7c0.4 0 0.6 0.2 0.6 0.5C199.8 83 199.7 83.3 199.5 83.6zM197.2 83.2h-11.1c-2.7 0-3.9 0-5.5-0.1 -0.3 0-0.6 0-0.7 0 -0.3 0-0.4 0.1-0.4 0.5v0.7c2.6 0.1 3.8 0.2 7.2 0.2h11.1l0.2-0.5c0.1-0.2 0.2-0.4 0.2-0.5C198.2 83.3 198 83.2 197.2 83.2z" class="a"/><path d="M137.5 184c0 0.2-0.1 0.8-0.3 1.8l-0.4 2.6 -0.2 1.8c-0.1 0.4-0.5 0.8-1 0.8 -0.2 0-0.4 0-0.5-0.2 -0.4-0.2-0.6-0.5-1.4-2 -1.2-2.2-2.3-2.9-5.3-2.9h-1.7c-0.7 0-0.8 0.1-0.8 0.7v17.9c0 3.2 0.3 3.7 2.3 4 2 0.2 2.4 0.4 2.4 1.1 0 0.6-0.6 0.9-1.8 0.9 -0.2 0-0.7 0-1.4 0 -0.6 0-1-0.1-1.4-0.1l-2 0 -2.1-0.1 -2 0 -2.3 0.1c-0.4 0-0.9 0-1.4 0.1 -0.6 0-1.2 0-1.3 0 -1.1 0-1.7-0.3-1.7-0.9 0-0.6 0.5-0.8 2.4-1.1 1.9-0.3 2.2-0.8 2.2-4v-17.5c0-0.9-0.2-1.1-1.2-1.1 -2 0-3.5 0.3-4.4 0.9 -0.3 0.2-0.9 0.6-1.6 1.3 -0.7 0.6-1.2 1.1-1.6 1.7 -0.6 0.7-0.9 0.9-1.4 0.9 -0.6 0-1-0.4-1-0.8 0-0.3 0-0.6 0.2-1l0.7-1.9c0.3-0.7 0.5-1.5 0.6-2 0.6-2.2 0.8-2.7 1.7-2.7 0.1 0 0.3 0 0.4 0.1 0.2 0.1 0.4 0.2 0.5 0.3 0 0 0.1 0.3 0.3 0.7 0.3 0.6 0.5 0.7 2.1 0.7h17.7l1.9 0c1.6 0 1.9-0.2 2.5-1.1 0.4-0.6 0.7-0.7 1.2-0.7 0.6 0 1.1 0.3 1.1 0.7C137.6 183.2 137.6 183.6 137.5 184zM109.8 183.5l-0.2 0.6 -0.6 2.1c-0.3 0.9-0.5 1.5-1.1 2.8 0.2-0.3 0.4-0.5 0.5-0.6 1.8-2.1 1.9-2.3 3.1-2.8C110.3 185 110.1 184.7 109.8 183.5zM120.5 185.7h-1.6l0 18.9c0 3.2-0.1 3.7-1.6 4.2 0.9 0 1.3-0.1 1.9-0.4 1-0.6 1.3-1.4 1.3-3.6V185.7zM133.1 185.4c-0.2 0-0.3 0-1.2 0 1.1 0.5 1.5 0.7 2 1.4 0.4 0.6 0.6 1 0.9 2.1l0.1-0.9 0.1-1.3 0.2-1.3 0.1-0.5C134.7 185.2 134.3 185.4 133.1 185.4z" class="a"/><path d="M166.9 205c-0.1 0.4-0.2 0.9-0.3 1.4 -0.2 1.1-0.4 1.8-0.4 2.2 -0.1 1.3-0.4 1.7-1.1 1.7 -0.3 0-0.8 0-1.6 0 -0.6 0-2-0.1-4.3-0.1l-3.6-0.1 -3.7 0h-2.4c-1.1 0-2.2 0-3.3 0 -1.6 0-1.9 0-3.4 0.1 -0.6 0-1 0-1.2 0 -1 0-1.6-0.3-1.6-0.9 0-0.6 0.4-0.8 2.2-1.1 1.7-0.3 2-0.8 2-4v-14.5c0-3.2-0.3-3.7-2-3.9 -1.8-0.3-2.2-0.5-2.2-1.1 0-0.6 0.6-0.9 1.6-0.9 0.1 0 0.6 0 1.3 0.1 0.8 0 2.2 0.1 3.8 0.1 1.2 0 2.2 0 3.1 0 4.5 0 11-0.2 13.5-0.3 0.5 0 0.9-0.1 1.1-0.1 0.6 0 0.9 0.2 0.9 0.8 0 0.2 0 0.5 0 0.8v1.2c0 0.7 0 1.3 0 1.9 0 0.2 0 0.5 0 0.7 0 0.7-0.2 1-0.9 1 -0.6 0-1-0.2-1.5-1 -0.7-1.1-1.9-2.2-2.7-2.6 -0.6-0.4-1.8-0.6-2.9-0.6 -1.6 0-3.4 0.1-4.1 0.2 -0.7 0.1-0.9 0.4-0.9 1.3l0 1.3v4.9c0 0.8 0.1 1.3 0.3 1.4 0.2 0.2 0.3 0.2 1.8 0.2 1.2 0 1.9 0 2.7-0.1 0.6 0 1.1-0.2 1.4-0.4 0.5-0.3 0.8-0.6 1.8-2.5 0.3-0.5 0.6-0.7 1.1-0.7 0.6 0 1.1 0.4 1.1 1 0 0.2 0 0.4-0.1 0.9 0 0.3 0 0.7-0.1 1.3 -0.1 1.1-0.1 1.5-0.1 1.9 0 0.4 0 0.7 0 1l0.1 1.7c0 0.3 0 0.6 0 0.8 0 0.7-0.4 1-1 1 -0.7 0-1-0.3-1.6-1.5 -0.9-1.9-2-2.6-4.4-2.6 -2.8 0-3.1 0.2-3.1 1.7v4.2c0 2.8 0.3 3.8 1.2 4.6 0.7 0.6 1.8 0.9 3.5 0.9 3.1 0 5.4-1.1 6.9-3.2l0.9-1.4c0.4-0.5 0.7-0.7 1.3-0.7 0.6 0 1 0.4 1 0.9C167.1 204.3 167 204.7 166.9 205zM146.8 189.6c0-1.4-0.1-2-0.4-2.5 -0.4-0.9-1.4-1.5-2.8-1.5 1.4 0.5 1.6 1 1.6 4.1v14.8c0 3.2-0.1 3.7-1.6 4.2 0.9 0 1.3-0.1 1.9-0.4 1-0.6 1.3-1.4 1.3-3.6V189.6zM160.4 196.3c0-1.1 0-1.5 0.2-2.7 -1 2-1.6 2.4-3.7 2.6 1.2 0.2 1.8 0.4 2.4 1 0.6 0.5 0.8 0.9 1.3 2.1C160.4 198 160.4 197.4 160.4 196.3zM163.7 188.2c0-0.2 0-0.5 0-1.1v-1.1c0-0.5-0.1-0.6-1.1-0.6h-0.3 -1.7c-0.2 0-0.5 0-0.9 0 1.1 0.3 1.5 0.5 2.4 1.2 0.7 0.6 1 0.9 1.7 1.8C163.7 188.4 163.7 188.3 163.7 188.2zM163.1 207.6c-0.9 0.7-1.5 1-3 1.3l0.9 0h1.7l1.3 0c0.4 0 0.4-0.1 0.5-0.4 0.1-1 0.4-2.2 0.6-3.5C164.2 206.5 163.9 206.9 163.1 207.6z" class="a"/><path d="M202.3 210.4h-0.9l-3.1-0.2c-1 0-2-0.1-3-0.1 -1.4 0-3 0-5.1 0.2 -0.6 0-1.4 0.1-1.6 0.1 -0.8 0-1.3-0.3-1.3-0.8 0-0.4 0.2-0.7 0.7-0.8 0.3-0.1 0.4-0.1 1.3-0.2 1.2-0.2 1.7-0.4 1.7-0.9 0-0.2-0.1-0.5-0.3-1l-0.9-2 -1.2-2.4c-0.1-0.4-0.3-0.5-0.4-0.7 -0.1-0.1-0.3-0.2-0.5-0.2h-0.6 -7.3c-1.1 0-1.3 0.2-1.6 1l-0.5 1.3c-0.4 1.1-0.6 2.2-0.6 2.7 0 1.2 0.8 1.8 2.9 2 1.6 0.2 2 0.3 2 1 0 0.6-0.5 0.9-1.6 0.9 -0.2 0-0.7 0-1.2 0 -2-0.2-2.3-0.2-3.5-0.2 -1.1 0-1.6 0-3.5 0.2 -0.5 0-0.9 0-1.3 0 -0.9 0-1.4-0.4-1.4-0.9 0-0.5 0.4-0.8 1.4-1 1-0.1 1.4-0.3 1.8-0.6 0.6-0.5 0.9-0.9 2.3-3.7l2.4-4.8 3.6-7.7 2.2-4.5c0.4-0.8 0.8-1.6 1.1-2.2 0.6-1.2 1.2-1.6 2.5-1.6 1 0 1.3 0.3 1.8 1.3 0.6 1.3 1.5 3.1 2.6 5.4l3.5 6.9 2.7 5.5 1.8 3.3c1.3 2.3 1.7 2.7 3.2 2.7 1.2 0 1.6 0.2 1.6 0.9C203.8 210.2 203.5 210.4 202.3 210.4zM176.7 208.5c-0.6-0.4-1-1.1-1-2 0-0.5 0-0.8 0.3-1.7l0.2-0.7 -0.3 0.7 -0.8 1.7c-0.7 1.5-1.2 2-2.8 2.6 1.3-0.1 1.9-0.1 2.8-0.1 0.5 0 1.3 0 2.4 0l1.3 0.1C177.5 208.8 177.2 208.8 176.7 208.5zM187 198.8c-0.1-0.2-0.2-0.4-0.2-0.5l-3-6c-0.2-0.3-0.4-0.5-0.5-0.5 -0.1 0-0.4 0.4-0.7 1 -0.2 0.4-0.5 1.1-1 2 -0.6 1.1-1 2-1.2 2.6 -0.3 0.5-0.5 0.9-0.6 1.1 -0.1 0.2-0.2 0.4-0.2 0.6 0 0.4 0.3 0.5 1 0.5h5.4c0.8 0 1 0 1-0.3C187.1 199 187 198.9 187 198.8zM192.5 204.7l-7.8-16.2 -0.8 1.6 7.4 15.2c0.6 1.4 0.8 1.8 0.8 2.4 0 0.4-0.2 0.7-0.8 1.1 1.4-0.2 2.1-0.7 2.1-1.7C193.3 206.6 193 205.9 192.5 204.7z" class="a"/><path d="M43.7 145.8c0 41.1 51.1 74.5 113.9 74.5 62.8 0 113.8-33.4 113.8-74.5 0-41.1-51.1-74.5-113.8-74.5C94.8 71.2 43.7 104.7 43.7 145.8zM44.7 145.8c0-40.6 50.7-73.6 112.9-73.6 62.3 0 112.9 33 112.9 73.6 0 40.6-50.7 73.6-112.9 73.6C95.3 219.4 44.7 186.4 44.7 145.8z" class="a"/><path d="M245.5 162.4c0 1-0.9 1.8-2.1 1.8 -1.1 0-2.1-0.8-2.1-1.8 0-1 0.9-1.8 2.1-1.8C244.6 160.5 245.5 161.3 245.5 162.4zM209.7 159.1c0 1-0.9 1.8-2.1 1.8 -1.2 0-2.1-0.8-2.1-1.8 0-1 0.9-1.8 2.1-1.8C208.8 157.2 209.7 158.1 209.7 159.1zM208.4 138.9c0 1-0.9 1.8-2.1 1.8 -1.2 0-2.1-0.8-2.1-1.8 0-1 0.9-1.8 2.1-1.8C207.5 137 208.4 137.9 208.4 138.9zM207.8 148.7c0 1-0.9 1.8-2.1 1.8 -1.1 0-2.1-0.8-2.1-1.8 0-1 0.9-1.8 2.1-1.8C206.9 146.9 207.8 147.7 207.8 148.7zM250.7 139.1c-0.6 0.2-1.3 0.1-2.2 0.1 -0.7 0-1.8 0.1-2.2-0.1 -0.3-0.2-0.6-1.1-0.8-1.6 -1.4-4.2-3-8.2-5.5-11.3 -2.7-3.3-7.1-6.2-13.6-5.3 -5.4 0.7-8.5 4.4-10.3 8.9 -1.6 3.9-2.3 8.8-2.6 14.2 -0.1 1.3-0.1 2.3 0.3 3.1 0.4 0.3 0.7 0.5 1.2 0.7 0.3 0.1 1.4 0.3 1.4 0.6 0 0.2-0.6 0.4-0.9 0.6 -0.3 0.2-0.7 0.3-0.9 0.5 -0.6 0.5-0.8 1.1-1.1 1.9 0.3 6.3 1.2 11.7 3.6 16.1 2.1 4 5.7 8.1 12.4 6.8 5.5-1.1 7-6.1 6.8-12.7 -0.2-5.2-1.5-7.8-6.2-8.5 -0.6-0.1-1.5-0.2-2.2-0.2 -0.6 0-1.9 0.1-2.2-0.3 -0.2-0.3-0.1-1.2-0.1-1.8 0-0.7-0.2-1.4 0.1-1.8 0.3-0.4 3.1-0.2 3.9-0.2h26.8c0.7 0 1.6-0.1 1.9 0.1 0.5 0.2 0.4 0.9 0.4 1.8 0 0.7 0.1 1.8-0.1 2 -0.3 0.3-1.7 0.2-2.2 0.2 -2.6 0.2-5.1 0.4-5.9 2.6 -0.5 1.4-0.4 3.3-0.4 5.1v16.4c-0.5 0.6-2.4 0.6-3.2 0.3 -0.5-0.1-0.7-0.5-1-0.8 -0.6-0.6-1.1-1.1-1.7-1.8 -0.5-0.5-1-0.9-1.9-0.7 -0.5 0.1-1.1 0.5-1.6 0.8 -3.7 1.9-8.1 3.4-13.4 3.7 -6.3 0.3-11.2-1.7-15.3-4.2 -3.9-2.4-7.4-5.9-9.8-9.7 -1.9-2.9-3.4-6.3-4.1-10.5 -0.2-1.3-0.3-3-0.9-3.9 -0.3-0.4-1.1-1-1.7-1.2 -0.2-0.1-0.6 0-0.6-0.3 0-0.2 0.5-0.4 0.7-0.4 0.3-0.1 0.5-0.2 0.8-0.3 0.7-0.5 1.1-0.8 1.4-1.5 0.4-1 0.3-2.2 0.5-3.1 0.5-3.1 1.4-5.8 2.6-8.3 1.5-3.2 3.4-6.2 5.9-8.7 4.7-4.8 10.9-8.9 20-9.3 6.4-0.3 10.4 1.8 14.6 3.9 0.6 0.3 1.4 0.8 2.1 0.6 0.7-0.1 1.2-0.7 1.6-1.2 0.4-0.5 0.8-1.2 1.4-1.4 0.3-0.1 2.6-0.1 2.9 0.1 0.5 0.3 0.5 1.3 0.6 2.2 0.4 5.8 0.7 11.2 1.1 17C250.9 138.4 251 138.8 250.7 139.1z" class="b"/><path d="M88.4 137.6c0 1-0.9 1.8-2.1 1.8 -1.2 0-2.1-0.8-2.1-1.8 0-1 0.9-1.8 2.1-1.8C87.5 135.8 88.4 136.6 88.4 137.6zM88.3 159.1c0 1-0.9 1.8-2.1 1.8 -1.2 0-2.1-0.8-2.1-1.8 0-1 0.9-1.8 2.1-1.8C87.4 157.2 88.3 158.1 88.3 159.1zM88.3 148.3c0 1-0.9 1.8-2.1 1.8 -1.2 0-2.1-0.8-2.1-1.8s0.9-1.8 2.1-1.8C87.4 146.5 88.3 147.3 88.3 148.3zM69.6 177.1c-0.2-0.8-0.1-2.2-0.1-3.1 0.5-0.4 1.2-0.3 1.8-0.3 3.3-0.1 6.3-0.5 7.4-2.9 0.4-1 0.5-2 0.5-3.6v-14.5c0-0.7 0.1-1.5 0-2 -0.2-0.9-1.3-1.6-2.2-1.9 -0.4-0.1-1-0.2-1.1-0.4 0-0.3 0.7-0.5 1.1-0.7 1.1-0.5 2-1.1 2.2-2.3 0-7.7 0.1-15.6 0-23.3 -0.4-0.6-1.1-0.4-1.7-0.4 -9.6 0.6-14.7 5.1-15.2 14.9 0 0.7 0.1 1.7-0.2 2 -0.3 0.3-1.8 0.1-2.5 0.1 -1 0-2 0.1-2.6-0.1 -0.3-0.3-0.1-0.9-0.1-1.3 0.8-6 1.7-12 2.6-18.1 0.1-0.8 0.2-2.3 0.7-2.5 1-0.4 1.2 0.6 1.7 0.9h45.5c1 0 2.2 0.2 3 0 0.2-0.1 0.6-0.3 0.8-0.5 0.2-0.2 0.2-0.7 0.8-0.7 1 0.1 0.9 1.4 1.1 2.2 0.9 5.7 1.8 11.5 2.6 17.2 0.1 0.7 0.5 2.5 0.2 2.8 -0.2 0.2-2 0.1-2.6 0.1 -1 0-2.3 0.1-2.6-0.1 -0.3-0.2-0.2-1.3-0.3-1.9 -0.6-9.4-5-14.6-14.5-15.1 -0.7 0-1.5-0.1-1.9 0.1 -0.5 0.3-0.4 1.6-0.4 2.7v18.3c0 1-0.2 2.1 0 3 0.1 0.8 0.9 1.4 1.5 1.7 0.2 0.1 1.6 0.2 1.6 0.6 0.1 0.4-0.5 0.5-0.6 0.6 -1.2 0.5-2.2 1-2.4 2.4 -0.1 0.8 0 1.7 0 2.5v12.9c0 1.8 0 3.4 0.6 4.5 0.7 1.2 2 1.9 3.6 2.2 0.8 0.2 2.6 0.4 4 0.4 0.5 0 1.1-0.1 1.2 0.2 0.2 0.2 0.1 1.1 0.1 1.6 0 0.6 0.1 1.3-0.2 1.5 -0.2 0.2-1.3 0.1-2 0.1H77.9C75.1 177.2 72.1 177.3 69.6 177.1z" class="b"/><path d="M173 154.2c0 1-0.9 1.8-2.1 1.8 -1.2 0-2.1-0.8-2.1-1.8 0-1 0.9-1.8 2.1-1.8C172 152.3 173 153.1 173 154.2zM167.2 134.6c0 1-0.9 1.8-2.1 1.8 -1.1 0-2.1-0.8-2.1-1.8 0-1 0.9-1.8 2.1-1.8C166.3 132.7 167.2 133.6 167.2 134.6zM170.2 144.4c0 1-0.9 1.8-2.1 1.8 -1.2 0-2.1-0.8-2.1-1.8 0-1 0.9-1.8 2.1-1.8C169.3 142.6 170.2 143.4 170.2 144.4zM142.7 154.2c0 1-0.9 1.8-2.1 1.8 -1.2 0-2.1-0.8-2.1-1.8 0-1 0.9-1.8 2.1-1.8C141.8 152.3 142.7 153.1 142.7 154.2zM137.7 135.5c0 1-0.9 1.8-2.1 1.8 -1.2 0-2.1-0.8-2.1-1.8 0-1 0.9-1.8 2.1-1.8C136.8 133.6 137.7 134.5 137.7 135.5zM140.3 144.9c0 1-0.9 1.8-2.1 1.8 -1.2 0-2.1-0.8-2.1-1.8 0-1 0.9-1.8 2.1-1.8C139.3 143.1 140.3 143.9 140.3 144.9zM145.9 118c0.1 0.4 0 1 0 1.6 0 0.6 0.1 1.3-0.1 1.5 -0.3 0.3-1.9 0.2-2.4 0.2 -1.8 0.2-3.3 0.8-3.5 2.6 -0.2 1.6 0.4 3.2 0.7 4.4 0.7 2.6 1.5 5.4 2.3 7.9 0.4 1.3 0.6 2.7 1.1 4 0.2 0.4 0.8 1.1 1.3 1.3 0.4 0.1 1.1 0 1.5 0.2 0.1 0.4-0.4 0.6-0.6 0.8 -0.2 0.3-0.4 0.6-0.6 0.9 -0.6 1.1-0.1 2.5 0.2 3.7 1 3.5 2.1 7.3 3.1 10.6 0.3-0.1 0.3-0.5 0.4-0.7 3.1-9.1 5.8-17.1 8.1-23.9 -1.7-4.7-1.9-11-7.4-11.6 -0.4 0-0.8 0-1-0.2 -0.4-0.4-0.1-2.5-0.1-3.1 0.5-0.3 1.1-0.2 1.6-0.2h22.9c0.9 0 3-0.2 3.4 0.1 0.3 0.2 0.2 0.9 0.2 1.6 0 0.7 0.1 1.5-0.2 1.6 -0.4 0.2-1.6 0.1-2.1 0.2 -2 0.2-4 0.5-4.8 1.9 -0.8 1.2-0.2 3.4 0.2 4.7l2.4 8.5c0.4 1.4 0.6 2.5 2.2 2.7 0.3 0 1.2-0.1 1.2 0.2 0.1 0.2-0.3 0.4-0.6 0.6 -0.7 0.6-1.2 1.4-1.1 2.8 0.1 0.6 0.3 1.3 0.5 1.9 1.1 4.3 2.5 8.8 3.7 13 0.3-0.2 0.4-0.8 0.5-1.2 2.7-8 5.4-16.1 8.1-24.2 0.6-1.7 1.3-3.4 1.5-5.3 0.5-4.2-2.4-5.2-6.2-5.6 -0.3 0-1.2 0.1-1.5-0.2 -0.2-0.2-0.2-0.9-0.2-1.5 0-0.6-0.1-1.3 0.1-1.6 0.3-0.4 1.7-0.2 2.5-0.2h15.8c0.6 0 2.2-0.2 2.4 0.2 0.2 0.3 0.2 2.8 0 3.1 -0.3 0.4-1.6 0.3-2.1 0.4 -4.7 1-5.8 5.8-7.2 10.1 -4.2 12.1-8.4 24.5-12.7 36.8 -0.6 1.7-1.3 3.6-1.9 5.5 -0.2 0.6-0.6 1.4-0.5 1.9 0 0.5 0.6 0.7 0.5 1.2 -0.4 0.5-1.3 0.3-2 0.3h-4.7c-0.8 0-1.6 0.1-2.1-0.3 -0.2-0.6 0.5-0.7 0.6-1.2 0-0.4-0.2-1-0.3-1.5 -2-7-4.1-14.3-6-21.2 -0.5-0.4-1-0.9-1.8-1.1 -0.4-0.1-0.9 0.1-1.2-0.2 0.1-0.5 0.7-0.7 1-1 0.4-0.4 0.9-1 0.7-1.9 -0.1-0.7-0.4-1.4-0.6-2.1 -0.6-1.9-1.2-4.3-1.8-6.1 -0.3 0.2-0.3 0.7-0.5 1 -3.7 10.5-7.1 21.2-10.9 31.9 -0.2 0.7-0.7 1.7-0.7 2.2 0 0.5 0.6 0.5 0.5 1 0 0.6-1.1 0.5-2.1 0.5h-5.1c-0.6 0-2 0.1-2.1-0.4 -0.2-0.7 0.7-0.7 0.9-1.2 0.1-0.3-0.2-1-0.3-1.6 -1.6-5.8-3.3-12-4.9-17.8 -0.6-2.2-1.1-4.3-1.8-6.4 -0.1-0.3-0.5-0.7-0.8-0.9 -0.5-0.5-0.9-0.7-1.9-0.7 -0.4 0-0.8 0.2-0.9-0.1 0.2-0.5 0.9-0.6 1.3-1 0.4-0.3 0.9-0.9 1-1.3 0.1-0.6-0.2-1.4-0.3-2 -1.2-4.3-2.3-8.3-3.5-12.6 -1.2-4.3-2-8.7-6.3-9.7 -0.7-0.2-1.6-0.2-1.8-0.5 -0.3-0.5-0.2-2.5 0.1-2.9 0.4-0.7 2.5-0.4 3.9-0.4h21.3C145 117.7 145.5 117.7 145.9 118z" class="b"/><path d="M203.9 119.4c-0.2 0.1-0.3 0.3-0.2 0.5 0.2 0.6 0.1 3.4-0.4 3.6 -4.6-0.1-6.6 2.9-6.9 3.9 -0.2 0.5-16.7 48.6-16.9 49.1l0 0.1 0.1 0.1c0.4 0.8 0.9 2.1 0.5 2.4 -0.5 0.5-1.9 0.6-2.4 0.6l-7.3-0.1c-0.2 0-0.4 0.2-0.4 0.4s0.2 0.4 0.4 0.4l7.2 0.1c0.2 0 2 0 2.9-0.8 0.3-0.2 0.4-0.6 0.4-1 0-0.8-0.5-1.8-0.7-2.1 1-2.8 16.7-48.5 16.9-48.9 0.2-0.7 2-3.5 6.2-3.4 0.2 0 0.4-0.1 0.7-0.4 0.7-0.9 0.6-3.7 0.4-4.2C204.3 119.5 204.1 119.4 203.9 119.4zM252.3 121.2c-0.1 0-0.2 0.1-0.3 0.1 -0.1 0.1-0.1 0.2-0.1 0.3 0.1 0.5 1.1 13.6 1.3 17.7 0 0.6-0.1 1.4-0.2 1.6 -0.3 0.2-2.2 0.2-4 0.2 -0.2 0-0.4 0.2-0.4 0.4s0.2 0.4 0.4 0.4c3 0 4.2 0 4.6-0.5 0.4-0.6 0.4-1.9 0.4-2l-0.7-10.5C252.7 121.2 252.7 121.2 252.3 121.2zM228.6 122.8c-6.6 0.5-13.4 6.9-12.7 23.8 0 0.2 0.2 0.4 0.4 0.3 0.2 0 0.3-0.2 0.3-0.4 -0.7-16.3 5.7-22.6 12-23 4.2-0.3 6.9 1.5 7.2 1.7 0.2 0.1 0.4 0.1 0.5-0.1 0.1-0.2 0.1-0.4-0.1-0.5C236 124.4 233.1 122.5 228.6 122.8zM218.2 150.1c-1.8 1.1-2 2.1-2 3.8 0.1 4 2.1 13.4 5.7 16.9 0.1 0.1 0.4 0.1 0.5 0 0.1-0.1 0.1-0.4 0-0.5 -3.3-3.1-5.4-11.8-5.5-16.4 0-1.6 0.1-2.3 1.6-3.2 0.2-0.1 0.2-0.3 0.1-0.5C218.6 150 218.3 150 218.2 150.1zM261.3 150c-0.2 0-0.3 0.2-0.3 0.4 0 0 0.1 2.8 0 3.7 -0.1 0.5-0.5 0.7-1.4 0.7l-0.3 0c-1 0-3.5-0.1-4.7 0.5 -1.3 0.6-1.6 1.3-1.8 1.9l-0.1 0.2c-0.2 0.6-0.2 3.6-0.2 8.9 0 4.8 0.1 12-0.4 12.7 -0.6 0.4-1.9 0.5-3.7-0.2 -0.2-0.1-0.4 0-0.5 0.2 -0.1 0.2 0 0.4 0.2 0.5 2.1 0.9 3.7 0.6 4.4 0.1 0.6-0.4 0.7-3.7 0.6-13.3 0-3.8-0.1-8.2 0.1-8.7l0.1-0.2c0.2-0.5 0.4-1 1.4-1.5 1.1-0.5 3.5-0.5 4.4-0.5l0.3 0c0.5 0 1.9 0 2.2-1.3 0.2-1 0-3.8 0-3.9C261.7 150.1 261.5 150 261.3 150zM225.8 154.8c0 0.2 0.1 0.4 0.3 0.4l0.8 0.1c2.1 0.1 5.2 0.4 6.1 1.5 0.1 0.2 0.4 0.2 0.5 0 0.2-0.1 0.2-0.4 0-0.5 -1.2-1.3-4.3-1.6-6.6-1.7l-0.8-0.1C226 154.4 225.8 154.6 225.8 154.8zM208.3 173.8c-0.2 0.1-0.2 0.4-0.1 0.5 4.6 5.7 23.5 10.6 33.8 2.7 0.2-0.1 0.2-0.4 0.1-0.5 -0.1-0.2-0.3-0.2-0.5-0.1 -10 7.7-28.3 3-32.8-2.6C208.6 173.7 208.4 173.7 208.3 173.8zM193.9 151.1c0 0.2 0.1 0.4 0.3 0.4 1 0.2 1.4 1.3 1.6 1.8l0.1 0.2c0.1 0.2 0.3 0.3 0.5 0.2 0.2-0.1 0.3-0.3 0.2-0.5l-0.1-0.2c-0.2-0.6-0.8-1.9-2.1-2.2C194.1 150.7 194 150.9 193.9 151.1zM181.1 123.5c0 0.2 0.2 0.4 0.4 0.4 1.2 0 4 0.2 4.9 1.6 0.1 0.2 0.3 0.2 0.5 0.1 0.2-0.1 0.2-0.3 0.1-0.5 -1.1-1.7-3.9-2-5.5-2C181.3 123.1 181.1 123.3 181.1 123.5zM178.2 140.2l-0.4 0.5c-0.5 0.6-1 1.2-0.8 2.4 0.2 0.8 2.1 7.4 2.2 7.8 0.1 0.2 0.3 0.3 0.4 0.2 0.2-0.1 0.3-0.3 0.2-0.5 -1-3.2-2-7.1-2.2-7.7 -0.2-0.9 0.1-1.2 0.6-1.8l0.4-0.5c0.1-0.1 0.1-0.4-0.1-0.5C178.5 140.1 178.3 140.1 178.2 140.2zM178.2 123.1c-0.6 0-4.3 0.2-5.3 1.4 -0.5 0.5-0.9 1.5-0.3 3 0.1 0.3 1.8 5.9 3 10 0 0.2 0.3 0.3 0.4 0.3 0.2-0.1 0.3-0.3 0.2-0.4 -0.5-1.8-2.9-9.8-3-10.1 -0.4-0.9-0.3-1.7 0.2-2.3 0.8-0.9 4-1.1 4.7-1.1C178.8 123.8 178.9 123.1 178.2 123.1zM159.4 154.1c0 0.2 0.2 0.4 0.4 0.4 0.8 0 1.6 0.6 1.7 0.8 0.1 0.2 0.3 0.2 0.5 0.1 0.2-0.1 0.2-0.3 0.1-0.5 -0.3-0.5-1.3-1.2-2.3-1.2C159.6 153.7 159.4 153.9 159.4 154.1zM159.4 148.3c-10.5 30.3-9.9 28.9-9.9 29l0.4 1 0.1 0.1c0 0.1 0.1 0.5 0 0.7 -0.1 0.1-0.2 0.2-0.5 0.3l-8.9 0c-0.2 0-0.4 0.2-0.4 0.4s0.2 0.4 0.4 0.4h8.9c0.6-0.1 0.9-0.4 1-0.7 0.3-0.6 0.1-1.2 0.1-1.3l-0.1-0.2 -0.3-0.8c0.2-0.6 6.3-18.5 9.9-28.7 0.1-0.2 0-0.4-0.2-0.4C159.7 148 159.5 148.1 159.4 148.3zM128.8 149.9c-0.2 0-0.3 0.2-0.3 0.4 0 0.2 0.2 0.4 0.4 0.3 0.6 0 2 0.6 2.4 1.3 0.1 0.2 0.3 0.2 0.5 0.1 0.2-0.1 0.2-0.3 0.1-0.5C131.2 150.5 129.6 149.8 128.8 149.9zM148.9 142.5c-0.5 0.5-1.5 1.6-1.1 3l1.6 5.6c-0.1-0.2 0.2 0.2 0.4 0.2 0.2-0.1 0.2-0.6 0.3-0.4l-1.6-5.6c-0.3-1 0.6-2 0.9-2.3 0.1-0.1 0.1-0.4 0-0.5C149.3 142.3 149 142.3 148.9 142.5zM148.8 123.5c0 0.2 0.1 0.4 0.3 0.4 0.9 0.1 2.5 0.6 3.1 1.6 0.1 0.2 0.3 0.2 0.5 0.1 0.2-0.1 0.2-0.3 0.1-0.5 -0.8-1.4-2.8-1.8-3.6-1.9C149 123.2 148.9 123.3 148.8 123.5zM147.1 123l-1 0.1c-1.5 0.1-2.2-0.1-2.7 0.4 -0.9 0.7-1.2 1.9-0.9 2.8l0.4 1.3c3.5 12.5 3.6 12.6 3.7 12.7 0.1 0.1 0.3 0.2 0.5 0.1 0.2-0.1 0.2-0.3 0.1-0.5 -0.2-0.5-2.7-9.5-3.6-12.5l-0.4-1.3c-0.2-0.7 0-1.5 0.6-2 0.5-0.4 1.4-0.2 2.4-0.2l1-0.1C147.9 123.5 147.6 122.8 147.1 123zM119.9 123.4c-0.2 0-0.3 0.2-0.3 0.4 0 0.2 0.2 0.3 0.4 0.3 1-0.1 2.7 0.9 3.3 1.6 0.1 0.2 0.4 0.2 0.5 0 0.1-0.1 0.2-0.4 0-0.5C123.1 124.5 121.2 123.3 119.9 123.4zM115.2 118.4c-0.2 0-0.3 0.2-0.3 0.4l3.3 20.8c0 0-0.1 0.8-0.9 0.7l-4.7 0c-0.2 0-0.4 0.2-0.4 0.4 0 0.2 0.2 0.4 0.4 0.4l4.7 0c1.1 0.1 1.5-0.9 1.6-1.5l-3.2-20.9C115.6 118.5 115.4 118.4 115.2 118.4zM97.3 124.2c-0.4 0.1-0.8 0.1-1.1 0.4l-0.2 0.6c0 0 0.1 0.2 0.2 20.8 0 0.2 0.2 0.4 0.3 0.4 0.2 0 0.4-0.2 0.4-0.4 0-7-0.2-20.2-0.2-20.6l0-0.3c0 0 0.3-0.1 0.6-0.2 0.6-0.1 5.4 0.5 6.2 1.7 0.1 0.2 0.3 0.2 0.5 0.1 0.2-0.1 0.2-0.3 0.1-0.5C103.1 124.6 97.6 124.2 97.3 124.2zM98.7 149.9c-1 0.1-2.8 1-3 3.2l0.2 17.2c0 0.2 0.2 0.4 0.4 0.4 0.2 0 0.4-0.2 0.4-0.4l-0.2-17.2c0.1-2.2 2.3-2.5 2.3-2.5 0.2 0 0.3-0.2 0.3-0.4C99 150 98.9 149.9 98.7 149.9zM105.1 176.5v2.1c0 0 0 0.8-0.7 1.1H71.8c-0.2 0-0.4 0.2-0.4 0.4 0 0.2 0.2 0.4 0.4 0.4h32.7c1.2-0.5 1.2-1.7 1.2-1.8v-2.1c0-0.2-0.2-0.4-0.4-0.4C105.2 176.1 105.1 176.3 105.1 176.5zM75.1 150.5c0 0.2 0.1 0.4 0.3 0.4 0.8 0.1 2 1.5 2.1 1.8 0.1 0.2 0.3 0.2 0.5 0.2 0.2-0.1 0.3-0.3 0.2-0.5 -0.1-0.3-1.5-2-2.7-2.2C75.3 150.2 75.1 150.3 75.1 150.5zM72.9 124.9c-2 0.7-4.1 1.6-5.5 3.2 -2.8 3.3-3.2 8.5-3.4 11.3 0 0.7-0.1 1.4-0.2 1.5 -0.1 0.1-0.5 0.1-0.9 0.1h-4.8c-0.2 0-0.4 0.2-0.4 0.4 0 0.2 0.2 0.4 0.4 0.4h4.8c0.3 0 1.2 0.1 1.6-0.5 0.1-0.2 0.2-0.7 0.3-1.8 0.2-2.7 0.5-7.7 3.2-10.9 1.3-1.5 3.2-2.3 5.2-3 1.7-0.6 3.2-0.9 4.3-0.8 0.2 0 0.4-0.1 0.4-0.3 0-0.2-0.1-0.4-0.3-0.4C76.2 123.9 74.5 124.4 72.9 124.9z" class="b"/><path d="M168.9 53.4c-0.7-0.5-2.2-0.4-3.2-0.4 3.3 1.2 7.7 2.6 11.5 4.1 0.4-0.7-1.2-1.7-1.3-2.6 1.1 0.2 2.4 2.1 2.1 3.4 -4.4-1.2-9.1-3-13.6-4.4 -1.7-2.4-1.4-5.5-2.5-8.1 -0.1-1-0.6-2.5-1-4.1 -0.3-1.3-1.1-3.3-0.6-4.1 0.8-1.5 3.2-1.1 5-1.1 1.7-0.1 3.8 0.1 5.6 0.1 3.7 0.3 7.1 0.2 10.9 0.8 22.8 1.6 47.7 8.3 73.9 19 21 8.6 38.2 20.3 51.5 32.4 -0.2 0.6-0.2 1.1-0.2 1.6 -2.4 2.1-4.8 3.8-7.3 5.5 -2.4 1.8-4.7 4-7.3 5.2 -11.8-5.5-22.3-7.6-32.3-8.6 1.4-2.9 4.3-4.5 6.9-5.3 -6.9-2.3-13-2.5-19.9-4.8 3.7-2.8 8.9-1.9 13.4-2.6 2 0.3 3.8 0.1 5.9 0.6 -14-8.1-30.4-15-48-19.5 -17.1-4.4-33.6-6.5-49.1-7.4 0.5 0.7 2.1-0.1 2.2 1 0 0.4-3.7-0.2-2.6-0.9C168.8 53.3 168.9 53.3 168.9 53.4zM295 79c-11.1-8.1-23.5-15.7-38.7-22 -30.4-12.6-56.2-18.8-82.5-19.7 -3.6-0.2-7.4-0.8-10.7-0.2 0 2.6 1 4.8 1.4 7.3 0.2 1.2 0.5 2.4 0.7 3.6 0.4 1.2 0.3 2.5 1.1 3.6 20.3 1.3 41.2 4.5 64.2 11.5 23.9 7.3 47.5 20.7 61.6 34.8 3.3-2.6 6.7-5.2 9.9-7.7 1-0.8 2.5-1.5 3-2.8C302.6 84.3 298 81.9 295 79zM282.5 90.7c-3.7-2.8-7.8-5.6-12.1-8 -7.9-1.8-15.4-2.7-21.9-0.8 7.4 2.2 14.6 2.6 21.9 5.6 -3.2 0.5-6.2 1.7-8.8 3.9 9.4 1.1 20.3 3.5 29.9 8.2C289.8 96.1 286.1 93.4 282.5 90.7z" class="b"/><path d="M143.4 53.5c1.1 0.6-2.5 1.2-2.5 0.9 0.1-1 1.7-0.4 2.2-1 -14.9 1-30.8 3.1-47.3 7.4 -17 4.4-32.8 11.1-46.3 18.8 2-0.5 3.8-0.3 5.7-0.6 4.4 0.6 9.4-0.3 12.9 2.3 -6.6 2.2-12.5 2.5-19.2 4.8 2.5 0.8 5.2 2.2 6.6 4.9 -9.6 1-19.8 3-31.2 8.4 -2.5-1.1-4.7-3.2-7-4.9 -2.4-1.6-4.8-3.2-7-5.2 -0.1-0.5-0.1-1-0.2-1.5 12.9-11.6 29.5-22.8 49.8-31.1 25.3-10.4 49.3-16.9 71.2-18.6 3.6-0.6 6.9-0.6 10.5-0.9 1.7 0 3.7-0.2 5.4-0.1 1.7 0 4-0.4 4.8 1 0.5 0.8-0.3 2.7-0.7 3.9 -0.4 1.5-0.9 2.9-1 3.9 -1.1 2.5-0.8 5.4-2.5 7.7 -4.3 1.3-8.8 3.1-13.1 4.3 -0.3-1.3 1-3.1 2-3.3 -0.1 0.9-1.7 1.8-1.3 2.5 3.7-1.4 7.9-2.8 11.1-3.9 -0.9 0-2.3 0-3 0.4C143.3 53.6 143.3 53.5 143.4 53.5zM12 87c0.5 1.2 1.9 1.8 2.9 2.6 3.1 2.3 6.3 4.8 9.5 7.2 13.7-13.5 36.6-26.3 59.6-33.5 22.1-6.9 42.3-10.1 61.9-11.5 0.8-1 0.6-2.3 1-3.4 0.2-1.1 0.6-2.2 0.8-3.4 0.5-2.3 1.4-4.5 1.4-6.9 -3.2-0.5-6.8 0-10.3 0.3 -25.3 1.2-50.2 7.2-79.5 19.4C44.5 63.9 32.5 71.3 21.7 79 18.8 81.8 14.4 84 12 87zM24.8 98.4c9.3-4.6 19.8-7 28.9-8.1 -2.5-2.1-5.3-3.2-8.4-3.7 7.1-2.9 14-3.3 21.1-5.5 -6.2-1.7-13.4-0.8-21 1 -4.2 2.3-8.1 5-11.7 7.7C30.2 92.5 26.7 95.1 24.8 98.4z" class="b"/><path d="M150.2 43.2c-0.1 0-0.1 0.1-0.1 0.2 0 0.1 0.1 0.1 0.2 0.1 5-2 11.2-0.4 11.3-0.3 0.1 0 0.2 0 0.2-0.1 0-0.1 0-0.2-0.1-0.2C161.6 42.8 155.3 41.1 150.2 43.2z" class="c"/><path d="M147.4 53.2c-0.1 0-0.1 0.1-0.1 0.2 0 0.1 0.1 0.1 0.2 0.1 10.3-3.2 17.9 0.1 18 0.2 0.1 0 0.2 0 0.2-0.1 0-0.1 0-0.2-0.1-0.2C165.5 53.3 157.8 49.9 147.4 53.2z" class="c"/><path d="M300.3 83.9c-0.1 0.8-1.9 1.8-2.8 2.4 -0.9 1.1-2.2 1.5-3.1 2.6 -1.1 0.6-2.1 1.5-3.2 2.4 -1.1 0.4-2.1 2.2-3.2 1.8C292.1 90 296 86.5 300.3 83.9z" class="b"/><path d="M301.6 84.8c0.2 0.1 0.2 0.2 0.3 0.3 -2.1 1.6-4.1 3.2-6.2 4.8 -1.1 0.7-2 1.8-3.2 2.4 -1.1 0.6-1.8 2.1-3.2 2.1C293.4 91.1 297.5 88 301.6 84.8z" class="b"/><path d="M302.8 86c0 0.8-2 1.5-2.7 2.4 -3.2 2.3-6.3 4.9-9.5 7.2 0.2-1.1 1.6-1.7 2.6-2.5 1-0.8 2.1-1.6 3-2.3 2.1-1.5 4-3.1 6.1-4.6 0.1-0.1 0.2-0.1 0.3-0.3C302.6 85.9 302.7 86 302.8 86z" class="b"/><path d="M303.7 86.7c0.1 0.1 0.2 0.2 0.3 0.3 -4.2 3.1-8.2 6.7-12.5 9.5 0-1 1.9-1.5 2.6-2.5 1.1-0.6 2-1.6 3.1-2.3 2-1.7 4-3.2 6-4.8C303.4 86.9 303.6 86.9 303.7 86.7z" class="b"/><path d="M268.7 82.9c0.6 0.5 0.1 2.2 0.1 3.3C268.4 85.3 269 84 268.7 82.9z" class="b"/><path d="M267.6 82.7c0.5 0.4 0 2.1 0 3.1C267.1 84.9 267.8 83.7 267.6 82.7z" class="b"/><path d="M168.6 37.5c0.2 0.1 0.2 0.2 0.3 0.3 0.5 2.3 1.2 4.6 1.6 6.9 0.3 1.1 0.6 2.3 0.8 3.4 0.1 1.1 1 2.4 0.5 3.3C170.5 47 169.3 41.9 168.6 37.5z" class="b"/><path d="M276.8 87.3c0.3 2 0 4.2-0.1 6.4C276.5 91.6 276.7 89.4 276.8 87.3z" class="b"/><path d="M265.1 82.2c0.5 0.3 0.3 1.8 0.2 2.7C265.1 84.1 265.3 83.1 265.1 82.2z" class="b"/><path d="M277.7 88c0.6 1.9 0.1 4.1 0.5 6.1 -0.8-0.5-0.6-1.9-0.6-2.9C277.6 90.1 277.8 88.9 277.7 88z" class="b"/><path d="M278.6 88.5c1 1.7 0.4 3.9 0.5 5.9C278.4 92.7 278.6 90.5 278.6 88.5z" class="b"/><path d="M166.9 37.4c1.4 4.6 2.4 9.3 3.2 14.1 -1.3-2.1-1.1-4.8-2-7.1 -0.1-1.2-0.5-2.4-0.7-3.6C167.4 39.7 166.5 38.3 166.9 37.4z" class="b"/><path d="M263.9 82.1c0.5 0.2 0.2 1.6 0.2 2.4C263.7 83.8 264.1 82.9 263.9 82.1z" class="b"/><path d="M279.5 89.3c0.3 0.1 0.2 0.4 0.6 0.4 -0.1 1.7 0.2 3.3 0 5.1 -1-0.5-0.2-1.7-0.6-2.4 0.2-0.9-0.1-1.7-0.1-2.6C279.4 89.6 279.4 89.5 279.5 89.3z" class="b"/><path d="M262.7 82c0.6 0 0.1 1.4 0.2 1.9C262.2 83.9 263 82.5 262.7 82z" class="b"/><path d="M280.4 90c0.1 0 0.2 0.1 0.3 0.1 0.4 1.5 0.3 3.7 0.3 4.9C280 93.6 280.7 91.7 280.4 90z" class="b"/><path d="M165.5 37.3c1.3 4.4 2.5 9.3 3.1 13.6 -1-2-1.1-4.4-1.8-6.5 -0.5-2.2-0.9-4.4-1.6-6.6C165.4 37.5 165.2 37.5 165.5 37.3z" class="b"/><path d="M281.3 90.6c1.4 1.2 0.7 3.2 0.8 4.8C280.8 94.2 281.7 92.1 281.3 90.6z" class="b"/><path d="M282.9 91.3c0.3 1.3 0.4 2.8 0.3 4.3 -1.2-0.8-0.2-2.8-0.8-3.9C282.4 91.3 282.8 91.5 282.9 91.3z" class="b"/><path d="M283.4 91.8c0.3-0.3 0.3 0.4 0.8 0.4 0 1.3 0 2.5 0 3.8C283 95 283.9 93.2 283.4 91.8z" class="b"/><path d="M164.2 37.4c1.4 4.4 2.5 9.4 3.1 13.7C165.9 46.7 164.8 41.7 164.2 37.4z" class="b"/><path d="M284.6 92.7c0.1 0 0.2 0.1 0.3 0.1 0.8 1 0.2 2.5 0.6 3.6 -0.1 0.3-0.6-0.2-0.8-0.2C284.7 95 284.5 93.9 284.6 92.7z" class="b"/><path d="M260.1 81.6c0.3 0.5 0.2 1.2 0.1 1.9C259.9 83 260.1 82.3 260.1 81.6z" class="b"/><path d="M285.7 93.5c0.4 0.3 0.6 0.6 0.9 0.9 -0.2 0.9 0 1.7 0.1 2.5 -0.2 0.1-0.6 0-0.9-0.1C285.7 95.7 285.7 94.6 285.7 93.5z" class="b"/><path d="M286.9 94.5c1.2 1.5 2.8 2.8 4.1 4.2 -1.3-0.3-2.4-0.8-4.1-1.6C287.1 96.3 286.9 95.5 286.9 94.5z" class="b"/><path d="M257.4 81.3c0.4 0.4 0.1 1.1 0 1.7C257.1 82.5 257.4 81.9 257.4 81.3z" class="b"/><path d="M255 81.4c0.2 0.3 0.2 0.8 0.1 1.3C255 82.2 254.8 81.9 255 81.4z" class="b"/><path d="M253.9 81.4c0.3 0.3 0.1 0.8 0.1 1.3C253.7 82.3 253.7 81.8 253.9 81.4z" class="b"/><path d="M252.7 81.4c0.2 0.2 0.2 0.6 0 0.9C252.6 82.1 252.5 81.8 252.7 81.4z" class="b"/><path d="M268.4 88.6c0.3 0.9 0.3 2.4 0 3.1C268.2 90.7 268.3 89.7 268.4 88.6z" class="b"/><path d="M267.3 88.8c0.1 0.9 0.2 1.8 0 2.8C267.3 90.6 267 89.8 267.3 88.8z" class="b"/><path d="M265 89.7c0.2 0.5 0.1 1 0.1 1.6C264.5 90.9 264.9 90.2 265 89.7z" class="b"/><path d="M175.1 54.1c0.2 0.5 0.6 1.4 0.3 1.8C175 55.4 174.6 54.5 175.1 54.1z" class="b"/><path d="M174.2 54c0.4 0.4 0.7 1.3 0.4 1.6C174.2 55.1 173.9 54.2 174.2 54z" class="b"/><path d="M173.3 53.8c0.7 0.3 0.7 1.3 0.4 1.6C173.2 55 173.3 54.4 173.3 53.8z" class="b"/><path d="M172.6 53.7c0.5 0.4 0.3 1 0.4 1.6C172.3 54.9 172.5 54.3 172.6 53.7z" class="b"/><path d="M176.2 55.3c0.2 0.3 0.4 0.9 0 1.1C175.9 56.1 175.7 55.5 176.2 55.3z" class="b"/><path d="M171.8 53.6c0.3 0.3 0.4 0.7 0.3 1.1C171.6 54.5 171.4 53.8 171.8 53.6z" class="b"/><path d="M273.4 85.2c0.6 0.3 0.1 1 0.1 1.6 -0.1 1.6-0.3 3.8-0.3 5.4 -0.1 0.1-0.3 0.2-0.1 0.3C272.7 90.7 273.5 87.5 273.4 85.2z" class="b"/><path d="M274.8 86c0.1 2.3-0.1 4.7-0.4 7.1C274.3 90.8 274.5 88.4 274.8 86z" class="b"/><path d="M266.4 82.5c0.6 0.3-0.2 2 0.2 2.7C266 84.9 266.5 83.3 266.4 82.5z" class="b"/><path d="M275.8 86.6c0.2 2.1-0.2 4.3-0.1 6.4 -0.6 0-0.2-0.9-0.2-1.2C275.5 90.3 275.6 88.3 275.8 86.6z" class="b"/><path d="M261.5 81.6c0.2 0.6 0 1.3-0.2 2.1C261.3 83.1 261.4 82.4 261.5 81.6z" class="b"/><path d="M258.8 81.4c0.5 0.4 0 1.1 0.1 1.6C258.7 83 258.6 82 258.8 81.4z" class="b"/><path d="M256.1 81.3c0.3 0.4 0 1 0.1 1.4C255.8 82.4 256.2 81.8 256.1 81.3z" class="b"/><path d="M266.1 89.1c0.3 0.6 0.1 1.9-0.1 2.3C265.8 90.9 266 90 266.1 89.1z" class="b"/><path d="M16.7 83.7c0.1 0.7 1.9 1.7 2.7 2.2 0.9 1 2.1 1.4 3 2.4 1.1 0.6 2 1.4 3 2.2 1 0.3 2 2.1 3.1 1.6C24.5 89.4 20.7 86.1 16.7 83.7z" class="b"/><path d="M15.4 84.5c-0.2 0.1-0.2 0.2-0.3 0.3 2 1.5 4 3 5.9 4.5 1 0.7 2 1.6 3 2.2 1 0.6 1.7 2 3 1.9C23.2 90.4 19.3 87.5 15.4 84.5z" class="b"/><path d="M14.2 85.7c0 0.8 1.9 1.4 2.6 2.3 3.1 2.2 6 4.6 9.1 6.7 -0.2-1-1.5-1.6-2.5-2.3 -0.9-0.7-2-1.4-2.8-2.2 -2-1.4-3.9-2.9-5.8-4.3 -0.1-0.1-0.2-0.1-0.3-0.3C14.4 85.6 14.3 85.6 14.2 85.7z" class="b"/><path d="M13.3 86.4c-0.1 0.1-0.1 0.2-0.3 0.3 4 2.8 7.8 6.2 11.9 8.9 0-0.9-1.8-1.4-2.5-2.3 -1.1-0.6-1.9-1.5-3-2.1 -1.9-1.6-3.8-3-5.7-4.5C13.6 86.5 13.4 86.5 13.3 86.4z" class="b"/><path d="M47 82.5c-0.6 0.5-0.2 2.1-0.1 3.1C47.2 84.6 46.8 83.4 47 82.5z" class="b"/><path d="M48.1 82.2c-0.5 0.4-0.1 2 0 2.9C48.5 84.3 47.9 83.1 48.1 82.2z" class="b"/><path d="M143.7 38.6c-0.2 0.1-0.2 0.2-0.3 0.3 -0.5 2.2-1.2 4.3-1.6 6.5 -0.3 1.1-0.6 2.2-0.8 3.3 -0.2 1-0.9 2.3-0.5 3.1C141.8 47.6 143 42.7 143.7 38.6z" class="b"/><path d="M39.2 86.6c-0.3 1.9-0.1 4 0 6.1C39.5 90.7 39.2 88.6 39.2 86.6z" class="b"/><path d="M50.5 81.7c-0.5 0.3-0.3 1.7-0.2 2.6C50.5 83.5 50.3 82.6 50.5 81.7z" class="b"/><path d="M38.3 87.3c-0.6 1.8-0.2 3.9-0.6 5.8 0.8-0.4 0.6-1.8 0.6-2.7C38.4 89.3 38.3 88.2 38.3 87.3z" class="b"/><path d="M37.5 87.9c-0.9 1.6-0.4 3.7-0.5 5.6C37.6 91.7 37.4 89.7 37.5 87.9z" class="b"/><path d="M145.3 38.4c-1.4 4.3-2.4 8.8-3.2 13.4 1.3-2 1.1-4.6 2-6.7 0.1-1.2 0.5-2.3 0.7-3.4C144.9 40.6 145.7 39.3 145.3 38.4z" class="b"/><path d="M51.7 81.6c-0.5 0.2-0.2 1.5-0.2 2.3C51.8 83.2 51.5 82.3 51.7 81.6z" class="b"/><path d="M36.6 88.6c-0.3 0.1-0.2 0.3-0.6 0.4 0.1 1.6-0.2 3.2-0.1 4.8 1-0.5 0.2-1.6 0.6-2.3 -0.2-0.9 0.1-1.6 0.1-2.5C36.6 88.8 36.7 88.7 36.6 88.6z" class="b"/><path d="M52.8 81.5c-0.6 0-0.1 1.3-0.2 1.8C53.3 83.3 52.5 82 52.8 81.5z" class="b"/><path d="M35.7 89.3c-0.1 0-0.2 0.1-0.3 0.1 -0.4 1.4-0.3 3.5-0.3 4.6C36 92.7 35.4 90.8 35.7 89.3z" class="b"/><path d="M146.7 38.4c-1.3 4.1-2.5 8.9-3.1 12.9 1-1.9 1.1-4.1 1.8-6.2 0.5-2.1 0.9-4.2 1.6-6.2C146.7 38.5 147 38.5 146.7 38.4z" class="b"/><path d="M34.8 89.8c-1.3 1.2-0.7 3-0.8 4.6C35.3 93.2 34.4 91.3 34.8 89.8z" class="b"/><path d="M33.3 90.5c-0.3 1.3-0.4 2.6-0.3 4 1.2-0.8 0.3-2.6 0.8-3.7C33.7 90.5 33.4 90.7 33.3 90.5z" class="b"/><path d="M32.8 91c-0.3-0.3-0.3 0.4-0.8 0.4 0 1.2 0 2.4 0 3.6C33.2 94 32.3 92.3 32.8 91z" class="b"/><path d="M147.9 38.4c-1.3 4.2-2.5 8.9-3.1 13C146.2 47.2 147.3 42.5 147.9 38.4z" class="b"/><path d="M31.6 91.8c-0.1 0-0.2 0.1-0.2 0.1 -0.8 1-0.2 2.4-0.6 3.5 0.1 0.3 0.6-0.2 0.8-0.2C31.5 94 31.7 93 31.6 91.8z" class="b"/><path d="M55.3 81.1c-0.3 0.5-0.2 1.1-0.1 1.8C55.5 82.4 55.3 81.7 55.3 81.1z" class="b"/><path d="M30.6 92.6c-0.4 0.2-0.6 0.5-0.9 0.8 0.2 0.9 0 1.6-0.1 2.4 0.2 0.1 0.5 0 0.9-0.1C30.5 94.7 30.6 93.7 30.6 92.6z" class="b"/><path d="M29.4 93.6c-1.2 1.4-2.7 2.6-4 4 1.3-0.3 2.3-0.8 3.9-1.5C29.2 95.2 29.4 94.5 29.4 93.6z" class="b"/><path d="M57.9 80.8c-0.3 0.4-0.1 1 0 1.6C58.2 82 57.9 81.3 57.9 80.8z" class="b"/><path d="M60.2 80.9c-0.2 0.3-0.2 0.7-0.1 1.2C60.2 81.7 60.4 81.3 60.2 80.9z" class="b"/><path d="M61.3 80.8c-0.3 0.3-0.1 0.8-0.1 1.2C61.4 81.7 61.5 81.3 61.3 80.8z" class="b"/><path d="M62.4 80.9c-0.2 0.2-0.2 0.5 0 0.9C62.6 81.6 62.6 81.3 62.4 80.9z" class="b"/><path d="M47.3 87.8c-0.3 0.8-0.3 2.2 0 2.9C47.4 89.8 47.4 88.8 47.3 87.8z" class="b"/><path d="M48.3 88c-0.1 0.9-0.2 1.7 0 2.6C48.3 89.7 48.6 88.9 48.3 88z" class="b"/><path d="M50.5 88.8c-0.2 0.4-0.1 1-0.1 1.5C51 90 50.6 89.3 50.5 88.8z" class="b"/><path d="M137.3 54.3c-0.2 0.5-0.6 1.4-0.3 1.7C137.4 55.6 137.8 54.7 137.3 54.3z" class="b"/><path d="M138.1 54.2c-0.4 0.4-0.7 1.2-0.4 1.5C138.2 55.3 138.4 54.5 138.1 54.2z" class="b"/><path d="M139 54.1c-0.6 0.3-0.7 1.2-0.4 1.5C139.1 55.2 139 54.6 139 54.1z" class="b"/><path d="M139.7 53.9c-0.5 0.4-0.3 1-0.4 1.5C139.9 55.1 139.8 54.5 139.7 53.9z" class="b"/><path d="M136.3 55.5c-0.2 0.3-0.4 0.8 0 1C136.5 56.2 136.7 55.6 136.3 55.5z" class="b"/><path d="M140.4 53.9c-0.3 0.3-0.4 0.6-0.3 1C140.6 54.7 140.9 54 140.4 53.9z" class="b"/><path d="M42.5 84.7c-0.6 0.3-0.1 1-0.1 1.5 0.1 1.5 0.2 3.6 0.2 5.1 0.1 0.1 0.3 0.1 0.1 0.2C43.2 89.8 42.4 86.8 42.5 84.7z" class="b"/><path d="M41.1 85.4c-0.1 2.1 0.1 4.4 0.3 6.7C41.6 90 41.4 87.7 41.1 85.4z" class="b"/><path d="M49.2 82c-0.6 0.3 0.1 1.9-0.2 2.6C49.6 84.3 49.1 82.8 49.2 82z" class="b"/><path d="M40.2 86c-0.2 1.9 0.2 4.1 0 6.1 0.5 0 0.2-0.9 0.2-1.1C40.5 89.5 40.4 87.6 40.2 86z" class="b"/><path d="M53.9 81.2c-0.1 0.6 0 1.3 0.1 2C54.2 82.5 54.1 81.9 53.9 81.2z" class="b"/><path d="M56.6 81c-0.4 0.4 0 1-0.1 1.5C56.7 82.4 56.7 81.4 56.6 81z" class="b"/><path d="M59.1 80.8c-0.3 0.4 0 0.9-0.1 1.4C59.4 81.8 59.1 81.3 59.1 80.8z" class="b"/><path d="M49.5 88.3c-0.3 0.6-0.1 1.8 0.1 2.1C49.8 90 49.6 89.1 49.5 88.3z" class="b"/><path d="M66 219.3c0.4-3.1-0.2-4.5-1.3-5.2 -1.3-0.7-3.3 0-5.8 4.3 -2 3.4-1.6 5.2-0.4 5.9 1.4 0.8 2.5 0 3.3-1.6 0.8-1.3 1-2.5 0.5-3.5l3.4 2c-0.4 0.2-0.8 0.6-1.1 1.2l-3.5 6.2c-0.1-0.8-0.3-1.1-0.6-1.3 -0.5-0.3-1.7 0-3.5-1 -3-1.7-2.2-5.8-0.3-9.1 2.1-3.7 5.5-7.3 9.1-5.3 1.3 0.7 1.4 1.5 2 1.8 0.4 0.2 0.7 0.2 1.2 0L66 219.3z" class="a"/><path d="M70.4 217.7c0.5-1 0.7-1.9 0.3-2.8 0.4 0.3 0.8 0.5 1.4 0.9 0.5 0.2 2.5 1.1 3.3 1.5 3 1.5 2.7 3.9 1.9 5.6 -0.9 1.9-2.1 2.7-3.7 2.6 0.7 1 1 1.9-0.5 5.3 -0.6 1.3-0.8 2.3-0.5 3.3l-2.1-1c-0.7-0.3-0.5-1 0.5-3.5 1.1-2.7 1-3.5-0.8-4.4l-0.9-0.4 -1.9 3.9c-0.5 1.1-0.5 2-0.2 2.8l-3.7-1.8c0.8-0.4 1.2-0.7 1.8-1.8L70.4 217.7zM70.6 222.7l0.7 0.3c1.9 0.9 3 0.9 3.8-0.7 0.7-1.4 0.4-2.4-1.1-3.1 -1-0.5-1.5-0.2-1.8 0.3L70.6 222.7z" class="a"/><path d="M73.5 234.4c1-0.6 2.1-2.1 2.9-3.1l6.7-8.7c0.2-0.3 0.4-0.6 0.5-0.9 0.1-0.2 0.1-0.4 0-0.5l3 1.3c-0.1 0.1-0.2 0.2-0.3 0.3 -0.1 0.2-0.3 1-0.4 1.7l-1.7 10.2c-0.2 1.3-0.4 3.1-0.2 4.3l-3.6-1.5c0.5-0.4 0.9-1 1.1-1.6 0.2-0.4 0.3-1 0.3-1.3l-4.1-1.7c-0.3 0.3-0.6 0.7-0.8 1.3 -0.3 0.6-0.3 1.4-0.2 1.8L73.5 234.4zM82.4 232.1l1.2-7 0 0 -4.2 5.8L82.4 232.1z" class="a"/><path d="M90.7 226.5c0.3-0.8 0.2-1.7-0.1-2.4l4 1.4c-0.1 0.2-0.2 0.3-0.3 0.5 -0.1 0.2-0.1 0.6-0.1 1l0.1 9.7 0 0 2.2-6.4c0.7-1.9 0.8-2.9 0.1-4.1l4.1 1.4c-0.7 0.3-1.3 1-1.6 1.8l-4.1 12.1c-0.2 0.5-0.2 0.9-0.1 1.2l-2.9-1c0.1-0.1 0.2-0.2 0.2-0.4 0.1-0.2 0.1-0.6 0-1l-0.2-10.8 0 0 -2.5 7.3c-0.7 1.9-0.8 2.9-0.1 4.1l-4.1-1.4c0.7-0.4 1.3-1 1.6-1.9L90.7 226.5z" class="a"/><path d="M102 230.4c0.3-1.1 0.3-1.9-0.2-2.8 0.5 0.3 1.1 0.4 1.9 0.7 1.1 0.3 2.1 0.4 2.9 0.6 3.5 0.9 4.6 4.3 3.4 8.9 -1.3 5-3.7 8-8.1 6.9 -0.9-0.2-1.9-0.6-2.8-0.9 -0.8-0.2-1.3-0.2-1.7-0.3 0.6-0.4 1.3-1.3 1.6-2.6L102 230.4zM101.7 240.4c-0.3 1.3-0.1 1.8 1 2.1 2.4 0.6 4-1.2 5-5 0.9-3.4 0.6-5.7-1.6-6.3 -1.3-0.4-1.9-0.1-2.2 1L101.7 240.4z" class="a"/><path d="M111.3 240.8c0.7 2.8 1.6 4.2 3.3 4.5 1.5 0.3 2.3-0.6 2.6-1.8 0.2-1.1-0.1-1.9-1-2.7l-2.1-1.8c-1.2-1-1.6-2.6-1.3-4.1 0.5-2.6 2.7-4.1 5-3.6 1.2 0.2 1.5 0.7 2.2 0.8 0.5 0.1 0.8 0.1 1.3-0.3l-1.1 5.4c-0.4-1.9-1.5-3.2-2.8-3.5 -1.1-0.2-2 0.2-2.2 1.4 -0.2 0.9 0.1 1.5 1.2 2.3l1.5 1.2c1.3 1 2.1 2.6 1.6 5 -0.6 3-2.8 4.6-5.2 4.1 -1.2-0.2-2.2-1-2.8-1.1 -0.4-0.1-0.8 0.1-1.4 0.5L111.3 240.8z" class="a"/><path d="M133.2 233.8c1.1 0.1 1.8 0.8 2.4 0.8 0.4 0 0.8-0.1 1.1-0.4l-0.8 6.7c0 0 0 0 0 0 0 0 0 0 0-0.1 -0.7-2.8-1.5-4.3-2.8-4.4 -1.3-0.2-2.9 0.9-3.4 5.6 -0.5 4 0.8 5.4 2.3 5.6 1.6 0.2 2.9-1 3.9-2.7l0 0c-0.4 3.7-2 5.9-4.9 5.6 -2.3-0.3-4.5-2.5-3.7-8.8C128.1 236 130.5 233.5 133.2 233.8z" class="a"/><path d="M139.1 237.2c0.1-1.1-0.1-2-0.8-2.7 0.5 0.1 0.9 0.2 1.6 0.2 0.6 0 2.7 0 3.6 0.1 3.3 0.2 4 2.5 3.9 4.4 -0.1 2.1-0.9 3.3-2.4 3.8 1 0.7 1.6 1.4 1.7 5.1 0 1.4 0.2 2.4 0.8 3.2l-2.3-0.1c-0.7 0-0.8-0.7-0.8-3.4 0-2.9-0.5-3.6-2.4-3.7l-1-0.1 -0.2 4.3c-0.1 1.2 0.3 2 0.9 2.7l-4.2-0.2c0.6-0.6 0.9-1.1 0.9-2.3L139.1 237.2zM141.2 241.8l0.7 0c2.1 0.1 3.1-0.4 3.2-2.2 0.1-1.6-0.5-2.4-2.2-2.5 -1.1-0.1-1.5 0.4-1.5 0.9L141.2 241.8z" class="a"/><path d="M150.1 237.6c0-0.9-0.4-1.7-0.9-2.3l4 0c-0.5 0.8-0.7 1.3-0.7 2.2l0 8.8c0 2.2 0.7 3 2.1 3 1.2 0 2.3-0.8 2.3-3l0-8.8c0-1-0.2-1.4-0.7-2.2h4c-0.6 0.6-0.9 1.4-0.9 2.3l0 7.5c0 4.5-1.2 6.8-4.8 6.8 -2.6 0-4.3-1.6-4.3-4.8L150.1 237.6z" class="a"/><path d="M162 245.4c1.4 2.5 2.6 3.7 4.3 3.6 1.5-0.1 2.1-1.2 2-2.4 -0.1-1.1-0.5-1.8-1.6-2.3l-2.5-1.2c-1.4-0.7-2.2-2.1-2.3-3.7 -0.2-2.7 1.5-4.7 3.9-4.8 1.2-0.1 1.6 0.3 2.4 0.2 0.5 0 0.8-0.1 1.2-0.6l0.3 5.5c-0.9-1.8-2.2-2.8-3.6-2.7 -1.1 0.1-1.9 0.7-1.8 1.9 0 0.9 0.5 1.4 1.8 2l1.8 0.8c1.5 0.7 2.6 2 2.8 4.4 0.2 3-1.5 5.2-4 5.3 -1.2 0.1-2.4-0.4-3-0.4 -0.4 0-0.8 0.3-1.2 0.8L162 245.4z" class="a"/><path d="M178.1 236.5c-0.1-1.1-0.5-1.9-1.2-2.5 0.5 0 1 0 1.6-0.1 0.6-0.1 2.7-0.5 3.6-0.6 2.2-0.3 4 1.1 4.4 4.2 0.2 1.8 0.1 4.2-2.9 5.2 -2 0.7-2.2 1-2 2.3l0.3 2.1c0.2 1.2 0.7 2 1.4 2.5l-4.1 0.5c0.5-0.7 0.7-1.3 0.5-2.5L178.1 236.5zM181.1 241.7l0 0c0.2-0.4 0.5-0.7 1.5-1.1 1.3-0.6 1.8-1.6 1.6-2.9 -0.1-1-0.8-2.2-2.3-2 -1 0.1-1.5 0.7-1.4 2.1L181.1 241.7z" class="a"/><path d="M188.2 235.1c-0.2-1.1-0.6-1.9-1.4-2.4 0.5 0 1 0 1.6-0.1 0.5-0.1 2.6-0.6 3.5-0.8 3.3-0.6 4.5 1.5 4.9 3.4 0.4 2-0.1 3.5-1.4 4.2 1.2 0.4 1.9 1 2.8 4.6 0.3 1.4 0.7 2.3 1.6 3l-2.3 0.4c-0.7 0.1-1-0.5-1.6-3.1 -0.7-2.9-1.3-3.4-3.2-3.1l-1 0.2 0.8 4.2c0.2 1.2 0.7 1.9 1.5 2.4l-4.1 0.7c0.4-0.8 0.6-1.3 0.4-2.5L188.2 235.1zM191.3 239l0.7-0.1c2.1-0.4 3-1.1 2.7-2.9 -0.3-1.6-1.1-2.2-2.7-1.9 -1.1 0.2-1.4 0.7-1.3 1.2L191.3 239z" class="a"/><path d="M199.3 232.8c-0.2-0.8-0.7-1.6-1.4-2l7.9-1.8c0.5-0.1 0.8-0.3 1.1-0.6l1.2 5.3c-1.4-1.8-2.6-2.2-4.6-1.8 -1.4 0.3-1.8 0.9-1.5 2.2l0.5 2.2c0.4 0 0.8-0.1 1.2-0.2 1.3-0.3 2.2-0.7 2.6-2l1.1 5c-0.9-1-1.9-1-3.2-0.7 -0.4 0.1-0.9 0.2-1.2 0.3l0.7 3c0.3 1.3 0.8 1.7 2.5 1.3 2-0.5 3.1-1.6 3.4-4.2l1.4 6.1c-0.4-0.3-0.9-0.3-1.8-0.1l-7.8 1.8c0.4-0.7 0.6-1.6 0.4-2.4L199.3 232.8z" class="a"/><path d="M211.6 238.2c1.9 2.2 3.3 3 4.9 2.6 1.5-0.4 1.8-1.6 1.5-2.8 -0.3-1.1-0.9-1.6-2.1-1.9l-2.7-0.7c-1.5-0.4-2.6-1.6-3-3.1 -0.7-2.6 0.5-4.9 2.8-5.5 1.1-0.3 1.6-0.1 2.3-0.3 0.5-0.1 0.7-0.3 1.1-0.8l1.5 5.3c-1.2-1.6-2.8-2.2-4-1.9 -1 0.3-1.7 1-1.4 2.2 0.2 0.8 0.8 1.3 2.1 1.5l1.9 0.4c1.6 0.3 3 1.4 3.7 3.7 0.8 2.9-0.4 5.4-2.8 6 -1.2 0.3-2.5 0.1-3 0.2 -0.4 0.1-0.7 0.5-1 1L211.6 238.2z" class="a"/><path d="M222.9 228.3c-0.3-0.9-0.7-1.3-1.4-1.1 -1.2 0.4-1.6 2.2-1.3 4.4l0 0 -2-6.2c0.3 0.1 0.7 0.2 1 0l7.3-2.3c0.4-0.1 0.6-0.4 0.8-0.6l2 6.2 0 0c-1-2-2.4-3.2-3.6-2.9 -0.8 0.2-0.8 0.8-0.5 1.7l3.1 9.6c0.3 0.8 0.9 1.5 1.6 1.9l-4 1.3c0.4-0.7 0.5-1.6 0.2-2.4L222.9 228.3z" class="a"/><path d="M230.4 224.1c-0.3-0.8-0.9-1.5-1.6-1.8l3.9-1.4c-0.3 0.7-0.4 1.6-0.1 2.4l3.9 11c0.3 0.8 0.9 1.5 1.6 1.8l-3.9 1.4c0.3-0.7 0.4-1.6 0.1-2.4L230.4 224.1z" class="a"/><path d="M245 222.6c-2.2-2.2-3.6-2.7-4.8-2.2 -1.4 0.6-2.1 2.5-0.2 7.2 1.4 3.7 3.1 4.5 4.4 4 1.5-0.6 1.5-1.9 0.9-3.6 -0.6-1.4-1.3-2.3-2.4-2.6l3.7-1.4c-0.1 0.4 0 1 0.2 1.6l2.6 6.6c-0.6-0.4-1-0.5-1.3-0.3 -0.6 0.2-1 1.3-2.9 2.1 -3.2 1.3-5.9-1.9-7.3-5.5 -1.6-4-2.2-8.9 1.6-10.4 1.4-0.5 2-0.2 2.7-0.5 0.4-0.1 0.6-0.5 0.8-0.9L245 222.6z" class="a"/><path d="M246.6 217.9c-0.3-0.8-1-1.4-1.8-1.7l7.4-3.3c0.5-0.2 0.7-0.4 0.9-0.8l2.2 5c-1.7-1.5-3-1.6-4.9-0.8 -1.3 0.6-1.6 1.2-1 2.4l0.9 2.1c0.3-0.1 0.8-0.3 1.2-0.4 1.2-0.5 2-1.1 2.1-2.5l2.1 4.7c-1.1-0.8-2-0.6-3.3-0.1 -0.4 0.2-0.8 0.4-1.1 0.6l1.3 2.8c0.5 1.2 1.1 1.5 2.7 0.8 1.9-0.8 2.7-2.2 2.5-4.8l2.5 5.7c-0.5-0.2-0.9-0.2-1.7 0.2l-7.3 3.3c0.3-0.7 0.3-1.6-0.1-2.4L246.6 217.9z" class="a"/><polygon points="202.1 42.4 199.9 43 199.9 43.5 202.2 43.1 " class="b"/><path d="M175.5 41.7c0-0.4-0.1-0.9-0.3-1.2l2.6 0.3c-0.1 0.1-0.1 0.2-0.1 0.3 0 0.1 0 0.3 0 0.5l0.7 5.4h0l1.8-5.1c0.1-0.2 0.1-0.3 0.1-0.5 0-0.1 0-0.2-0.1-0.3l2.6 0.3c-0.3 0.3-0.5 0.7-0.6 1.1l-0.6 5.9c0 0.4 0.1 0.9 0.3 1.2l-2-0.2c0.3-0.2 0.6-0.7 0.6-1.5l0.6-5.5 0 0 -2.2 6.2c0 0.1-0.1 0.2-0.1 0.3 0 0.1 0 0.3 0 0.4l-1.6-0.2c0.1-0.1 0.1-0.3 0.1-0.4 0-0.1 0-0.2 0-0.3l-0.8-6.3 0 0 -0.6 5.3c-0.1 0.8 0.1 1.3 0.3 1.6l-2-0.2c0.3-0.3 0.5-0.7 0.6-1.1L175.5 41.7z" class="a"/><path d="M184.4 42.7c0.1-0.4-0.1-0.9-0.3-1.2l2.1 0.3c-0.3 0.3-0.6 0.7-0.6 1.1l-0.7 5.9c0 0.4 0.1 0.9 0.3 1.2l-2.1-0.3c0.3-0.2 0.6-0.7 0.6-1.1L184.4 42.7z" class="a"/><path d="M188 43.2c0.1-0.4-0.1-0.9-0.3-1.2l2.1 0.3c-0.3 0.2-0.6 0.6-0.6 1.1l-0.7 4.9c-0.1 0.7 0.1 0.9 0.4 1 0.9 0.2 1.5-0.6 2-1.7l-0.5 3.4c-0.2-0.2-0.4-0.3-0.8-0.4l-3.1-0.4c0.3-0.2 0.6-0.6 0.6-1.1L188 43.2z" class="a"/><path d="M193.2 43.9c0.1-0.4 0-0.9-0.3-1.2l2.1 0.3c-0.3 0.2-0.6 0.6-0.6 1.1l-0.7 4.9c-0.1 0.7 0 1 0.4 1 0.9 0.2 1.5-0.6 2-1.7l-0.5 3.4c-0.1-0.2-0.3-0.3-0.8-0.4l-3.1-0.5c0.3-0.2 0.6-0.6 0.6-1.1L193.2 43.9z" class="a"/><path d="M198.2 44.7c0.1-0.4 0-0.9-0.3-1.2l4.1 0.7c0.3 0 0.4 0 0.6-0.1l-0.5 2.7c-0.3-1.1-0.8-1.6-1.9-1.7 -0.7-0.1-1 0.1-1.1 0.7l-0.2 1.2c0.2 0.1 0.4 0.1 0.6 0.1 0.7 0.1 1.2 0.1 1.6-0.5l-0.4 2.6c-0.2-0.7-0.7-0.8-1.4-1 -0.2 0-0.5-0.1-0.6-0.1l-0.3 1.6c-0.1 0.7 0.1 1 1 1.1 1 0.2 1.8-0.2 2.5-1.3l-0.5 3.1c-0.1-0.2-0.3-0.3-0.8-0.4l-4.1-0.7c0.3-0.2 0.6-0.6 0.7-1.1L198.2 44.7z" class="a"/><path d="M203.2 49.7c0.4 1.4 0.8 2.2 1.7 2.3 0.8 0.1 1.2-0.3 1.3-0.9 0.1-0.6 0-1-0.5-1.4l-1.1-0.9c-0.6-0.5-0.9-1.3-0.7-2.1 0.3-1.4 1.3-2.1 2.6-1.9 0.6 0.1 0.8 0.3 1.2 0.4 0.2 0 0.4 0 0.7-0.1l-0.5 2.8c-0.2-1-0.8-1.7-1.5-1.8 -0.5-0.1-1 0.1-1.1 0.7 -0.1 0.4 0.1 0.8 0.6 1.2l0.8 0.6c0.7 0.5 1.1 1.3 0.8 2.5 -0.3 1.5-1.4 2.4-2.7 2.1 -0.6-0.1-1.2-0.5-1.5-0.6 -0.2 0-0.4 0-0.7 0.2L203.2 49.7z" class="a"/><path d="M210.2 46.9c0.1-0.4 0-0.9-0.2-1.2l2.1 0.5c-0.3 0.2-0.6 0.6-0.7 1l-1.2 5.8c-0.1 0.4 0 0.9 0.2 1.2l-2.1-0.5c0.3-0.2 0.6-0.6 0.7-1L210.2 46.9z" class="a"/><path d="M213.7 47.7c0.1-0.4 0-0.9-0.2-1.2l2.5 0.6c-0.1 0-0.1 0.1-0.2 0.2 0 0.1-0.1 0.3-0.1 0.5l0 5.4 0 0 2.4-4.8c0.1-0.2 0.1-0.3 0.2-0.5 0-0.1 0-0.2 0-0.3l2.6 0.6c-0.3 0.2-0.6 0.6-0.7 1l-1.4 5.8c-0.1 0.4 0 0.9 0.2 1.2l-2-0.5c0.3-0.2 0.6-0.6 0.8-1.4l1.3-5.4 0 0 -3 5.9c-0.1 0.1-0.1 0.2-0.1 0.3 0 0.1-0.1 0.3 0 0.4l-1.5-0.4c0.1-0.1 0.1-0.3 0.2-0.4 0-0.1 0-0.2 0-0.3l0.1-6.4 0 0 -1.3 5.2c-0.2 0.8-0.1 1.3 0.1 1.6l-2-0.5c0.3-0.2 0.6-0.6 0.7-1L213.7 47.7z" class="a"/><path d="M222.5 49.8c0.1-0.4 0.1-0.9-0.1-1.2l4 1.1c0.3 0.1 0.4 0.1 0.6 0l-0.7 2.7c-0.2-1.2-0.7-1.6-1.7-1.9 -0.7-0.2-1 0-1.2 0.6l-0.3 1.1c0.2 0.1 0.4 0.2 0.6 0.2 0.7 0.2 1.2 0.2 1.7-0.3l-0.7 2.5c-0.2-0.7-0.6-0.9-1.3-1.1 -0.2-0.1-0.4-0.1-0.6-0.1l-0.4 1.5c-0.2 0.7 0 1 0.8 1.2 1 0.3 1.8 0 2.6-1.1l-0.9 3.1c-0.1-0.2-0.3-0.4-0.8-0.5l-4-1.1c0.4-0.2 0.6-0.6 0.8-1L222.5 49.8z" class="a"/><path d="M227 55.3c0.2 1.5 0.6 2.2 1.4 2.5 0.8 0.2 1.2-0.2 1.4-0.8 0.2-0.5 0.1-1-0.4-1.4l-1-1c-0.6-0.6-0.7-1.4-0.5-2.2 0.4-1.3 1.6-2 2.8-1.6 0.6 0.2 0.7 0.4 1.1 0.5 0.2 0.1 0.4 0.1 0.7-0.1l-0.8 2.7c-0.1-1-0.6-1.7-1.3-1.9 -0.5-0.2-1 0-1.2 0.6 -0.1 0.4 0 0.8 0.5 1.3l0.7 0.7c0.6 0.6 0.9 1.4 0.6 2.6 -0.5 1.5-1.6 2.2-2.9 1.8 -0.6-0.2-1.1-0.6-1.4-0.7 -0.2-0.1-0.4 0-0.7 0.2L227 55.3z" class="a"/><path d="M237.1 54.4c0.2-0.5 0.2-1 0-1.4 0.2 0.1 0.6 0.3 1 0.4 0.5 0.2 1 0.3 1.5 0.5 1.7 0.6 2.2 2.4 1.4 4.7 -0.9 2.5-2.2 3.9-4.4 3.2 -0.4-0.2-0.9-0.4-1.4-0.6 -0.4-0.1-0.6-0.2-0.9-0.2 0.3-0.2 0.7-0.6 0.9-1.2L237.1 54.4zM236.6 59.5c-0.2 0.6-0.1 0.9 0.4 1.1 1.2 0.4 2.1-0.5 2.8-2.3 0.6-1.7 0.5-2.9-0.6-3.3 -0.7-0.2-1-0.1-1.2 0.4L236.6 59.5z" class="a"/><path d="M243.6 56.1c0-0.1 0.1-0.2 0.1-0.3 0.1-0.3 0.3-0.4 0.6-0.3 0.3 0.1 0.4 0.3 0.2 0.6 0 0.1-0.1 0.2-0.1 0.3l-0.6 1.3c-0.1 0.2-0.2 0.2-0.4 0.2 -0.2-0.1-0.2-0.2-0.2-0.4L243.6 56.1z" class="a"/><path d="M246.1 57.6c0.2-0.4 0.2-0.9 0-1.2l3.9 1.6c0.2 0.1 0.4 0.1 0.6 0.1l-1 2.6c-0.1-1.2-0.5-1.7-1.4-2.1 -0.7-0.3-1-0.1-1.3 0.5l-0.4 1.1c0.2 0.1 0.4 0.2 0.6 0.3 0.6 0.3 1.1 0.3 1.7-0.1l-1 2.4c-0.1-0.7-0.5-1-1.1-1.2 -0.2-0.1-0.4-0.2-0.6-0.2l-0.6 1.5c-0.3 0.6-0.1 0.9 0.7 1.3 1 0.4 1.8 0.2 2.7-0.8l-1.2 3c-0.1-0.2-0.3-0.4-0.7-0.6l-3.8-1.6c0.4-0.2 0.7-0.5 0.9-0.9L246.1 57.6z" class="a"/><path d="M248.1 66.1c0.5-0.2 1.3-0.7 2-1.4l2-1.8 0-2.5c0-0.8-0.1-1.4-0.3-1.7l2 0.9c-0.2 0-0.3 0.1-0.4 0.4 -0.1 0.1-0.1 0.3-0.1 0.6 0 0.5 0 1.6 0 1.8l1.2-1c0.2-0.2 0.4-0.4 0.5-0.6 0.1-0.3 0.1-0.4 0-0.6l2 0.9c-0.6 0.2-1.6 1-2.3 1.6l-1.3 1.1 0 2.9c0 0.4 0.1 1.2 0.3 2l-2-0.9c0.2-0.1 0.3-0.3 0.4-0.4 0.1-0.2 0.1-0.5 0.1-0.9 0-0.7-0.1-1.5 0-2l-1.6 1.4c-0.2 0.2-0.4 0.4-0.5 0.6 -0.1 0.2-0.1 0.5 0 0.7L248.1 66.1z" class="a"/><path d="M260.2 62.4c0.5 0.2 0.8 0.7 1 0.8 0.2 0.1 0.4 0.1 0.6 0l-1.5 3.1c0 0 0 0 0 0 0 0 0 0 0 0 0.2-1.5 0-2.3-0.6-2.6 -0.6-0.3-1.5-0.1-2.6 2.1 -0.9 1.8-0.5 2.7 0.2 3.1 0.7 0.4 1.6 0 2.4-0.6l0 0c-0.8 1.7-2 2.5-3.3 1.9 -1.1-0.5-1.8-2-0.3-4.9C257.3 62.6 258.9 61.8 260.2 62.4z" class="a"/><path d="M263 65.3c0.2-0.4 0.2-0.9 0.1-1.2l3.7 2c0.2 0.1 0.4 0.1 0.6 0.1l-1.3 2.5c0-1.2-0.3-1.7-1.2-2.2 -0.6-0.3-1-0.2-1.3 0.3l-0.5 1c0.2 0.1 0.4 0.2 0.6 0.3 0.6 0.3 1.1 0.5 1.7 0.1l-1.2 2.3c0-0.7-0.4-1-1-1.3 -0.2-0.1-0.4-0.2-0.6-0.3l-0.7 1.4c-0.3 0.6-0.2 0.9 0.6 1.3 0.9 0.5 1.8 0.4 2.8-0.5l-1.5 2.8c-0.1-0.2-0.2-0.4-0.6-0.6l-3.7-1.9c0.4-0.1 0.8-0.4 1-0.8L263 65.3z" class="a"/><path d="M268.6 68.4c0.3-0.5 0.4-0.9 0.3-1.4 0.2 0.2 0.4 0.3 0.7 0.5 0.3 0.1 1.2 0.6 1.7 0.9 1 0.6 1.3 1.7 0.5 3.1 -0.5 0.8-1.3 1.7-2.8 1.2 -1-0.3-1.2-0.2-1.5 0.3l-0.5 0.9c-0.3 0.5-0.3 1-0.2 1.4l-1.9-1.1c0.4-0.2 0.7-0.3 1-0.9L268.6 68.4zM268.3 71.5l0 0c0.2-0.1 0.4-0.1 1 0 0.7 0.2 1.2-0.1 1.6-0.7 0.3-0.4 0.4-1.2-0.3-1.5 -0.4-0.3-0.8-0.2-1.2 0.4L268.3 71.5z" class="a"/><path d="M275 73c0.3-0.4 0.3-0.7-0.1-0.9 -0.6-0.4-1.4 0.1-2.1 1l0 0 1.7-2.8c0.1 0.1 0.2 0.3 0.3 0.4l3.4 2.1c0.2 0.1 0.4 0.1 0.5 0.1l-1.7 2.8 0 0c0.4-1.1 0.5-2-0.1-2.4 -0.4-0.2-0.6-0.1-0.8 0.4l-2.7 4.4c-0.2 0.4-0.3 0.8-0.2 1.2l-1.8-1.1c0.4-0.1 0.8-0.4 1-0.7L275 73z" class="a"/><path d="M279.4 74.8c0.2-0.4 0.3-0.8 0.2-1.2l1.8 1.2c-0.4 0.1-0.8 0.3-1 0.7l-3.3 5c-0.2 0.4-0.3 0.8-0.2 1.2l-1.8-1.2c0.4-0.1 0.8-0.3 1-0.7L279.4 74.8z" class="a"/><path d="M284.5 81.9c-1.5 2.2-3 3.1-4.5 2.1 -1.5-1-1.2-2.8 0.4-5 1.9-2.8 3.4-2.9 4.5-2.1C286.1 77.7 286.5 79.1 284.5 81.9zM283.6 81.2c1.3-1.9 1.3-2.8 0.6-3.3 -0.7-0.5-1.5-0.1-2.8 1.7 -1.2 1.7-1.4 2.7-0.6 3.3C281.5 83.5 282.4 82.9 283.6 81.2z" class="a"/><path d="M288 80.7c0.3-0.4 0.4-0.8 0.3-1.2l1.7 1.3c-0.1 0.1-0.1 0.1-0.2 0.2 -0.1 0.1-0.2 0.3-0.2 0.5l-1.5 4.8 0 0 2.1-2.8c0.6-0.8 0.8-1.3 0.7-2l1.8 1.4c-0.4 0.1-0.8 0.3-1.1 0.6l-3.9 5.2c-0.2 0.2-0.2 0.4-0.2 0.5l-1.3-1c0.1 0 0.1-0.1 0.2-0.1 0.1-0.1 0.1-0.3 0.2-0.5l1.6-5.3 0 0 -2.4 3.1c-0.6 0.8-0.8 1.3-0.7 2l-1.8-1.4c0.4-0.1 0.8-0.3 1.1-0.6L288 80.7z" class="a"/><path d="M28.4 79.4c-0.2-0.4-0.6-0.6-1-0.7l2.4-1.4c0 0.1 0 0.2 0 0.3 0.1 0.1 0.2 0.3 0.3 0.4l3.9 3.8 0 0 -1.6-5.2c-0.1-0.2-0.1-0.3-0.2-0.4 -0.1-0.1-0.1-0.2-0.2-0.2l2.4-1.5c-0.1 0.4-0.1 0.9 0.2 1.3l3.1 5.1c0.2 0.4 0.6 0.6 1 0.7l-1.9 1.1c0.1-0.4 0.1-0.9-0.4-1.6l-2.9-4.8 0 0 1.9 6.3c0 0.1 0.1 0.2 0.1 0.3 0.1 0.1 0.2 0.2 0.3 0.3l-1.5 0.9c0-0.1-0.1-0.3-0.1-0.4 -0.1-0.1-0.1-0.2-0.2-0.2l-4.5-4.5 0 0 2.8 4.6c0.4 0.7 0.9 1 1.3 1.1l-1.9 1.1c0.1-0.4 0.1-0.9-0.2-1.3L28.4 79.4z" class="a"/><polygon points="39.2 69.6 37.8 71.5 38.1 71.8 39.8 70.1 " class="b"/><path d="M37.4 73.9c-0.2-0.4-0.6-0.7-1-0.7l3.9-2.2c0.3-0.1 0.4-0.3 0.5-0.5l1.4 2.4c-1-0.6-1.7-0.6-2.7-0.1 -0.7 0.4-0.8 0.8-0.5 1.3l0.6 1c0.2-0.1 0.4-0.2 0.6-0.3 0.6-0.4 1.1-0.7 1.1-1.5l1.3 2.3c-0.6-0.3-1.1-0.2-1.8 0.2 -0.2 0.1-0.4 0.3-0.6 0.4l0.8 1.4c0.3 0.6 0.7 0.7 1.5 0.2 1-0.6 1.4-1.3 1.2-2.7l1.6 2.8c-0.2-0.1-0.5 0-0.9 0.2l-3.8 2.2c0.1-0.4 0.1-0.9-0.1-1.3L37.4 73.9z" class="a"/><path d="M44.3 70c-0.2-0.4-0.6-0.7-1-0.8l2-1.1c-0.1 0.4-0.1 0.9 0.1 1.3l2.4 4.4c0.3 0.6 0.6 0.7 1 0.5 0.8-0.4 0.9-1.5 0.7-2.6l1.6 3c-0.2-0.1-0.5 0-1 0.2l-2.9 1.6c0.1-0.4 0.1-0.9-0.1-1.3L44.3 70z" class="a"/><path d="M52.4 73.7c0.1-0.6-0.1-1.5-0.2-2.2l-1.1-5.5c0-0.2-0.1-0.4-0.2-0.5 0-0.1-0.1-0.2-0.2-0.2l1.6-0.8c0 0.1 0 0.1 0 0.2 0.1 0.1 0.3 0.4 0.5 0.7l3.5 4c0.4 0.5 1.1 1.2 1.6 1.5l-1.9 1c0-0.3-0.1-0.7-0.2-1 -0.1-0.2-0.3-0.5-0.4-0.6l-2.2 1.1c0 0.2 0.1 0.5 0.2 0.8 0.2 0.3 0.4 0.6 0.7 0.7L52.4 73.7zM54.7 69.3l-2.4-2.8 0 0 0.8 3.6L54.7 69.3z" class="a"/><path d="M57 63.4c-0.2-0.4-0.6-0.7-1-0.8l2.1-1c0 0.1 0 0.2 0.1 0.3 0.1 0.1 0.2 0.3 0.3 0.4l3.6 3.5 0 0 -1.5-3.1c-0.4-1-0.8-1.3-1.5-1.5l2.2-1c-0.2 0.4-0.2 0.9 0 1.3l2.8 5.9c0.1 0.3 0.2 0.4 0.4 0.5l-1.6 0.7c0-0.1 0-0.1 0-0.2 0-0.1-0.2-0.2-0.4-0.4l-4-3.9 0 0 1.7 3.6c0.4 1 0.8 1.3 1.5 1.5l-2.2 1c0.2-0.4 0.2-0.9 0-1.3L57 63.4z" class="a"/><path d="M69.5 59.9c-1.2-1.1-2-1.3-2.7-1 -0.8 0.3-1.1 1.4-0.1 3.7 0.8 1.9 1.7 2.2 2.4 1.9 0.8-0.3 0.8-1 0.5-1.9 -0.3-0.7-0.7-1.2-1.3-1.3l2-0.9c-0.1 0.2 0 0.5 0.1 0.8l1.4 3.4c-0.4-0.2-0.6-0.2-0.7-0.1 -0.3 0.1-0.6 0.7-1.6 1.2 -1.8 0.8-3.2-0.8-4-2.6 -0.9-2-1.2-4.5 0.9-5.4 0.8-0.3 1.1-0.2 1.5-0.3 0.2-0.1 0.3-0.3 0.4-0.5L69.5 59.9z" class="a"/><path d="M71.9 56.9c-0.2-0.4-0.5-0.7-0.9-0.9l4.2-1.6c0.3-0.1 0.4-0.2 0.5-0.4l1 2.6c-0.9-0.8-1.6-0.9-2.6-0.5 -0.7 0.3-0.9 0.6-0.7 1.2l0.4 1.1c0.2 0 0.4-0.1 0.7-0.2 0.7-0.3 1.2-0.6 1.3-1.3l0.9 2.5c-0.5-0.4-1.1-0.3-1.8-0.1 -0.2 0.1-0.4 0.2-0.6 0.3l0.6 1.5c0.3 0.6 0.6 0.8 1.5 0.4 1.1-0.4 1.6-1.1 1.6-2.5l1.1 3c-0.2-0.1-0.5-0.1-1 0.1l-4.2 1.6c0.2-0.4 0.2-0.8 0.1-1.3L71.9 56.9z" class="a"/><path d="M80.2 58.2c1.1 1 1.9 1.4 2.8 1.1 0.8-0.3 1-0.9 0.8-1.5 -0.2-0.5-0.5-0.8-1.2-0.9l-1.5-0.2c-0.8-0.1-1.5-0.7-1.7-1.5 -0.4-1.3 0.2-2.5 1.4-3 0.6-0.2 0.9-0.1 1.3-0.2 0.3-0.1 0.4-0.2 0.6-0.5l0.9 2.7c-0.7-0.8-1.6-1-2.3-0.8 -0.6 0.2-0.9 0.6-0.7 1.2 0.1 0.4 0.5 0.6 1.2 0.7l1 0.1c0.9 0.1 1.7 0.6 2.1 1.8 0.5 1.5-0.1 2.8-1.4 3.2 -0.6 0.2-1.3 0.2-1.7 0.3 -0.2 0.1-0.4 0.3-0.6 0.6L80.2 58.2z" class="a"/><path d="M90.4 50.6c-0.1-0.4-0.4-0.8-0.8-1l4.3-1.2c0.3-0.1 0.4-0.2 0.6-0.3l0.7 2.7c-0.8-0.9-1.5-1-2.6-0.7 -0.8 0.2-1 0.5-0.8 1.2l0.3 1.1c0.2 0 0.5-0.1 0.7-0.1 0.7-0.2 1.2-0.4 1.4-1.1l0.7 2.5c-0.5-0.5-1.1-0.5-1.8-0.3 -0.2 0.1-0.5 0.1-0.7 0.2l0.4 1.5c0.2 0.7 0.5 0.8 1.4 0.6 1.1-0.3 1.7-1 1.8-2.3l0.8 3.1c-0.2-0.1-0.5-0.1-1 0l-4.3 1.2c0.2-0.4 0.3-0.8 0.2-1.2L90.4 50.6z" class="a"/><path d="M98.6 55.7c0.3-0.4 0.7-1.4 0.9-2.3l0.6-2.6 -1.6-2c-0.5-0.6-1-1-1.3-1.2l2.3-0.5c-0.2 0.1-0.2 0.3-0.1 0.5 0 0.1 0.1 0.3 0.3 0.5 0.3 0.4 1 1.2 1.1 1.4l0.4-1.5c0.1-0.3 0.1-0.5 0-0.7 -0.1-0.3-0.2-0.4-0.4-0.5l2.3-0.5c-0.4 0.5-0.8 1.7-1 2.7l-0.4 1.7 1.8 2.3c0.3 0.3 0.8 0.9 1.5 1.3l-2.3 0.5c0.1-0.2 0.1-0.4 0.1-0.6 0-0.2-0.2-0.5-0.5-0.8 -0.5-0.6-1-1.1-1.3-1.6l-0.5 2.1c-0.1 0.3-0.1 0.6 0 0.8 0.1 0.2 0.2 0.4 0.4 0.6L98.6 55.7z" class="a"/><path d="M110.3 53.2l0.5 0.5c0.1 0.2 0.3 0.3 0.5 0.2 0.3 0 0.4-0.2 0.5-0.5 0.1 0 0.2 0.2 0.2 0.4 0.1 0.6-0.1 1.3-0.8 1.5 -1.2 0.2-1.5-1.6-2.5-1.4 -0.5 0.1-0.8 0.6-0.8 1.2 -0.3-0.1-0.4-0.4-0.5-0.6 -0.1-0.3 0-0.6 0.2-1 -0.9-0.5-1.5-1.7-1.9-3.5 -0.6-3.3 0.4-4.5 1.9-4.7 1.5-0.3 2.8 0.4 3.5 3.7C111.5 50.9 111.3 52.4 110.3 53.2zM109.9 49.1c-0.4-2.2-1.1-2.9-2-2.7 -0.9 0.2-1.3 1-0.8 3.3 0.4 2 1 2.9 2 2.7C110 52.2 110.3 51.1 109.9 49.1z" class="a"/><path d="M113.5 45.5c-0.1-0.4-0.3-0.8-0.7-1.1L115 44.1c-0.2 0.4-0.3 0.7-0.2 1.2l0.6 4.5c0.2 1.1 0.6 1.5 1.4 1.4 0.7-0.1 1.2-0.6 1-1.7l-0.6-4.5c-0.1-0.5-0.2-0.7-0.6-1.1l2.2-0.3c-0.3 0.3-0.4 0.8-0.3 1.2l0.5 3.8c0.3 2.3-0.2 3.5-2.1 3.8 -1.4 0.2-2.5-0.5-2.7-2.1L113.5 45.5z" class="a"/><path d="M122 44.3c0-0.4-0.3-0.8-0.6-1.1l2.3-0.2c-0.3 0.3-0.4 0.8-0.4 1.2l0.6 5.9c0 0.4 0.3 0.8 0.6 1.1l-2.3 0.3c0.3-0.3 0.4-0.8 0.4-1.2L122 44.3z" class="a"/><path d="M126.7 47.9c0.8 1.3 1.5 1.8 2.4 1.8 0.8-0.1 1.2-0.6 1.1-1.2 0-0.6-0.3-0.9-0.9-1.2l-1.4-0.6c-0.8-0.3-1.3-1-1.3-1.8 -0.1-1.4 0.8-2.4 2.1-2.5 0.7 0 0.9 0.1 1.3 0.1 0.3 0 0.4-0.1 0.7-0.3l0.2 2.8c-0.5-0.9-1.3-1.4-2-1.3 -0.6 0-1 0.4-1 1 0 0.4 0.3 0.7 1 1l1 0.4c0.8 0.3 1.5 1 1.6 2.2 0.1 1.5-0.8 2.7-2.2 2.8 -0.7 0.1-1.3-0.2-1.7-0.2 -0.2 0-0.4 0.2-0.7 0.4L126.7 47.9z" class="a"/><path d="M22 41.4c-0.4-1-0.7-1.4-1.6-1.1 -1.3 0.5-1.6 2.4-1.2 4.7l0 0 -2.4-6.4c0.3 0.1 0.7 0.1 1.1 0l7.6-2.8c0.4-0.1 0.6-0.4 0.8-0.7l2.4 6.4 0 0c-1.2-2.1-2.6-3.3-3.9-2.9 -0.8 0.3-0.8 0.9-0.5 1.8l3.7 10c0.3 0.9 1 1.6 1.7 1.9l-4.1 1.5c0.3-0.8 0.4-1.7 0.1-2.6L22 41.4z" class="a"/><path d="M29.2 37c-0.3-0.9-0.9-1.6-1.7-1.9l4-1.4c-0.3 1-0.3 1.5 0 2.5l1.4 4.1 4.3-1.5 -1.4-4.1c-0.3-1-0.7-1.4-1.5-2l4-1.4c-0.4 0.8-0.4 1.7-0.1 2.6l4 11.6c0.3 0.9 0.9 1.6 1.7 1.9l-4 1.4c0.3-1 0.3-1.5 0-2.5l-1.8-5.2 -4.3 1.5 1.8 5.2c0.3 1 0.7 1.4 1.5 2l-4 1.4c0.4-0.8 0.4-1.7 0.1-2.6L29.2 37z" class="a"/><path d="M41.5 32.8c-0.3-0.9-0.9-1.6-1.7-2l8.2-2.6c0.5-0.2 0.8-0.4 1.1-0.7l1.8 5.4c-1.7-1.7-3-2.1-5-1.4 -1.4 0.5-1.8 1.1-1.4 2.4l0.7 2.3c0.4-0.1 0.9-0.2 1.3-0.3 1.3-0.4 2.2-1 2.5-2.4l1.7 5.2c-1-1-2.1-0.9-3.4-0.5 -0.4 0.1-0.9 0.3-1.2 0.5l1 3.1c0.4 1.3 1 1.7 2.8 1.1 2.1-0.7 3.1-2 3.2-4.8l2 6.3c-0.5-0.2-0.9-0.3-1.9 0l-8.1 2.6c0.4-0.7 0.5-1.7 0.2-2.6L41.5 32.8z" class="a"/><path d="M57.8 27.7c-0.3-0.9-0.9-1.6-1.6-2l7.2-2.1c0.5-0.2 0.8-0.4 1.1-0.7l1.5 5.2c-1.1-1.6-2.4-2-4.2-1.5 -1.3 0.4-1.5 1.1-1.2 2.1l0.8 2.6c0.2 0 0.7-0.1 1.1-0.3 1.2-0.4 1.6-0.7 2-2.1l1.5 5.1c-0.9-0.9-1.8-0.9-2.8-0.6 -0.4 0.1-0.8 0.3-1.1 0.4l1.5 5.1c0.3 0.9 0.9 1.6 1.6 2L61 42.1c0.4-0.7 0.5-1.7 0.3-2.6L57.8 27.7z" class="a"/><path d="M67.4 25c-0.2-0.9-0.8-1.6-1.6-2.1l4.3-1.2c-0.4 0.7-0.5 1.7-0.3 2.6l3.2 11.9c0.2 0.9 0.8 1.6 1.6 2.1l-4.3 1.2c0.4-0.7 0.5-1.7 0.3-2.6L67.4 25z" class="a"/><path d="M73.4 23.3c-0.2-0.9-0.8-1.7-1.5-2.1l4.3-1.1c0 0.2 0 0.4 0.1 0.6 0.1 0.3 0.2 0.6 0.5 1l5.7 8.5 0 0 -1.8-7c-0.5-2.1-1-3-2.2-3.7l4.5-1.1c-0.4 0.7-0.6 1.7-0.4 2.6l3.3 13.1c0.1 0.6 0.3 0.9 0.5 1.1l-3.2 0.8c0-0.1 0-0.3 0-0.5 -0.1-0.2-0.3-0.6-0.5-0.9l-6.4-9.5 0 0 2 7.9c0.5 2.1 1 3 2.2 3.7l-4.5 1.1c0.4-0.7 0.6-1.7 0.4-2.6L73.4 23.3z" class="a"/><path d="M86 20.2c-0.2-0.9-0.8-1.7-1.5-2.1l8.4-1.9c0.5-0.1 0.8-0.3 1.1-0.6l1.2 5.6c-1.5-1.9-2.8-2.3-4.9-1.9 -1.5 0.3-1.9 0.9-1.6 2.3l0.5 2.4c0.4 0 0.9-0.1 1.3-0.2 1.4-0.3 2.3-0.7 2.7-2.1l1.2 5.3c-0.9-1.1-2-1.1-3.4-0.8 -0.4 0.1-0.9 0.2-1.3 0.4l0.7 3.2c0.3 1.4 0.9 1.8 2.7 1.4 2.1-0.5 3.2-1.7 3.6-4.5l1.4 6.4c-0.4-0.3-0.9-0.4-1.9-0.1l-8.3 1.8c0.5-0.7 0.6-1.7 0.4-2.5L86 20.2z" class="a"/><path d="M98.4 26.1c1.8 2.4 3.3 3.5 5 3.1 1.6-0.3 2-1.5 1.8-2.8 -0.2-1.2-0.8-1.8-2-2.2l-2.8-0.9c-1.6-0.5-2.6-1.9-3-3.5 -0.5-2.8 0.9-5.1 3.4-5.6 1.2-0.2 1.7 0 2.5-0.1 0.5-0.1 0.8-0.3 1.2-0.8l1.1 5.7c-1.2-1.8-2.7-2.6-4.1-2.3 -1.1 0.2-1.9 1-1.6 2.2 0.2 0.9 0.7 1.4 2.1 1.8l2 0.6c1.7 0.5 3 1.7 3.5 4.3 0.6 3.2-0.8 5.6-3.5 6.1 -1.3 0.2-2.6-0.1-3.2 0 -0.4 0.1-0.8 0.4-1.2 1L98.4 26.1z" class="a"/><path d="M111.1 16.9c-0.2-1-0.5-1.5-1.3-1.4 -1.3 0.2-2 2-2 4.4l0 0 -1.1-6.8c0.3 0.1 0.7 0.3 1 0.2l8-1.3c0.4-0.1 0.7-0.3 0.9-0.5l1.1 6.8 0 0c-0.8-2.2-2-3.8-3.3-3.5 -0.8 0.1-1 0.7-0.8 1.7l1.7 10.5c0.1 0.9 0.7 1.7 1.3 2.2l-4.3 0.7c0.5-0.7 0.7-1.6 0.6-2.5L111.1 16.9z" class="a"/><path d="M127.2 14.7c-0.1-1-0.4-1.5-1.3-1.4 -1.4 0.2-2.1 1.9-2.2 4.3l0 0 -0.8-6.8c0.3 0.1 0.7 0.3 1 0.3l8-0.9c0.4 0 0.7-0.3 1-0.5l0.8 6.8 0 0c-0.7-2.3-1.8-3.9-3.1-3.7 -0.9 0.1-1 0.6-0.9 1.7l1.2 10.6c0.1 0.9 0.6 1.8 1.2 2.3l-4.4 0.5c0.5-0.7 0.8-1.6 0.7-2.5L127.2 14.7z" class="a"/><path d="M135.6 12.2c-0.1-0.9-0.5-1.8-1.1-2.3l8.6-0.6c0.5 0 0.8-0.2 1.2-0.5l0.4 5.7c-1.2-2.1-2.4-2.7-4.6-2.6 -1.5 0.1-2 0.7-1.9 2l0.2 2.4c0.4 0 0.9 0 1.3 0 1.4-0.1 2.4-0.4 3-1.7l0.4 5.4c-0.8-1.2-1.8-1.3-3.2-1.2 -0.4 0-0.9 0.1-1.3 0.2l0.2 3.3c0.1 1.4 0.6 1.9 2.4 1.8 2.2-0.2 3.5-1.2 4.2-3.9l0.5 6.6c-0.4-0.3-0.8-0.5-1.8-0.4l-8.4 0.6c0.5-0.6 0.9-1.5 0.8-2.5L135.6 12.2z" class="a"/><path d="M146.3 26.1c0.7-1 1.1-3 1.4-4.3l2.6-11.3c0.1-0.4 0.1-0.8 0.1-1.1 0-0.2 0-0.4-0.2-0.5l3.5-0.1c-0.1 0.1-0.1 0.3-0.1 0.4 0 0.2 0.2 1.1 0.4 1.8l2.9 10.5c0.4 1.3 1 3.2 1.7 4.2l-4.1 0.1c0.3-0.6 0.4-1.3 0.4-2 0-0.4-0.1-1.1-0.3-1.4l-4.7 0.2c-0.2 0.4-0.2 1-0.2 1.6 0 0.7 0.3 1.5 0.6 1.8L146.3 26.1zM153.9 19.9l-1.9-7.3h0l-1.5 7.4L153.9 19.9z" class="a"/><path d="M158.9 19.4c1.3 2.8 2.5 4 4.3 4.1 1.6 0 2.3-1.1 2.3-2.4 0-1.2-0.5-1.9-1.5-2.6l-2.6-1.5c-1.4-0.8-2.2-2.4-2.2-4 0-2.9 1.9-4.8 4.5-4.8 1.3 0 1.7 0.4 2.5 0.4 0.5 0 0.8-0.1 1.3-0.5l0 5.8c-0.8-2-2.2-3.1-3.6-3.1 -1.1 0-2 0.6-2 1.9 0 0.9 0.4 1.5 1.7 2.2l1.8 0.9c1.6 0.8 2.7 2.2 2.6 4.9 0 3.2-1.9 5.4-4.6 5.3 -1.3 0-2.5-0.6-3.2-0.6 -0.4 0-0.8 0.3-1.4 0.8L158.9 19.4z" class="a"/><path d="M185.4 18.2c-0.4 5.6-2.1 8.8-5.8 8.5 -3.8-0.3-5-3.7-4.6-9.3 0.5-7 3-8.7 5.8-8.5C183.6 9.2 185.8 11.2 185.4 18.2zM182.9 18c0.3-4.7-0.6-6.3-2.3-6.5 -1.7-0.1-2.8 1.4-3.2 6.1 -0.3 4.2 0.4 6.3 2.3 6.5C181.6 24.2 182.6 22.3 182.9 18z" class="a"/><path d="M188.5 12.4c0.1-0.9-0.2-1.8-0.7-2.5l7.4 0.8c0.5 0.1 0.9 0 1.3-0.2l-0.6 5.4c-0.4-1.9-1.5-2.8-3.3-3 -1.4-0.2-1.8 0.4-1.9 1.5l-0.3 2.7c0.2 0 0.7 0.1 1.1 0.2 1.3 0.1 1.8-0.1 2.7-1.1l-0.6 5.3c-0.5-1.2-1.3-1.5-2.4-1.7 -0.4 0-0.8-0.1-1.2-0.1l-0.6 5.3c-0.1 0.9 0.2 1.8 0.7 2.5l-4.4-0.5c0.7-0.5 1.1-1.4 1.2-2.3L188.5 12.4z" class="a"/><path d="M206 16.4c0.2-1 0-1.6-0.8-1.7 -1.3-0.2-2.6 1.3-3.4 3.5l0 0 1.2-6.8c0.2 0.2 0.5 0.5 0.9 0.5l8 1.4c0.4 0.1 0.8-0.1 1.1-0.2l-1.2 6.8 0 0c0-2.4-0.6-4.2-2-4.4 -0.8-0.1-1.2 0.3-1.3 1.3l-1.8 10.5c-0.2 0.9 0.1 1.8 0.5 2.5l-4.3-0.8c0.7-0.5 1.2-1.3 1.4-2.2L206 16.4z" class="a"/><path d="M214.8 16.3c0.2-0.9 0-1.8-0.4-2.5l4.1 0.9c-0.7 0.7-1 1.1-1.3 2.1l-0.9 4.3 4.4 1 0.9-4.3c0.2-1 0.1-1.5-0.2-2.5l4.1 0.9c-0.7 0.5-1.3 1.2-1.5 2.1l-2.7 12c-0.2 0.9 0 1.8 0.4 2.5l-4.1-0.9c0.7-0.7 1.1-1.1 1.3-2.1l1.2-5.4 -4.4-1 -1.2 5.4c-0.2 1-0.1 1.5 0.3 2.5l-4.1-0.9c0.7-0.5 1.3-1.2 1.5-2.1L214.8 16.3z" class="a"/><path d="M227.8 19.3c0.2-0.9 0.1-1.8-0.3-2.6L235.7 19c0.5 0.1 0.9 0.1 1.3 0l-1.5 5.5c-0.5-2.4-1.4-3.4-3.4-3.9 -1.4-0.4-2.1 0-2.5 1.3l-0.6 2.3c0.4 0.1 0.8 0.3 1.2 0.4 1.4 0.4 2.4 0.4 3.4-0.6l-1.4 5.3c-0.3-1.4-1.3-1.9-2.6-2.2 -0.4-0.1-0.9-0.2-1.3-0.3l-0.9 3.2c-0.4 1.4-0.1 2 1.7 2.5 2.1 0.6 3.7 0 5.3-2.3l-1.7 6.4c-0.2-0.5-0.6-0.7-1.6-1l-8.2-2.2c0.7-0.4 1.3-1.2 1.6-2.1L227.8 19.3z" class="a"/><path d="M247.9 22.7c-0.6 0.3-1.1 0.9-1.4 1.6 -0.1 0.3-0.2 0.9-0.3 1.5l-1.7 9 0 0 5.4-9.4c0.2-0.4 0.4-0.7 0.5-1 0.1-0.2 0.1-0.5 0.1-0.7l3 1.1c-0.1 0.2-0.2 0.5-0.3 0.7 -0.1 0.3-0.2 0.7-0.3 1.2l-1.8 10.9 0 0 4.2-7.9c0.4-0.8 0.7-1.3 0.9-1.9 0.3-0.7 0.1-1.4-0.3-2l4 1.4c-0.9 0.7-1.8 1.8-2.6 3.3l-5.7 10.4c-0.2 0.3-0.3 0.6-0.3 0.7 -0.1 0.2 0 0.4 0 0.6l-3.3-1.1c0.1-0.2 0.2-0.5 0.3-0.7 0.1-0.4 0.2-1 0.3-1.8l1.6-9.7 0 0 -5.4 9.4c-0.2 0.3-0.3 0.6-0.4 0.8 -0.1 0.3 0 0.6 0.1 0.8l-3.5-1.2c0.2-0.2 0.4-0.3 0.4-0.5 0.1-0.3 0.2-0.5 0.2-0.9l1.9-11c0.3-1.6 0.5-3.7 0.2-4.8L247.9 22.7z" class="a"/><path d="M267.7 39.2c-2.1 5.2-4.6 7.7-8.1 6.3 -3.5-1.4-3.6-5-1.5-10.2 2.6-6.5 5.5-7.4 8.1-6.3C268.9 30.1 270.3 32.7 267.7 39.2zM265.4 38.3c1.7-4.4 1.4-6.2-0.2-6.9 -1.6-0.6-3.1 0.5-4.9 4.8 -1.6 3.9-1.5 6.2 0.2 6.9C262.3 43.8 263.9 42.3 265.4 38.3z" class="a"/><path d="M272.3 34.8c0.5-1.1 0.6-2 0.2-2.9 0.5 0.3 0.9 0.5 1.5 0.8 0.5 0.2 2.7 1 3.6 1.4 3.2 1.4 3.1 4 2.3 5.8 -0.9 2-2.1 3-3.7 2.9 0.8 1.1 1.1 1.9-0.2 5.7 -0.5 1.4-0.7 2.5-0.4 3.5l-2.2-1c-0.7-0.3-0.6-1 0.4-3.7 1.1-2.9 0.9-3.8-1-4.6l-1-0.4 -1.8 4.2c-0.5 1.2-0.5 2.1-0.1 3l-4-1.8c0.8-0.4 1.3-0.8 1.8-2L272.3 34.8zM272.7 40l0.7 0.3c2.1 0.9 3.3 0.8 4-1 0.7-1.5 0.3-2.5-1.3-3.3 -1.1-0.5-1.6-0.2-1.9 0.3L272.7 40z" class="a"/><path d="M283.6 39.5c0.4-0.8 0.4-1.8 0.1-2.6l4 1.9c-0.8 0.3-1.5 0.9-1.9 1.8L281.5 49.9c-0.6 1.3-0.5 1.9 0.2 2.2 1.6 0.8 3.3-0.3 5-2.2l-3 6.4c-0.2-0.5-0.5-0.8-1.4-1.3l-5.8-2.7c0.8-0.3 1.5-0.9 1.9-1.7L283.6 39.5z" class="a"/><path d="M292.1 43.8c0.5-1 0.7-2 0.4-2.9 0.4 0.4 1.1 0.7 1.9 1.1 1.1 0.5 2 0.9 2.9 1.3 3.4 1.7 3.9 5.5 1.6 10 -2.4 4.8-5.5 7.5-9.8 5.4 -0.9-0.4-1.8-1.1-2.7-1.5 -0.8-0.4-1.3-0.5-1.7-0.7 0.8-0.3 1.6-1 2.2-2.3L292.1 43.8zM289.7 54.1c-0.6 1.3-0.5 1.8 0.6 2.4 2.4 1.2 4.4-0.4 6.2-4.1 1.7-3.4 1.8-5.8-0.3-6.9 -1.3-0.7-1.9-0.5-2.5 0.6L289.7 54.1z" class="a"/></svg>