<svg width="100" height="100" viewBox="0 0 100 100" fill="none" xmlns="http://www.w3.org/2000/svg">
<circle cx="50" cy="50" r="50" fill="#009FE3"/>
<path d="M72.3606 67.32C74.7816 65.0047 76.5084 62.0598 77.3469 58.8166C78.1854 55.5734 78.1022 52.1605 77.1066 48.962C76.1111 45.7635 74.2428 42.9062 71.7119 40.7117C69.181 38.5171 66.0879 37.0724 62.7806 36.54C61.8285 36.3858 60.8651 36.3122 59.9006 36.32C57.3396 36.3025 54.8047 36.8355 52.4675 37.8827C50.1304 38.9299 48.0454 40.467 46.3539 42.3899C44.6623 44.3129 43.4035 46.5768 42.6628 49.0284C41.9221 51.48 41.7167 54.0621 42.0606 56.6C42.0606 56.8 42.0606 57 42.0606 57.18C42.1692 57.8545 42.3161 58.5222 42.5006 59.18V59.4C42.7137 60.0813 42.9675 60.7491 43.2606 61.4L43.5206 61.96C43.7913 62.5287 44.0917 63.0828 44.4206 63.62L44.5606 63.9C42.5745 63.9817 40.5883 63.7385 38.6806 63.18C38.2412 63.0211 37.76 63.0211 37.3206 63.18L31.9006 65.76L32.9806 61.96C33.0698 61.6001 33.0572 61.2224 32.9442 60.8692C32.8312 60.5161 32.6222 60.2013 32.3406 59.96C28.9206 56.8808 26.8099 52.6087 26.4421 48.0215C26.0743 43.4344 27.4774 38.8805 30.3631 35.2958C33.2488 31.7111 37.3979 29.3677 41.9578 28.7473C46.5177 28.1269 51.142 29.2766 54.8806 31.96C55.2996 32.2862 55.8311 32.4326 56.3581 32.367C56.885 32.3013 57.3644 32.029 57.6906 31.61C58.0168 31.191 58.1632 30.6595 58.0975 30.1325C58.0319 29.6055 57.7596 29.1262 57.3406 28.8C53.5268 25.736 48.7925 24.0452 43.9006 24C39.5036 24.0199 35.2135 25.3568 31.5837 27.8384C27.9539 30.3199 25.151 33.8322 23.5366 37.9221C21.9222 42.012 21.5703 46.4918 22.5264 50.7836C23.4825 55.0754 25.7027 58.9822 28.9006 62L26.9006 68.68C26.7627 69.0585 26.7423 69.4697 26.8421 69.86C26.9419 70.2502 27.1571 70.6012 27.4597 70.8671C27.7623 71.1329 28.1381 71.3012 28.538 71.3499C28.9378 71.3986 29.343 71.3254 29.7006 71.14L38.4006 67.28C41.4614 68.0572 44.6538 68.1664 47.7606 67.6C51.0761 70.6336 55.4066 72.3173 59.9006 72.32C61.3707 72.3226 62.8355 72.1412 64.2606 71.78L71.0806 74.82C71.4298 74.9971 71.8233 75.0679 72.2123 75.0235C72.6013 74.9791 72.9687 74.8215 73.269 74.5702C73.5693 74.3189 73.7892 73.985 73.9015 73.6099C74.0137 73.2348 74.0134 72.8349 73.9006 72.46L72.3606 67.32ZM68.8206 65.12C68.539 65.3613 68.33 65.6761 68.217 66.0292C68.104 66.3824 68.0914 66.7601 68.1806 67.12L68.8006 69.5L65.2206 67.9C64.9631 67.7827 64.6836 67.7213 64.4006 67.72C64.2083 67.6918 64.0129 67.6918 63.8206 67.72C62.5246 68.1163 61.1757 68.3119 59.8206 68.3C56.1075 68.3 52.5466 66.825 49.9211 64.1995C47.2956 61.574 45.8206 58.013 45.8206 54.3C45.8206 50.587 47.2956 47.026 49.9211 44.4005C52.5466 41.775 56.1075 40.3 59.8206 40.3C60.5643 40.2978 61.3069 40.358 62.0406 40.48C64.7 40.9058 67.1801 42.0896 69.1836 43.8895C71.1871 45.6894 72.6289 48.029 73.3361 50.6277C74.0433 53.2265 73.9859 55.9741 73.1708 58.541C72.3557 61.108 70.8175 63.3853 68.7406 65.1L68.8206 65.12Z" fill="white"/>
<path d="M53.5404 51.6602H51.9004C51.37 51.6602 50.8612 51.8709 50.4862 52.2459C50.1111 52.621 49.9004 53.1297 49.9004 53.6602C49.9004 54.1906 50.1111 54.6993 50.4862 55.0744C50.8612 55.4494 51.37 55.6602 51.9004 55.6602H53.5404C54.0708 55.6602 54.5795 55.4494 54.9546 55.0744C55.3297 54.6993 55.5404 54.1906 55.5404 53.6602C55.5404 53.1297 55.3297 52.621 54.9546 52.2459C54.5795 51.8709 54.0708 51.6602 53.5404 51.6602ZM60.7204 51.6602H59.0804C58.55 51.6602 58.0412 51.8709 57.6662 52.2459C57.2911 52.621 57.0804 53.1297 57.0804 53.6602C57.0804 54.1906 57.2911 54.6993 57.6662 55.0744C58.0412 55.4494 58.55 55.6602 59.0804 55.6602H60.7204C61.2508 55.6602 61.7595 55.4494 62.1346 55.0744C62.5097 54.6993 62.7204 54.1906 62.7204 53.6602C62.7204 53.1297 62.5097 52.621 62.1346 52.2459C61.7595 51.8709 61.2508 51.6602 60.7204 51.6602ZM67.9004 51.6602H66.2604C65.73 51.6602 65.2212 51.8709 64.8462 52.2459C64.4711 52.621 64.2604 53.1297 64.2604 53.6602C64.2604 54.1906 64.4711 54.6993 64.8462 55.0744C65.2212 55.4494 65.73 55.6602 66.2604 55.6602H67.9004C68.4308 55.6602 68.9395 55.4494 69.3146 55.0744C69.6897 54.6993 69.9004 54.1906 69.9004 53.6602C69.9004 53.1297 69.6897 52.621 69.3146 52.2459C68.9395 51.8709 68.4308 51.6602 67.9004 51.6602Z" fill="white"/>
</svg>
