<svg width="100" height="100" viewBox="0 0 100 100" fill="none" xmlns="http://www.w3.org/2000/svg">
<circle cx="50" cy="50" r="50" fill="#009FE3"/>
<path d="M70 43C70 37.6957 67.8929 32.6086 64.1421 28.8579C60.3914 25.1071 55.3043 23 50 23C44.7609 22.9991 39.7305 25.0539 35.9905 28.7229C32.2505 32.3918 30.0995 37.3818 30 42.62V42.62C28.4087 42.62 26.8826 43.2521 25.7574 44.3774C24.6321 45.5026 24 47.0287 24 48.62V56.62C24 58.2113 24.6321 59.7374 25.7574 60.8626C26.8826 61.9879 28.4087 62.62 30 62.62H34C35.5913 62.62 37.1174 61.9879 38.2426 60.8626C39.3679 59.7374 40 58.2113 40 56.62V48.62C40 47.0287 39.3679 45.5026 38.2426 44.3774C37.1174 43.2521 35.5913 42.62 34 42.62C34.0992 38.4427 35.8287 34.47 38.8186 31.5512C41.8084 28.6323 45.8216 26.9988 50 27C54.2435 27 58.3131 28.6857 61.3137 31.6863C64.3143 34.6869 66 38.7565 66 43C64.4087 43 62.8826 43.6321 61.7574 44.7574C60.6321 45.8826 60 47.4087 60 49V57C60.0054 58.3225 60.4475 59.6061 61.2577 60.6514C62.0678 61.6967 63.2007 62.445 64.48 62.78C62.9681 65.5267 60.4412 67.5727 57.44 68.48C56.9594 67.4416 56.192 66.5623 55.2281 65.9457C54.2643 65.3291 53.1442 65.001 52 65H48C46.4087 65 44.8826 65.6321 43.7574 66.7574C42.6321 67.8826 42 69.4087 42 71C42 72.5913 42.6321 74.1174 43.7574 75.2426C44.8826 76.3679 46.4087 77 48 77H52C53.3251 76.9935 54.6108 76.5485 55.6564 75.7344C56.702 74.9204 57.4487 73.7831 57.78 72.5C60.237 71.9002 62.5167 70.7264 64.4323 69.0751C66.3479 67.4237 67.8447 65.3418 68.8 63H70C71.5913 63 73.1174 62.3679 74.2426 61.2426C75.3679 60.1174 76 58.5913 76 57V49C76 47.4087 75.3679 45.8826 74.2426 44.7574C73.1174 43.6321 71.5913 43 70 43V43ZM36 48.62V56.62C36 57.1504 35.7893 57.6591 35.4142 58.0342C35.0391 58.4093 34.5304 58.62 34 58.62H30C29.4696 58.62 28.9609 58.4093 28.5858 58.0342C28.2107 57.6591 28 57.1504 28 56.62V48.62C28 48.0896 28.2107 47.5809 28.5858 47.2058C28.9609 46.8307 29.4696 46.62 30 46.62H34C34.5304 46.62 35.0391 46.8307 35.4142 47.2058C35.7893 47.5809 36 48.0896 36 48.62ZM52 73H48C47.4696 73 46.9609 72.7893 46.5858 72.4142C46.2107 72.0391 46 71.5304 46 71C46 70.4696 46.2107 69.9609 46.5858 69.5858C46.9609 69.2107 47.4696 69 48 69H52C52.5304 69 53.0391 69.2107 53.4142 69.5858C53.7893 69.9609 54 70.4696 54 71C54 71.5304 53.7893 72.0391 53.4142 72.4142C53.0391 72.7893 52.5304 73 52 73ZM72 57C72 57.5304 71.7893 58.0391 71.4142 58.4142C71.0391 58.7893 70.5304 59 70 59H66C65.4696 59 64.9609 58.7893 64.5858 58.4142C64.2107 58.0391 64 57.5304 64 57V49C64 48.4696 64.2107 47.9609 64.5858 47.5858C64.9609 47.2107 65.4696 47 66 47H70C70.5304 47 71.0391 47.2107 71.4142 47.5858C71.7893 47.9609 72 48.4696 72 49V57Z" fill="white"/>
</svg>
