<svg width="100" height="100" viewBox="0 0 100 100" fill="none" xmlns="http://www.w3.org/2000/svg">
<circle cx="50" cy="50" r="50" fill="#F7F7F9"/>
<path fill-rule="evenodd" clip-rule="evenodd" d="M50.5354 23.7185C50.1653 23.712 49.8026 23.8238 49.5015 24.0391L42.7305 28.8748H33.3159C33.0899 28.8746 32.8661 28.919 32.6573 29.0054C32.4485 29.0918 32.2587 29.2185 32.0989 29.3783C31.9391 29.5381 31.8124 29.7278 31.726 29.9366C31.6396 30.1455 31.5953 30.3693 31.5955 30.5953V36.8291L25.4388 41.2267C24.9872 41.5493 24.719 42.07 24.7188 42.6249V73.5626C24.7188 74.5119 25.4883 75.2813 26.4375 75.2814H40.1859C42.5092 75.3139 42.5092 71.8121 40.1859 71.8439H32.2853L72.8441 45.7737V66.6876C72.8441 69.5739 70.5741 71.8439 67.6878 71.8439H53.9394C51.6161 71.8114 51.6161 75.3132 53.9394 75.2814H67.6878C72.4191 75.2814 76.2816 71.4188 76.2816 66.6876V42.6249C76.2814 42.07 76.0132 41.5492 75.5616 41.2267L69.4049 36.8291V30.5953C69.4051 30.3694 69.3608 30.1457 69.2745 29.937C69.1882 29.7283 69.0616 29.5386 68.902 29.3789C68.7424 29.2191 68.5529 29.0923 68.3442 29.0059C68.1356 28.9194 67.912 28.8748 67.6861 28.8748H58.2699L51.4989 24.0391C51.2173 23.8377 50.8815 23.726 50.5354 23.7185ZM50.5002 27.5488L52.3566 28.8748H48.6438L50.5002 27.5488ZM35.0347 32.314H65.9674V46.1027L50.4431 56.083L35.0347 46.1329V32.314ZM57.4776 37.4686C57.444 37.4688 57.4104 37.4699 57.3769 37.472H43.6235C43.3889 37.4569 43.1538 37.4901 42.9326 37.5695C42.7114 37.6489 42.5089 37.7728 42.3375 37.9336C42.1661 38.0944 42.0294 38.2886 41.936 38.5042C41.8426 38.7199 41.7944 38.9524 41.7944 39.1874C41.7944 39.4224 41.8426 39.6549 41.936 39.8706C42.0294 40.0862 42.1661 40.2804 42.3375 40.4412C42.5089 40.6019 42.7114 40.7259 42.9326 40.8052C43.1538 40.8846 43.3889 40.9178 43.6235 40.9028H57.3769C57.6074 40.9179 57.8385 40.8863 58.0565 40.8101C58.2745 40.7339 58.4749 40.6145 58.6457 40.4591C58.8165 40.3037 58.9543 40.1155 59.0508 39.9057C59.1473 39.6959 59.2005 39.4688 59.2073 39.2379C59.214 39.0071 59.1742 38.7772 59.0902 38.5621C59.0062 38.347 58.8797 38.151 58.7182 37.9859C58.5568 37.8208 58.3637 37.6899 58.1506 37.601C57.9374 37.5121 57.7086 37.4671 57.4776 37.4686V37.4686ZM31.5955 41.0522V43.9106L29.494 42.5544L31.5955 41.0522ZM69.4049 41.0522L71.498 42.5477L69.4049 43.8922V41.0522ZM43.6235 44.342C43.1743 44.3521 42.7469 44.5376 42.4328 44.8588C42.1187 45.1801 41.9429 45.6115 41.9429 46.0608C41.9429 46.51 42.1187 46.9415 42.4328 47.2627C42.7469 47.5839 43.1743 47.7694 43.6235 47.7795H50.5002C50.7291 47.7847 50.9568 47.744 51.1698 47.6599C51.3829 47.5759 51.577 47.4501 51.7407 47.29C51.9045 47.1299 52.0346 46.9387 52.1234 46.7276C52.2122 46.5165 52.258 46.2898 52.258 46.0608C52.258 45.8317 52.2122 45.605 52.1234 45.394C52.0346 45.1829 51.9045 44.9917 51.7407 44.8315C51.577 44.6714 51.3829 44.5456 51.1698 44.4616C50.9568 44.3775 50.7291 44.3369 50.5002 44.342H43.6235ZM28.1563 45.7805L47.2691 58.124L28.1563 70.4121V45.7805ZM47.0627 71.8439C46.8369 71.8439 46.6134 71.8883 46.4049 71.9747C46.1964 72.0611 46.0069 72.1877 45.8473 72.3473C45.6877 72.5069 45.5611 72.6964 45.4747 72.9049C45.3884 73.1134 45.3439 73.3369 45.3439 73.5626C45.3439 73.7884 45.3884 74.0119 45.4747 74.2204C45.5611 74.4289 45.6877 74.6184 45.8473 74.778C46.0069 74.9376 46.1964 75.0642 46.4049 75.1506C46.6134 75.2369 46.8369 75.2814 47.0627 75.2814C47.2884 75.2814 47.5119 75.2369 47.7204 75.1506C47.9289 75.0642 48.1184 74.9376 48.278 74.778C48.4376 74.6184 48.5642 74.4289 48.6506 74.2204C48.737 74.0119 48.7814 73.7884 48.7814 73.5626C48.7814 73.3369 48.737 73.1134 48.6506 72.9049C48.5642 72.6964 48.4376 72.5069 48.278 72.3473C48.1184 72.1877 47.9289 72.0611 47.7204 71.9747C47.5119 71.8883 47.2884 71.8439 47.0627 71.8439Z" fill="#009FE3"/>
</svg>
