<svg width="540" height="393" viewBox="0 0 540 393" fill="none" xmlns="http://www.w3.org/2000/svg">
<path d="M272.035 393C419.955 393 540 304.992 540 196.5C540 88.0077 419.955 0 272.035 0C124.115 0 0 88.0077 0 196.5C0 304.992 123.911 393 272.035 393Z" fill="black"/>
<path d="M314.324 130.714C355.221 89.1756 416.871 74.7606 451.053 87.6582C475.876 96.9522 490.526 119.144 492.56 142.473C496.223 185.908 466.72 228.584 423.789 248.69C404.866 257.604 377.398 253.431 358.273 237.689C349.32 230.291 336.705 209.048 341.995 190.271C311.272 211.704 315.952 254.38 336.095 277.709C362.545 308.057 413.208 299.711 446.78 278.847C447.798 278.278 441.897 287.193 439.456 290.038C410.36 323.42 375.771 341.629 334.467 332.904C290.925 323.8 273.834 269.554 289.704 233.326C313.51 164.475 363.156 152.716 381.468 150.25C386.554 149.491 401.407 150.44 398.966 153.095C386.147 167.51 393.676 186.098 408.732 188.943C448.815 196.34 474.655 147.595 457.971 116.868C442.711 88.417 393.676 94.2968 368.242 110.04C343.013 125.782 306.796 154.423 284.821 193.495C271.596 213.221 247.383 264.812 230.292 334.611H137.104C157.451 307.488 180.85 276.951 198.348 233.326C243.924 123.886 168.845 94.6761 135.884 107.384C105.16 121.041 101.905 162.389 126.728 184.581C136.698 193.495 155.01 195.771 166.404 190.84C174.339 187.236 181.053 177.373 179.426 161.63C197.941 177.373 191.43 208.479 168.845 219.48C122.048 242.241 72.1987 218.911 56.1248 185.15C45.9515 163.717 46.3584 139.818 59.3803 118.006C75.4541 91.0724 108.009 76.278 139.343 74.3813C181.053 71.9155 235.582 108.332 233.344 166.941C260.812 107.953 271.799 52 271.799 52H367.225C367.225 52 352.169 64.3286 314.324 130.714Z" fill="white"/>
</svg>
