<svg width="29" height="29" viewBox="0 0 29 29" fill="none" xmlns="http://www.w3.org/2000/svg">
<path d="M14.4996 27.0651C16.141 27.0678 17.7668 26.7463 19.2837 26.1191C20.8005 25.4919 22.1785 24.5713 23.3386 23.4101C28.2126 18.5361 28.2126 10.6061 23.3386 5.73207C20.9776 3.37107 17.8386 2.07007 14.4996 2.07007C11.1606 2.07007 8.02164 3.37007 5.66064 5.73207C0.786639 10.6061 0.786639 18.5361 5.66064 23.4101C6.82075 24.5713 8.19877 25.4919 9.71561 26.1191C11.2325 26.7463 12.8582 27.0678 14.4996 27.0651V27.0651ZM14.4996 4.07007C17.3046 4.07007 19.9406 5.16207 21.9246 7.14607C23.9086 9.13007 24.9996 11.7661 24.9996 14.5711C24.9996 17.3761 23.9076 20.0121 21.9246 21.9961C17.8296 26.0891 11.1676 26.0891 7.07464 21.9961C5.09164 20.0121 3.99964 17.3751 3.99964 14.5711C3.99964 11.7671 5.09164 9.13007 7.07464 7.14607C9.05764 5.16207 11.6946 4.07007 14.4996 4.07007Z" fill="#009FE3"/>
<path d="M16.7976 20.1669C16.9956 20.1674 17.1892 20.109 17.3539 19.9992C17.5187 19.8894 17.647 19.7331 17.7228 19.5502C17.7985 19.3673 17.8183 19.166 17.7794 18.9719C17.7406 18.7778 17.6449 18.5996 17.5046 18.4599L13.6156 14.5709L17.5046 10.6819C17.5975 10.5891 17.6711 10.4789 17.7214 10.3576C17.7716 10.2363 17.7975 10.1062 17.7975 9.97495C17.7975 9.84364 17.7716 9.71363 17.7214 9.59232C17.6711 9.47101 17.5975 9.36079 17.5046 9.26795C17.4118 9.1751 17.3016 9.10145 17.1802 9.05121C17.0589 9.00096 16.9289 8.9751 16.7976 8.9751C16.6663 8.9751 16.5363 9.00096 16.415 9.05121C16.2937 9.10145 16.1835 9.1751 16.0906 9.26795L11.4946 13.8639C11.4017 13.9567 11.3279 14.0669 11.2776 14.1883C11.2273 14.3096 11.2014 14.4396 11.2014 14.5709C11.2014 14.7023 11.2273 14.8323 11.2776 14.9536C11.3279 15.075 11.4017 15.1852 11.4946 15.2779L16.0906 19.8739C16.1834 19.9669 16.2936 20.0407 16.4149 20.091C16.5362 20.1413 16.6663 20.1671 16.7976 20.1669V20.1669Z" fill="#009FE3"/>
</svg>
