<svg width="29" height="29" viewBox="0 0 29 29" fill="none" xmlns="http://www.w3.org/2000/svg">
<path d="M14.5004 27.0651C12.859 27.0678 11.2332 26.7463 9.71633 26.1191C8.19949 25.4919 6.82147 24.5713 5.66136 23.4101C0.787359 18.5361 0.787359 10.6061 5.66136 5.73207C8.02236 3.37107 11.1614 2.07007 14.5004 2.07007C17.8394 2.07007 20.9784 3.37007 23.3394 5.73207C28.2134 10.6061 28.2134 18.5361 23.3394 23.4101C22.1793 24.5713 20.8012 25.4919 19.2844 26.1191C17.7675 26.7463 16.1418 27.0678 14.5004 27.0651V27.0651ZM14.5004 4.07007C11.6954 4.07007 9.05936 5.16207 7.07536 7.14607C5.09136 9.13007 4.00036 11.7661 4.00036 14.5711C4.00036 17.3761 5.09236 20.0121 7.07536 21.9961C11.1704 26.0891 17.8324 26.0891 21.9254 21.9961C23.9084 20.0121 25.0004 17.3751 25.0004 14.5711C25.0004 11.7671 23.9084 9.13007 21.9254 7.14607C19.9424 5.16207 17.3054 4.07007 14.5004 4.07007Z" fill="#009FE3"/>
<path d="M12.2024 20.1669C12.0044 20.1674 11.8108 20.109 11.6461 19.9992C11.4813 19.8894 11.353 19.7331 11.2772 19.5502C11.2015 19.3673 11.1817 19.166 11.2206 18.9719C11.2594 18.7778 11.3551 18.5996 11.4954 18.4599L15.3844 14.5709L11.4954 10.6819C11.4025 10.5891 11.3289 10.4789 11.2786 10.3576C11.2284 10.2363 11.2025 10.1062 11.2025 9.97495C11.2025 9.84364 11.2284 9.71363 11.2786 9.59232C11.3289 9.47101 11.4025 9.36079 11.4954 9.26795C11.5882 9.1751 11.6984 9.10145 11.8198 9.05121C11.9411 9.00096 12.0711 8.9751 12.2024 8.9751C12.3337 8.9751 12.4637 9.00096 12.585 9.05121C12.7063 9.10145 12.8165 9.1751 12.9094 9.26795L17.5054 13.8639C17.5983 13.9567 17.6721 14.0669 17.7224 14.1883C17.7727 14.3096 17.7986 14.4396 17.7986 14.5709C17.7986 14.7023 17.7727 14.8323 17.7224 14.9536C17.6721 15.075 17.5983 15.1852 17.5054 15.2779L12.9094 19.8739C12.8166 19.9669 12.7064 20.0407 12.5851 20.091C12.4638 20.1413 12.3337 20.1671 12.2024 20.1669V20.1669Z" fill="#009FE3"/>
</svg>
