<svg width="36" height="42" viewBox="0 0 36 42" fill="none" xmlns="http://www.w3.org/2000/svg">
<path d="M23.625 0H12.375C11.7537 0 11.25 0.447715 11.25 1V5C11.25 5.55228 11.7537 6 12.375 6H23.625C24.2463 6 24.75 5.55228 24.75 5V1C24.75 0.447715 24.2463 0 23.625 0Z" fill="white"/>
<path d="M2.25 2C1.65381 2.00158 1.08255 2.2128 0.660976 2.58753C0.239404 2.96227 0.00178057 3.47005 0 4V40C0.00178057 40.5299 0.239404 41.0377 0.660976 41.4125C1.08255 41.7872 1.65381 41.9984 2.25 42H33.75C34.3462 41.9984 34.9175 41.7872 35.339 41.4125C35.7606 41.0377 35.9982 40.5299 36 40V4C35.9982 3.47005 35.7606 2.96227 35.339 2.58753C34.9175 2.2128 34.3462 2.00158 33.75 2H27V5C27 5.79565 26.6444 6.55871 26.0115 7.12132C25.3785 7.68393 24.5201 8 23.625 8H12.375C11.4799 8 10.6214 7.68393 9.98851 7.12132C9.35558 6.55871 9 5.79565 9 5V2H2.25ZM30.375 34H5.625C5.32663 34 5.04048 33.8946 4.8295 33.7071C4.61853 33.5196 4.5 33.2652 4.5 33C4.5 32.7348 4.61853 32.4804 4.8295 32.2929C5.04048 32.1054 5.32663 32 5.625 32H30.375C30.6734 32 30.9595 32.1054 31.1705 32.2929C31.3815 32.4804 31.5 32.7348 31.5 33C31.5 33.2652 31.3815 33.5196 31.1705 33.7071C30.9595 33.8946 30.6734 34 30.375 34ZM30.375 24H5.625C5.32663 24 5.04048 23.8946 4.8295 23.7071C4.61853 23.5196 4.5 23.2652 4.5 23C4.5 22.7348 4.61853 22.4804 4.8295 22.2929C5.04048 22.1054 5.32663 22 5.625 22H30.375C30.6734 22 30.9595 22.1054 31.1705 22.2929C31.3815 22.4804 31.5 22.7348 31.5 23C31.5 23.2652 31.3815 23.5196 31.1705 23.7071C30.9595 23.8946 30.6734 24 30.375 24ZM30.375 12C30.6734 12 30.9595 12.1054 31.1705 12.2929C31.3815 12.4804 31.5 12.7348 31.5 13C31.5 13.2652 31.3815 13.5196 31.1705 13.7071C30.9595 13.8946 30.6734 14 30.375 14H5.625C5.32663 14 5.04048 13.8946 4.8295 13.7071C4.61853 13.5196 4.5 13.2652 4.5 13C4.5 12.7348 4.61853 12.4804 4.8295 12.2929C5.04048 12.1054 5.32663 12 5.625 12H30.375Z" fill="white"/>
</svg>
