<svg width="43" height="43" viewBox="0 0 43 43" fill="none" xmlns="http://www.w3.org/2000/svg">
<path d="M41.5488 2.17688C41.4124 1.84853 41.1515 1.58761 40.8231 1.45125C40.6616 1.38239 40.4881 1.34587 40.3125 1.34375H37.625C37.2686 1.34375 36.9268 1.48532 36.6748 1.73733C36.4228 1.98933 36.2812 2.33112 36.2812 2.6875C36.2841 2.96136 36.3706 3.22781 36.5291 3.45116C36.6876 3.6745 36.9106 3.84408 37.1681 3.93719L36.7381 4.35375L26.7272 11.8653L16.7297 6.86656C16.5149 6.76646 16.2775 6.72492 16.0415 6.74616C15.8055 6.7674 15.5794 6.85066 15.3859 6.9875L4.63594 15.05C4.49477 15.1559 4.37583 15.2885 4.28593 15.4404C4.19602 15.5922 4.1369 15.7603 4.11194 15.935C4.08699 16.1097 4.09668 16.2876 4.14048 16.4585C4.18427 16.6294 4.26131 16.7901 4.36719 16.9313C4.48538 17.0894 4.63696 17.2195 4.81114 17.3124C4.98533 17.4053 5.17785 17.4587 5.375 17.4688C5.66575 17.4687 5.94865 17.3744 6.18125 17.2L16.2728 9.63469L26.2703 14.6334C26.4934 14.7466 26.7437 14.7953 26.993 14.7739C27.2423 14.7525 27.4806 14.662 27.6813 14.5125L38.4313 6.45L38.5791 6.32906L39.0628 5.83188C39.1559 6.08944 39.3255 6.31241 39.5488 6.47091C39.7722 6.62942 40.0386 6.71589 40.3125 6.71875C40.6689 6.71875 41.0107 6.57718 41.2627 6.32517C41.5147 6.07317 41.6562 5.73138 41.6562 5.375V2.6875C41.6541 2.5119 41.6176 2.33842 41.5488 2.17688V2.17688ZM5.375 20.1562C4.30585 20.1562 3.28048 20.581 2.52448 21.337C1.76847 22.093 1.34375 23.1183 1.34375 24.1875V37.625C1.34375 38.6942 1.76847 39.7195 2.52448 40.4755C3.28048 41.2315 4.30585 41.6562 5.375 41.6562C6.44415 41.6562 7.46952 41.2315 8.22552 40.4755C8.98153 39.7195 9.40625 38.6942 9.40625 37.625V24.1875C9.40625 23.1183 8.98153 22.093 8.22552 21.337C7.46952 20.581 6.44415 20.1562 5.375 20.1562Z" fill="#009FE3"/>
<path d="M16.125 13.4375C15.0558 13.4375 14.0305 13.8622 13.2745 14.6182C12.5185 15.3742 12.0938 16.3996 12.0938 17.4688V37.625C12.0938 38.6942 12.5185 39.7195 13.2745 40.4755C14.0305 41.2315 15.0558 41.6562 16.125 41.6562C17.1942 41.6562 18.2195 41.2315 18.9755 40.4755C19.7315 39.7195 20.1562 38.6942 20.1562 37.625V17.4688C20.1562 16.3996 19.7315 15.3742 18.9755 14.6182C18.2195 13.8622 17.1942 13.4375 16.125 13.4375ZM26.875 17.4688C25.8058 17.4688 24.7805 17.8935 24.0245 18.6495C23.2685 19.4055 22.8438 20.4308 22.8438 21.5V37.625C22.8438 38.6942 23.2685 39.7195 24.0245 40.4755C24.7805 41.2315 25.8058 41.6562 26.875 41.6562C27.9442 41.6562 28.9695 41.2315 29.7255 40.4755C30.4815 39.7195 30.9062 38.6942 30.9062 37.625V21.5C30.9062 20.4308 30.4815 19.4055 29.7255 18.6495C28.9695 17.8935 27.9442 17.4688 26.875 17.4688ZM37.625 12.0938C36.5558 12.0938 35.5305 12.5185 34.7745 13.2745C34.0185 14.0305 33.5938 15.0558 33.5938 16.125V37.625C33.5938 38.6942 34.0185 39.7195 34.7745 40.4755C35.5305 41.2315 36.5558 41.6562 37.625 41.6562C38.6942 41.6562 39.7195 41.2315 40.4755 40.4755C41.2315 39.7195 41.6562 38.6942 41.6562 37.625V16.125C41.6562 15.0558 41.2315 14.0305 40.4755 13.2745C39.7195 12.5185 38.6942 12.0938 37.625 12.0938V12.0938Z" fill="#009FE3"/>
</svg>
