<svg width="43" height="43" viewBox="0 0 43 43" fill="none" xmlns="http://www.w3.org/2000/svg">
<path d="M36.1612 0.00014727C36.1265 -0.000458994 36.0918 0.000806886 36.0573 0.00393933C36.0377 0.00586681 36.0181 0.00839533 35.9986 0.0115211C35.9986 0.0115211 32.3478 0.52617 29.3348 1.90376C28.2361 2.40614 27.1827 3.01777 26.4357 3.87184C25.6909 3.01777 24.6411 2.40614 23.5423 1.90376C20.5294 0.526169 16.8709 0.0115211 16.8709 0.0115211C16.839 0.00674807 16.8068 0.00358249 16.7746 0.00203659C16.7424 0.00106102 16.7103 0.00169283 16.6782 0.00392961C16.5436 0.0109486 16.4119 0.0460936 16.2917 0.107113C16.1714 0.168132 16.0652 0.253681 15.9798 0.358278C15.8944 0.462875 15.8317 0.584215 15.7958 0.714524C15.7598 0.844833 15.7514 0.981239 15.771 1.115C15.771 1.115 16.284 4.78531 17.6572 7.80798C18.3437 9.31932 19.2288 10.7451 20.6716 11.4048C21.3929 11.7346 22.2561 11.8147 23.1058 11.5564C23.8924 11.3173 24.6623 10.8167 25.4417 10.0737V12.7111C23.9251 12.9627 22.5936 13.7777 21.5995 14.8385C20.3989 16.1196 19.634 17.7622 19.634 19.4174C19.634 19.4639 19.6418 19.5078 19.6437 19.5539H20.7417H24.4705C26.1522 19.5539 27.5597 20.7615 28.0065 22.3297L33.166 19.5804C33.1679 19.5255 33.1773 19.473 33.1773 19.4174C33.1773 17.7623 32.4219 16.1196 31.2212 14.8385C30.2283 13.7789 28.8949 12.9656 27.3791 12.713V10.0263C28.1758 10.797 28.9602 11.3121 29.7641 11.5564C30.6138 11.8147 31.4864 11.7346 32.2078 11.4048C33.6505 10.7451 34.5356 9.31933 35.2222 7.80799C36.5953 4.78532 37.1007 1.11501 37.1007 1.11501C37.1212 0.97836 37.1123 0.838902 37.0747 0.705961C37.0372 0.57302 36.9717 0.449659 36.8828 0.344123C36.7939 0.238588 36.6836 0.15331 36.5592 0.093991C36.4348 0.0346717 36.2992 0.00267754 36.1614 0.00014727H36.1612ZM22.2629 5.14976L25.4417 8.33699V8.82616L24.3134 9.95809L20.8927 6.52628L22.2629 5.14976ZM30.6144 5.14976L31.9789 6.52628L28.5563 9.95809L27.3789 8.77118V8.39387L30.6144 5.14976ZM40.1074 18.3063C39.417 18.3474 38.7999 18.5982 38.2496 18.9149L28.0422 24.7907C27.4557 26.1922 26.0722 27.1854 24.4703 27.1854H18.6664V25.2439H24.4703C25.5592 25.2439 26.4074 24.3928 26.4074 23.3004C26.4074 22.208 25.5592 21.3589 24.4703 21.3589H20.7415H17.6988H14.9357C14.6808 21.361 14.437 21.4639 14.2573 21.6452L8.30973 27.612C8.61936 27.804 8.91576 28.0228 9.18286 28.2908L14.6617 33.7874C14.8089 33.935 14.9401 34.0925 15.0642 34.2538L16.3059 33.0119H22.6919H30.4216C30.6522 33.0104 30.8747 32.9264 31.0491 32.7749L42.0993 23.236C42.1187 23.2228 42.1376 23.2089 42.156 23.1943C43.2813 22.0653 43.2813 20.2032 42.156 19.0742C41.5854 18.5017 40.7978 18.2652 40.1074 18.3063V18.3063ZM5.75269 28.8255C5.00723 28.8255 4.26104 29.1066 3.69836 29.6711L0.285198 33.1048C0.194811 33.195 0.123092 33.3023 0.0741492 33.4204C0.0252062 33.5385 0 33.6652 0 33.7931C0 33.921 0.0252062 34.0476 0.0741492 34.1657C0.123092 34.2839 0.194811 34.3911 0.285198 34.4813L8.49116 42.7139C8.58109 42.8046 8.68798 42.8765 8.80571 42.9256C8.92344 42.9747 9.0497 43 9.1772 43C9.30469 43 9.43095 42.9747 9.54868 42.9256C9.66641 42.8765 9.7733 42.8046 9.86323 42.7139L13.2858 39.2897C14.4111 38.1607 14.4112 36.2967 13.2858 35.1677L7.80701 29.6711C7.24434 29.1066 6.49815 28.8255 5.75269 28.8255V28.8255Z" fill="#009FE3"/>
</svg>
