<svg width="43" height="40" viewBox="0 0 43 40" fill="none" xmlns="http://www.w3.org/2000/svg">
<path d="M23.2761 21.8166C26.2446 21.8166 28.651 24.2585 28.651 27.2707L28.6482 29.9918C29.0168 36.6698 23.9482 40 14.5488 40C5.17968 40 0 36.7133 0 30.0871V27.2707C0 24.2585 2.40642 21.8166 5.3749 21.8166H23.2761ZM37.6114 21.8166C40.5798 21.8166 42.9863 24.2585 42.9863 27.2707L42.9836 29.1854C43.3075 35.1757 38.8289 38.179 30.6426 38.179C29.5314 38.179 28.4867 38.1241 27.5111 38.0141C29.4343 36.212 30.463 33.7665 30.4595 30.6762L30.4371 29.8902L30.4427 27.2707C30.4427 25.0979 29.5036 23.1476 28.0148 21.8151L37.6114 21.8166ZM14.3331 0C19.2813 0 23.2927 4.0705 23.2927 9.09171C23.2927 14.1129 19.2813 18.1834 14.3331 18.1834C9.38481 18.1834 5.37345 14.1129 5.37345 9.09171C5.37345 4.0705 9.38481 0 14.3331 0ZM32.2494 3.6361C36.2074 3.6361 39.4159 6.89197 39.4159 10.9083C39.4159 14.9246 36.2074 18.1805 32.2494 18.1805C28.2914 18.1805 25.0829 14.9246 25.0829 10.9083C25.0829 6.89197 28.2914 3.6361 32.2494 3.6361Z" fill="white"/>
</svg>
