<svg width="148" height="37" viewBox="0 0 148 37" fill="none" xmlns="http://www.w3.org/2000/svg">
<path d="M107.876 5.5603H105.043V20.1723H107.876V5.5603Z" fill="white"/>
<path d="M89.1263 11.1723H86.8325V5.5603H83.9827V24.8634H86.8325V13.5005H89.1263V11.1723Z" fill="white"/>
<path d="M107.893 22.205H92.9144V31.4829H107.893V22.205ZM105.061 29.1548H95.7294V24.5331H105.061V29.1548Z" fill="white"/>
<path d="M91.1941 5.5603V7.88848H99.1874C99.17 8.63559 99.0831 9.78231 98.7356 11.0333H91.1941V13.3615H97.7277C96.5287 15.3595 94.3566 17.2186 90.4121 17.8267L91.2114 20.068C100.004 19.0255 102.194 12.0757 102.194 5.5603H91.1941V5.5603Z" fill="white"/>
<path d="M147.46 5.5603H144.628V31.5005H147.46V5.5603Z" fill="white"/>
<path d="M124.783 5.5601V9.69523H121.134V5.5601H118.319V9.69523H113.506V5.5601H110.656V18.2435H121.134V12.006H124.783V18.2435H127.616V5.54272H125.044L124.783 5.5601ZM118.319 11.9887V15.8979H113.506V11.9887H118.319Z" fill="white"/>
<path d="M66.8667 21.1624H50.046V23.4905H52.8089V31.4828H55.6413V23.4905H61.2366V31.4828H64.1038V23.4905H66.8667V21.1624Z" fill="white"/>
<path d="M86.5023 29.1547H74.1127V23.8555H71.2629V31.4829H71.2803H86.5023V29.1547Z" fill="white"/>
<path d="M127.616 20.1198H112.637V22.4479H124.801V24.6198H112.637V31.4827H127.616V29.1545H115.469V26.9479H127.616V20.1198Z" fill="white"/>
<path d="M141.413 5.5603H130.448V7.87112H138.58V14.6645H130.448V26.9831H140.353C140.353 26.9831 141.865 26.931 142.23 26.8788C144.141 26.6008 145.357 25.5931 145.357 25.5931L145.323 22.8827C145.323 22.8827 143.967 24.2205 141.847 24.6028C141.587 24.6549 140.301 24.6375 140.301 24.6375H133.281V16.9927H141.413V5.5603V5.5603Z" fill="white"/>
<path d="M81.6195 16.9927C81.6195 20.1549 78.874 22.7089 75.4681 22.7089C72.0623 22.7089 69.3168 20.1549 69.3168 16.9927C69.3168 13.8479 72.0797 11.2765 75.4681 11.2765C78.874 11.2765 81.6195 13.8479 81.6195 16.9927ZM75.4855 13.5352C73.4351 13.5352 71.7669 15.0815 71.7669 16.9927C71.7669 18.9039 73.4351 20.4502 75.4855 20.4502C77.536 20.4502 79.2041 18.9039 79.2041 16.9927C79.2041 15.0815 77.536 13.5352 75.4855 13.5352Z" fill="white"/>
<path d="M65.9978 12.3709C65.9978 16.2976 62.6441 19.4771 58.4911 19.4771C54.3554 19.4771 50.9843 16.2976 50.9843 12.3709C50.9843 8.4443 54.338 5.26477 58.4911 5.26477C62.6441 5.26477 65.9978 8.4443 65.9978 12.3709ZM58.4911 7.97519C55.9367 7.97519 53.8515 9.93851 53.8515 12.3709C53.8515 14.8034 55.9193 16.7667 58.4911 16.7667C61.0454 16.7667 63.1307 14.8034 63.1307 12.3709C63.1307 9.95588 61.0454 7.97519 58.4911 7.97519Z" fill="white"/>
<path d="M23.3553 36.73C35.9882 36.73 46.2405 28.6682 46.2405 18.73C46.2405 8.79176 35.9882 0.72998 23.3553 0.72998C10.7224 0.72998 0.139975 8.79176 0.139975 18.73C0.122598 28.6682 10.705 36.73 23.3553 36.73Z" fill="white"/>
<path d="M26.9001 12.7704C30.3929 8.96537 35.658 7.6449 38.5773 8.82637C40.6973 9.67772 41.9484 11.7105 42.1048 13.8476C42.4176 17.8264 39.8979 21.7356 36.2314 23.5773C34.6154 24.3939 32.2696 24.0117 30.6361 22.5696C29.8716 21.892 28.7942 19.9461 29.246 18.226C26.6221 20.1893 27.0218 24.0986 28.7421 26.2356C31.0011 29.0156 35.3279 28.2511 38.195 26.3399C38.2819 26.2878 37.7954 27.1044 37.5695 27.365C35.0846 30.4229 32.1305 32.0908 28.6031 31.2916C24.8844 30.4576 23.4248 25.4885 24.7802 22.17C26.8133 15.863 31.0532 14.7858 32.6171 14.5773C33.0515 14.5078 34.32 14.5773 34.1115 14.838C33.0168 16.141 33.6597 17.8611 34.9456 18.1217C38.3688 18.8167 40.5756 14.3341 39.1507 11.5194C37.8475 8.91325 33.6597 9.45186 31.4876 10.8939C29.3329 12.336 26.2398 14.9596 24.3631 18.5387C23.2336 20.3457 21.1658 25.0715 19.7062 31.4654H11.7476C13.4853 28.9808 15.4836 26.1835 16.978 22.1874C20.8704 12.1623 14.4584 9.48661 11.6434 10.6507C9.01948 11.919 8.74145 15.6893 10.8614 17.7221C11.7129 18.5387 13.2768 18.7472 14.2499 18.2955C14.9276 17.9654 15.501 17.0619 15.362 15.6198C16.9433 17.0619 16.3872 19.9113 14.4584 20.919C10.4618 23.004 6.20445 20.8669 4.83169 17.7742C3.96285 15.8109 3.9976 13.6217 5.10972 11.6237C6.48248 9.15649 9.26276 7.80128 11.9388 7.62754C15.501 7.40167 20.158 10.7376 19.9668 16.1063C22.3127 10.7028 23.2337 5.57734 23.2337 5.57734H31.3833C31.4181 5.55997 30.1322 6.68931 26.9001 12.7704Z" fill="#2E2E2E"/>
<path d="M78.7524 5.5603H72.184V7.52362H78.7524V5.5603Z" fill="white"/>
<path d="M81.5325 8.28784H69.2993V10.616H81.5325V8.28784Z" fill="white"/>
</svg>
