<svg width="525" height="455" viewBox="0 0 525 455" fill="none" xmlns="http://www.w3.org/2000/svg">
<path d="M442.57 17.7771C397.496 -7.40693 325.15 -9.82093 254.74 56.0861C172.263 -21.3519 85.5498 -7.78893 38.8198 38.8051C-7.91818 85.3991 -21.6722 172.035 55.6248 254.505C49.4529 263.318 46.91 274.169 48.5232 284.81C50.1365 295.451 55.7849 305.056 64.2962 311.642C72.8079 318.228 83.5262 321.283 94.2302 320.173C92.5818 333.071 97.0075 346.005 106.21 355.189C115.417 364.373 128.358 368.771 141.253 367.091C139.851 380.509 145.003 393.775 155.089 402.732C165.175 411.689 178.96 415.232 192.116 412.252C192.015 422.592 195.745 432.604 202.589 440.357C209.429 448.111 218.898 453.06 229.171 454.248C239.444 455.435 249.792 452.783 258.222 446.795C258.625 446.513 259 446.201 259.351 445.861L345.496 361.256C356.613 362.35 367.676 358.74 376.008 351.303C384.34 343.865 389.176 333.276 389.344 322.108C401.125 324.647 413.422 321.717 422.797 314.139C432.172 306.565 437.617 295.155 437.609 283.1C437.609 281.979 437.34 280.92 437.25 279.827V279.831C438.847 280.022 440.453 280.124 442.062 280.128C453.449 280.311 464.355 275.534 471.941 267.034C479.523 258.534 483.035 247.155 481.558 235.862C482.555 235.932 483.535 236.065 484.535 236.065V236.061C495.117 236.092 505.281 231.92 512.789 224.459C520.277 216.955 524.48 206.783 524.48 196.182C524.48 185.58 520.277 175.412 512.789 167.909L505.148 160.288C511.309 132.964 508.555 104.39 497.297 78.7447C486.035 53.0997 466.856 31.7367 442.57 17.7837V17.7771ZM247.05 432.207C240.882 436.203 233.21 437.102 226.284 434.641C219.362 432.176 213.979 426.633 211.722 419.641C209.464 412.648 210.589 405.004 214.761 398.957L214.804 398.879L274.769 338.906C278.347 335.327 278.347 329.527 274.769 325.949C271.191 322.37 265.39 322.37 261.812 325.949L200.859 386.902C200.808 386.952 200.726 386.987 200.667 387.05L199.679 388.046H199.675C193.769 394.105 185.073 396.554 176.87 394.464C168.667 392.378 162.202 386.07 159.909 377.925C157.616 369.777 159.843 361.023 165.753 354.964C165.804 354.913 165.823 354.831 165.866 354.78C165.909 354.73 166.085 354.667 166.171 354.577L226.765 293.413L226.769 293.417C230.163 289.792 230.058 284.128 226.531 280.632C223.007 277.136 217.339 277.081 213.746 280.511L153.152 341.675C153.074 341.753 153.046 341.867 152.968 341.945C152.89 342.023 152.734 342.078 152.636 342.171C146.667 348.16 137.952 350.507 129.784 348.327C121.612 346.152 115.222 339.781 113.022 331.616C110.823 323.452 113.143 314.733 119.116 308.745C119.178 308.683 119.194 308.605 119.256 308.535C119.319 308.464 119.413 308.456 119.483 308.386L181.249 246.62C184.655 243.011 184.573 237.347 181.065 233.839C177.554 230.331 171.89 230.253 168.28 233.663L106.542 295.413L106.464 295.527C106.421 295.57 106.359 295.577 106.316 295.624V295.62C100.257 301.519 91.5109 303.734 83.3749 301.437C75.2382 299.14 68.9489 292.675 66.8709 284.48C64.7928 276.284 67.242 267.601 73.3006 261.707L125.801 209.207C129.211 205.601 129.133 199.933 125.625 196.426C122.117 192.914 116.453 192.832 112.844 196.238L68.2188 240.863C0.378822 167.609 11.3868 92.0532 51.7578 51.7832C93.4608 10.2012 172.758 -0.216766 248.528 75.5412L288.673 111.479C269.372 124.081 241.423 123.276 226.294 108.155C221.849 102.905 214.431 96.428 207.919 102.546L164.388 144.702L164.392 144.698C160.958 148.256 160.962 153.889 164.396 157.444C167.829 160.995 173.462 161.186 177.13 157.877L214.232 121.939C238.783 145.373 283.673 143.814 309.22 118.271V118.275C311.001 116.49 311.97 114.056 311.899 111.537C311.829 109.017 310.727 106.639 308.852 104.955L268.129 68.4709C331.129 10.1159 394.469 11.8769 433.649 33.7759C452.903 44.5419 468.489 60.8309 478.399 80.5379C488.31 100.249 492.087 122.476 489.247 144.35L451.235 106.409C443.728 98.948 433.571 94.7609 422.985 94.7609C412.403 94.7609 402.247 98.9484 394.739 106.409C388.478 112.858 384.485 121.171 383.364 130.089C374.454 126.87 364.696 126.894 355.805 130.159C346.915 133.425 339.461 139.722 334.754 147.94C330.047 156.159 328.391 165.776 330.075 175.096C330.739 177.335 331.196 179.655 331.981 181.85V181.854C319.501 183.315 308.419 190.526 302.02 201.346C295.625 212.166 294.653 225.354 299.387 236.994C288.391 238.545 278.52 244.56 272.106 253.627C265.696 262.693 263.305 274.006 265.508 284.893C267.079 292.475 270.84 299.428 276.324 304.893C278.461 306.819 325.683 354.944 326.504 354.233L247.05 432.207ZM364.75 336.832C360.676 340.848 355.183 343.098 349.465 343.098C343.746 343.098 338.254 340.848 334.18 336.832L289.266 291.918C284.106 286.625 282.016 279.059 283.723 271.867C285.426 264.676 290.692 258.855 297.68 256.441C304.664 254.027 312.403 255.351 318.184 259.957L366.457 308.25V308.246C369.703 312.406 371.32 317.605 371.004 322.871C370.691 328.136 368.469 333.109 364.75 336.851V336.832ZM412.973 298.332C408.543 302.664 402.489 304.93 396.305 304.563C390.117 304.199 384.375 301.242 380.485 296.418C380.399 296.313 320.887 236.742 320.887 236.742C315.52 231.281 313.449 223.379 315.453 215.984C317.457 208.593 323.234 202.82 330.625 200.816C338.02 198.816 345.922 200.886 351.383 206.257C350.508 205.636 423.133 276.73 417.149 273.753H417.145C419.083 277.781 419.72 282.312 418.97 286.714C418.223 291.121 416.13 295.187 412.973 298.351L412.973 298.332ZM457.246 255.457C453.965 258.695 449.734 260.805 445.176 261.484C440.613 262.16 435.957 261.371 431.871 259.23C429.777 258.156 427.867 256.746 426.23 255.055L353.98 182.746C348.508 177.285 346.367 169.32 348.363 161.851C350.355 154.382 356.183 148.546 363.648 146.539C371.113 144.531 379.082 146.66 384.55 152.121C384.55 152.121 459.503 227.598 459.898 228.168C462.671 232.324 463.921 237.312 463.437 242.285C462.953 247.257 460.765 251.914 457.246 255.457L457.246 255.457ZM499.867 211.461V211.465C496.359 214.93 491.777 217.098 486.871 217.617C481.965 218.137 477.031 216.973 472.875 214.316C472.43 214.047 405.414 147.109 405.414 147.109V147.106C401.301 141.164 400.429 133.559 403.101 126.844C405.769 120.125 411.621 115.192 418.691 113.692C425.762 112.192 433.113 114.332 438.277 119.387L499.879 180.891C503.887 184.969 506.133 190.461 506.133 196.18C506.129 201.899 503.883 207.387 499.868 211.465L499.867 211.461Z" fill="black"/>
<path d="M61.7597 101.56C62.7206 99.3101 62.7402 96.7671 61.8144 94.4976C60.8925 92.232 59.0956 90.4312 56.8339 89.4937C54.5722 88.5601 52.0292 88.5679 49.7714 89.5211C47.5175 90.4703 45.7362 92.2866 44.8261 94.5601C30.6071 128.869 37.1269 168.505 63.2911 206.17C65.0059 208.639 67.8263 210.112 70.8302 210.108C72.7091 210.119 74.545 209.549 76.0802 208.471C80.2404 205.584 81.2677 199.873 78.3849 195.713C55.9049 163.365 50.0059 129.932 61.7599 101.565L61.7597 101.56Z" fill="black"/>
<path d="M79.9898 69.01C79.9898 74.0764 75.8843 78.1819 70.8179 78.1819C65.7554 78.1819 61.6499 74.0764 61.6499 69.01C61.6499 63.9475 65.7554 59.842 70.8179 59.842C75.8843 59.842 79.9898 63.9475 79.9898 69.01" fill="black"/>
<path d="M154.66 177.38C154.66 182.443 150.554 186.548 145.488 186.548C140.425 186.548 136.32 182.443 136.32 177.38C136.32 172.314 140.425 168.208 145.488 168.208C150.554 168.208 154.66 172.314 154.66 177.38Z" fill="black"/>
</svg>
