<svg width="64" height="64" viewBox="0 0 64 64" fill="none" xmlns="http://www.w3.org/2000/svg">
<path d="M42.6078 20.3621C42.2361 21.0405 42.3471 21.8859 42.9062 22.4191C45.9294 25.3029 47.8158 29.3655 47.8158 33.8629C47.8158 41.7509 42.0124 48.3067 34.4524 49.4875L29.8524 49.5325C22.1447 48.4808 16.1846 41.8544 16.1846 33.8627C16.1846 29.3647 18.0716 25.3021 21.0947 22.4189C21.6513 21.8874 21.7678 21.0442 21.3966 20.3695C20.3956 18.5456 19.8483 16.4379 19.9158 14.1994C20.1151 7.62866 25.6266 2.37586 32.1996 2.48306C38.7732 2.58946 44.0905 7.9717 44.0905 14.5707C44.0903 16.6688 43.5516 18.6416 42.6078 20.3621Z" fill="#3EC3A4"/>
<path d="M38.3763 36.0323L34.4558 39.9992V41.7986C34.4558 41.8259 34.4558 41.8493 34.4515 41.8768V61.5184H29.855V39.2637L29.8389 39.2515V25.1933C29.8389 23.9022 30.8541 22.8867 32.1451 22.8867C33.4365 22.8867 34.4557 23.9021 34.4557 25.1933V33.4502L35.1445 32.805C36.0222 31.88 37.4941 31.88 38.3761 32.805C39.2968 33.6789 39.2968 35.1547 38.3763 36.0323Z" fill="#9BE69D"/>
</svg>
