<svg width="413" height="413" viewBox="0 0 413 413" fill="none" xmlns="http://www.w3.org/2000/svg">
<path d="M300.582 340.684C301.378 340.961 302.216 341.1 303.06 341.097C304.839 341.101 306.562 340.475 307.923 339.329C309.284 338.182 310.194 336.59 310.491 334.836C310.789 333.082 310.454 331.279 309.547 329.748C308.64 328.217 307.219 327.058 305.538 326.476C284.888 319.249 273.489 300.87 273.489 274.727C273.489 243.794 311.774 208.193 325.279 196.629C338.66 208.193 377.069 243.67 377.069 274.727C377.069 300.333 366.083 318.588 346.094 326.105C345.169 326.452 344.322 326.978 343.601 327.652C342.879 328.327 342.298 329.137 341.889 330.036C341.481 330.935 341.253 331.906 341.22 332.894C341.187 333.881 341.349 334.865 341.696 335.79C342.043 336.714 342.569 337.562 343.243 338.283C343.918 339.005 344.728 339.586 345.627 339.995C346.526 340.403 347.497 340.63 348.485 340.663C349.472 340.697 350.456 340.535 351.381 340.188C377.276 330.441 392.102 306.57 392.102 274.727C392.102 230.041 332.465 182.918 329.905 180.935L325.279 177.301L320.653 180.935C318.01 182.918 258.456 230.041 258.456 274.727C258.456 307.272 273.819 331.308 300.582 340.684Z" fill="white"/>
<path d="M109.197 326.27C110.175 326.548 111.2 326.625 112.208 326.496C113.217 326.367 114.188 326.035 115.065 325.519C115.941 325.004 116.704 324.316 117.307 323.497C117.91 322.678 118.34 321.746 118.572 320.756C118.805 319.766 118.833 318.739 118.657 317.738C118.481 316.737 118.104 315.781 117.548 314.93C116.992 314.079 116.269 313.349 115.423 312.785C114.577 312.222 113.625 311.835 112.625 311.65C63.8913 300.086 35.9311 260.727 35.9311 203.444C35.9311 138.024 120.224 63.6019 141.081 46.1733C161.979 63.6019 246.231 137.983 246.231 203.444C246.231 260.851 218.188 300.21 169.33 311.526C167.506 311.914 165.892 312.966 164.8 314.478C163.709 315.991 163.218 317.854 163.424 319.708C163.63 321.561 164.518 323.272 165.915 324.508C167.311 325.743 169.117 326.415 170.982 326.394C171.559 326.455 172.14 326.455 172.717 326.394C228.141 313.55 261.264 267.707 261.264 203.65C261.264 169.082 241.688 129.31 203.072 85.6148C185.521 65.6942 166.332 47.2788 145.707 30.5619L141.081 26.9275L136.29 30.5619C115.749 47.227 96.6299 65.5725 79.131 85.4083C40.4742 129.145 20.8979 168.876 20.8979 203.444C20.8979 267.376 53.8967 313.219 109.197 326.27Z" fill="white"/>
<path d="M325.279 386.073C327.272 386.073 329.184 385.281 330.594 383.871C332.003 382.461 332.795 380.549 332.795 378.556V316.606L357.245 292.156C357.944 291.459 358.5 290.631 358.88 289.72C359.259 288.808 359.456 287.831 359.458 286.843C359.46 285.856 359.267 284.877 358.891 283.964C358.515 283.051 357.962 282.221 357.265 281.522C356.569 280.822 355.741 280.266 354.829 279.887C353.917 279.507 352.94 279.311 351.952 279.309C350.965 279.307 349.987 279.499 349.073 279.876C348.16 280.252 347.33 280.804 346.631 281.501L332.795 295.336V262.296C332.795 260.303 332.003 258.391 330.594 256.981C329.184 255.572 327.272 254.78 325.279 254.78C323.285 254.78 321.373 255.572 319.964 256.981C318.554 258.391 317.762 260.303 317.762 262.296V295.336L303.926 281.501C302.524 280.082 300.616 279.279 298.622 279.267C296.628 279.256 294.71 280.037 293.292 281.439C291.873 282.841 291.07 284.749 291.058 286.743C291.047 288.738 291.828 290.655 293.23 292.074L317.679 316.523V378.473C317.668 379.474 317.857 380.467 318.235 381.394C318.613 382.321 319.173 383.164 319.881 383.871C320.588 384.579 321.43 385.139 322.357 385.517C323.284 385.895 324.278 386.084 325.279 386.073V386.073Z" fill="white"/>
<path d="M141.081 386.073C142.075 386.083 143.061 385.897 143.983 385.524C144.904 385.151 145.743 384.599 146.449 383.9C147.156 383.201 147.717 382.369 148.1 381.452C148.483 380.534 148.68 379.55 148.68 378.556V298.971L214.058 233.51C214.892 232.85 215.575 232.019 216.064 231.075C216.553 230.13 216.836 229.092 216.894 228.03C216.952 226.968 216.784 225.906 216.401 224.913C216.018 223.921 215.429 223.021 214.673 222.274C213.916 221.526 213.009 220.947 212.013 220.576C211.016 220.205 209.952 220.049 208.89 220.12C207.829 220.19 206.795 220.485 205.856 220.985C204.917 221.485 204.095 222.179 203.444 223.02L148.68 277.701V227.522L199.107 177.136C199.807 176.439 200.363 175.611 200.742 174.699C201.122 173.788 201.318 172.81 201.32 171.823C201.322 170.835 201.13 169.857 200.753 168.944C200.377 168.031 199.825 167.201 199.128 166.501C198.431 165.801 197.603 165.246 196.692 164.866C195.78 164.487 194.802 164.29 193.815 164.288C192.827 164.286 191.849 164.479 190.936 164.855C190.023 165.231 189.193 165.783 188.493 166.48L148.68 206.5V137.983C148.68 135.99 147.888 134.078 146.479 132.668C145.069 131.259 143.157 130.467 141.163 130.467C139.17 130.467 137.258 131.259 135.848 132.668C134.439 134.078 133.647 135.99 133.647 137.983V206.5L93.875 166.687C92.462 165.274 90.5456 164.48 88.5473 164.48C86.549 164.48 84.6326 165.274 83.2196 166.687C81.8066 168.1 81.0128 170.016 81.0128 172.015C81.0128 174.013 81.8066 175.929 83.2196 177.342L133.647 227.728V277.701L78.7592 223.02C77.3462 221.607 75.4298 220.813 73.4315 220.813C71.4332 220.813 69.5168 221.607 68.1038 223.02C66.6908 224.433 65.897 226.35 65.897 228.348C65.897 230.346 66.6908 232.263 68.1038 233.676L133.564 298.971V378.556C133.575 380.546 134.371 382.452 135.778 383.859C137.185 385.266 139.091 386.062 141.081 386.073V386.073Z" fill="white"/>
</svg>
