<svg width="440" height="448" viewBox="0 0 440 448" fill="none" xmlns="http://www.w3.org/2000/svg">
<path d="M420.7 272.16C421.931 263.367 422.493 254.519 422.493 245.558C422.493 153.999 359.438 73.018 271.633 50.008C270.68 22.289 247.945 0 220 0C191.496 0 168.312 23.184 168.312 51.688C168.312 80.192 191.496 103.376 220 103.376C243.129 103.376 262.727 88.146 269.336 67.146C348.574 88.931 405.306 162.513 405.306 245.506C405.306 252.561 404.857 259.619 404.076 266.619C409.728 267.849 415.33 269.642 420.705 272.162L420.7 272.16ZM220 86.13C201.016 86.13 185.559 70.673 185.559 51.689C185.559 32.705 201.016 17.248 220 17.248C238.984 17.248 254.441 32.705 254.441 51.689C254.441 70.673 238.984 86.13 220 86.13V86.13Z" fill="black"/>
<path d="M7.37015 368.31C16.9443 384.884 34.3622 394.126 52.2252 394.126C60.9596 394.126 69.8662 391.888 77.9872 387.239C102.682 373.016 111.139 341.317 96.9172 316.622C90.0305 304.638 78.8862 296.126 65.5032 292.544C57.2727 290.361 48.8702 290.193 40.8082 292.04C36.8863 276.978 34.8159 261.407 34.8159 245.56C34.8159 171.302 80.121 104.44 146.366 75.6603C144.464 70.172 143.288 64.3483 142.839 58.4143C68.5807 89.1023 17.5686 163.074 17.5686 245.514C17.5686 263.604 20.0334 281.409 24.7366 298.659C1.27165 313.323 -6.56834 344.124 7.37366 368.315L7.37015 368.31ZM34.9252 312.591C40.2455 309.513 46.1241 307.943 52.1161 307.943C55.0849 307.943 58.1084 308.333 61.0771 309.118C69.9794 311.525 77.374 317.181 82.022 325.188C91.5415 341.653 85.8854 362.762 69.4201 372.286C61.467 376.88 52.1741 378.111 43.2681 375.759C34.3658 373.353 26.9711 367.696 22.3231 359.689C12.8036 343.22 18.4597 322.111 34.925 312.591L34.9252 312.591Z" fill="black"/>
<path d="M432.63 368.31C446.853 343.615 438.4 311.974 413.7 297.693C401.716 290.806 387.829 288.959 374.501 292.541C361.173 296.127 350.028 304.639 343.087 316.619C331.493 336.666 334.966 361.361 349.864 377.549C315.481 411.487 268.606 430.807 220.004 430.807C180.02 430.807 141.324 417.815 109.734 394.295C105.871 398.662 101.391 402.639 96.4614 405.998C131.57 432.99 175.027 447.998 220.051 447.998C274.035 447.998 325.941 426.213 363.751 388.021C371.423 392.111 379.653 394.126 387.829 394.126C405.641 394.126 423.056 384.884 432.634 368.31L432.63 368.31ZM417.732 359.685C413.138 367.638 405.693 373.349 396.787 375.755C387.885 378.161 378.588 376.931 370.635 372.282C354.17 362.763 348.514 341.649 358.033 325.184C362.627 317.231 370.072 311.52 378.978 309.114C387.88 306.708 397.177 307.939 405.13 312.587C421.54 322.11 427.196 343.22 417.732 359.685Z" fill="black"/>
</svg>
