<svg width="64" height="64" viewBox="0 0 64 64" fill="none" xmlns="http://www.w3.org/2000/svg">
<path d="M53.4062 35.6148C53.4062 47.8048 43.515 57.6873 31.3125 57.6873C27.5587 57.6873 24.0237 56.7523 20.9275 55.1023C19.7875 54.4948 18.7075 53.791 17.6987 52.9998C12.5362 48.9598 9.21875 42.6735 9.21875 35.6148C9.21875 34.0798 9.375 32.5823 9.67375 31.1348C10.275 28.2223 11.45 25.521 13.0763 23.151C14.3263 21.3285 15.8425 19.7035 17.5688 18.331C21.34 15.3323 26.1175 13.541 31.3125 13.541C34.1337 13.541 36.8325 14.0698 39.3125 15.0323C47.56 18.2348 53.4062 26.2423 53.4062 35.6148Z" fill="#009FE3"/>
<path d="M23.2138 47.9002C21.0938 49.9377 21.0276 54.724 20.9276 55.1027C19.7876 54.4952 18.7076 53.7915 17.6988 53.0002C17.0201 51.034 15.0726 45.4065 14.5263 44.7077C14.2576 44.3627 12.1251 42.6565 12.5013 38.829C12.5537 38.2962 12.6251 36.594 11.5088 36.0002C9.94258 35.1671 9.72883 32.9102 9.67383 31.1352C10.7363 25.984 13.5963 21.489 17.5688 18.3315C18.9126 17.964 20.2651 17.7877 20.9201 18.2677C21.3951 18.6165 21.4851 19.3215 21.2888 19.8765C21.1476 20.274 20.8926 20.6152 20.6076 20.9315C20.4963 21.0577 16.2263 25.4977 15.5038 26.0515C14.8276 26.569 13.0738 27.7502 12.9176 27.8865C11.7151 28.9302 10.7876 30.349 10.7426 31.9265C10.6913 33.7052 12.1063 35.5565 13.8876 35.5177C14.2451 35.509 15.8793 35.9199 16.3726 36.084C19.0313 36.969 19.9913 40.1065 20.2788 40.4627C21.0201 41.379 22.4488 41.2227 23.5263 41.7027C24.6451 42.2027 26.4793 44.7619 23.2138 47.9002ZM53.191 32.505C52.893 32.499 50.7188 32.5315 51.1237 34.2484C51.2206 34.659 52.4376 35.3752 52.0351 37.2572C51.6363 39.1215 49.3035 49.4001 46.5917 51.0406C45.9567 51.4242 42.7813 52.8752 41.3073 49.0529C40.7858 47.7005 40.846 42.3604 40.8616 41.1604C40.8788 39.9336 40.3418 37.6982 37.9581 37.8854C30.1251 38.5002 29.739 31.7612 30.7627 29.6187C31.7865 27.4755 34.5313 24.9065 38.1446 24.9787C39.747 25.0107 41.0551 26.2124 42.4485 27.0046C45.3373 28.646 48.8352 28.7591 51.9184 27.6507C52.5188 29.192 52.95 30.8179 53.191 32.505Z" fill="#9BE69D"/>
<path opacity="0.1" d="M39.3124 15.0323C38.3687 16.291 37.4162 17.411 36.4587 18.4035C31.0899 23.9773 25.5774 25.5585 20.6074 25.181C18.9137 25.0535 13.9287 23.541 13.0762 23.151C14.3262 21.3285 15.8424 19.7035 17.5687 18.331C21.3399 15.3323 26.1174 13.541 31.3124 13.541C34.1337 13.541 36.8324 14.0698 39.3124 15.0323Z" fill="black"/>
<path d="M46.2115 12.5922C46.0376 12.535 45.2341 12.2186 45.3816 11.4008C47.461 -0.13175 57.4922 1.8285 60.6255 2.76288C61.1781 2.92775 61.4955 3.50363 61.3435 4.0595C58.201 15.554 49.0502 13.5292 46.2115 12.5922ZM39.351 10.7311C38.5406 12.107 37.4285 13.1474 36.4585 14.1536C31.0897 19.7274 25.5772 21.3086 20.6072 20.9311C18.9135 20.8036 17.2822 20.4486 15.7422 19.9461C10.5147 18.2411 6.32347 14.8461 4.22972 12.9074C3.37472 12.1161 3.31347 10.7886 4.08472 9.91613C20.0372 -8.12388 34.7783 3.75637 39.136 7.94112C39.7341 8.5155 39.9841 9.65612 39.351 10.7311Z" fill="#3EC3A4"/>
<path d="M47.5301 12.6078L50.267 10.4933C50.267 10.4933 52.559 10.8497 52.5814 10.8497C52.7931 10.8497 52.9794 10.6956 53.0131 10.4797C53.0504 10.241 52.8871 10.0172 52.6485 9.97983L51.2205 9.7567L53.1066 8.29945C53.1066 8.29945 56.594 9.06258 56.6251 9.06258C56.826 9.06258 57.0071 8.9232 57.052 8.71883C57.1039 8.48283 56.9546 8.24945 56.7186 8.19758L54.0094 7.60183L56.767 5.4712C56.9581 5.32345 56.9935 5.0487 56.8456 4.85758C56.698 4.66633 56.4233 4.63108 56.2319 4.77883L51.1825 8.6802L51.9199 6.1212C51.9868 5.88908 51.8528 5.64658 51.6206 5.57958C51.3884 5.51258 51.146 5.6467 51.079 5.87883L50.0165 9.56633C50.0149 9.57195 50.0148 9.5777 50.0134 9.58333C50.0134 9.58333 46.8629 12.0522 46.8364 12.1318C40.7964 7.9062 34.2326 7.46745 31.2995 7.46745C31.0579 7.46745 30.862 7.66333 30.862 7.90495C30.862 8.14658 31.0579 8.34245 31.2995 8.34245C33.3563 8.34245 35.3911 8.5712 37.375 9.0217L31.0564 9.72445C31.0458 9.71333 26.839 6.14658 26.839 6.14658C26.6544 5.99033 26.3785 6.01333 26.2224 6.1977C26.0663 6.38208 26.0891 6.6582 26.2735 6.81433L29.866 9.85695L22.7963 10.6432L18.5188 6.9202C18.3365 6.76145 18.06 6.7807 17.9015 6.96295C17.7429 7.1452 17.762 7.42158 17.9443 7.5802L21.6144 10.7746L14.2793 11.5905C14.0391 11.6172 13.866 11.8335 13.8928 12.0736C13.9176 12.2973 14.107 12.4628 14.327 12.4628C14.3431 12.4628 17.0971 12.1575 17.0971 12.1575L15.0541 14.6757C14.9019 14.8633 14.932 15.1372 15.1183 15.2911C15.39 15.5155 15.6009 15.3671 15.7336 15.227L18.3355 12.0196L25.6995 11.2006L22.7804 15.2102C22.6381 15.4056 22.6639 15.7068 22.8766 15.8215C23.1789 15.9843 23.4023 15.8428 23.4879 15.7252L26.8773 11.0696C26.8773 11.0696 39.6395 9.6472 39.6543 9.64395C52.9575 14.2082 58.6205 26.7248 58.6205 35.6636C58.6205 50.7282 46.3649 62.9841 31.3005 62.9848C31.3001 62.9848 31.2998 62.9847 31.2995 62.9847C16.2346 62.9847 3.97852 50.7286 3.97852 35.6637C3.97852 35.4221 3.78264 35.2262 3.54102 35.2262C3.29939 35.2262 3.10352 35.4221 3.10352 35.6637C3.10352 43.1951 6.03639 50.2757 11.3619 55.6013C16.687 60.9265 23.767 63.8593 31.2979 63.8597C31.2984 63.8597 31.2988 63.8598 31.2993 63.8598C38.831 63.8598 45.9118 60.927 51.2373 55.6016C56.5628 50.2761 59.4955 43.1953 59.4955 35.6637C59.4958 26.4968 55.025 17.8923 47.5301 12.6078Z" fill="#9BE69D"/>
</svg>
