<svg width="64" height="64" viewBox="0 0 64 64" fill="none" xmlns="http://www.w3.org/2000/svg">
<path d="M17.0001 23.0001C16.7642 23.0022 16.5351 22.9208 16.3534 22.7703C16.1716 22.6198 16.049 22.4099 16.0071 22.1777C15.9652 21.9455 16.0068 21.7059 16.1245 21.5014C16.2421 21.2969 16.4283 21.1406 16.6501 21.0601L54.6502 7.06012C54.8995 6.96729 55.1754 6.9773 55.4173 7.08795C55.6593 7.19859 55.8473 7.40081 55.9401 7.65012C56.033 7.89942 56.023 8.17539 55.9123 8.41731C55.8017 8.65923 55.5995 8.84729 55.3501 8.94012L17.3501 22.9401C17.2374 22.9786 17.1193 22.9989 17.0001 23.0001Z" fill="#009FE3"/>
<path d="M62 8C62 9.18669 61.6481 10.3467 60.9888 11.3334C60.3295 12.3201 59.3925 13.0892 58.2961 13.5433C57.1997 13.9974 55.9933 14.1162 54.8295 13.8847C53.6656 13.6532 52.5965 13.0818 51.7574 12.2426C50.9182 11.4035 50.3468 10.3344 50.1153 9.17054C49.8838 8.00666 50.0026 6.80026 50.4567 5.7039C50.9109 4.60754 51.6799 3.67047 52.6666 3.01118C53.6533 2.35189 54.8133 2 56 2C57.5913 2 59.1174 2.63214 60.2426 3.75736C61.3679 4.88258 62 6.4087 62 8V8Z" fill="#009FE3"/>
<path d="M55.9998 58C55.8475 58.0006 55.697 57.9664 55.5598 57.9L14.5598 37.9C14.4417 37.8422 14.336 37.7617 14.2489 37.6631C14.1618 37.5645 14.095 37.4497 14.0523 37.3253C14.0096 37.2008 13.9918 37.0692 14 36.9379C14.0081 36.8066 14.0421 36.6782 14.0998 36.56C14.1576 36.4418 14.2381 36.3362 14.3367 36.2491C14.4353 36.162 14.5501 36.0952 14.6746 36.0525C14.799 36.0098 14.9306 35.992 15.0619 36.0001C15.1932 36.0083 15.3217 36.0422 15.4398 36.1L56.4398 56.1C56.6439 56.1988 56.8083 56.364 56.9061 56.5686C57.0039 56.7731 57.0293 57.0048 56.9782 57.2256C56.927 57.4465 56.8024 57.6434 56.6246 57.7841C56.4468 57.9248 56.2265 58.0009 55.9998 58ZM45.9998 33H31.9998C31.7346 33 31.4803 32.8946 31.2927 32.7071C31.1052 32.5196 30.9998 32.2652 30.9998 32C30.9998 31.7348 31.1052 31.4804 31.2927 31.2929C31.4803 31.1054 31.7346 31 31.9998 31H45.9998C46.2651 31 46.5194 31.1054 46.707 31.2929C46.8945 31.4804 46.9998 31.7348 46.9998 32C46.9998 32.2652 46.8945 32.5196 46.707 32.7071C46.5194 32.8946 46.2651 33 45.9998 33Z" fill="#009FE3"/>
<path d="M62 56C62 57.1867 61.6481 58.3467 60.9888 59.3334C60.3295 60.3201 59.3925 61.0892 58.2961 61.5433C57.1997 61.9974 55.9933 62.1162 54.8295 61.8847C53.6656 61.6532 52.5965 61.0818 51.7574 60.2426C50.9182 59.4035 50.3468 58.3344 50.1153 57.1705C49.8838 56.0067 50.0026 54.8003 50.4567 53.7039C50.9109 52.6075 51.6799 51.6705 52.6666 51.0112C53.6533 50.3519 54.8133 50 56 50C57.5913 50 59.1174 50.6321 60.2426 51.7574C61.3679 52.8826 62 54.4087 62 56V56Z" fill="#009FE3"/>
<path d="M50 36C52.2091 36 54 34.2091 54 32C54 29.7909 52.2091 28 50 28C47.7909 28 46 29.7909 46 32C46 34.2091 47.7909 36 50 36Z" fill="#009FE3"/>
<path d="M32 32.0002C32.0019 35.3276 30.8974 38.5612 28.8603 41.1921C26.8232 43.823 23.9692 45.7019 20.7473 46.5332C17.5254 47.3644 14.1186 47.1008 11.063 45.7838C8.00731 44.4668 5.47628 42.1712 3.86817 39.2583C2.26006 36.3453 1.66615 32.9803 2.1799 29.6928C2.69365 26.4053 4.2859 23.382 6.70608 21.0985C9.12627 18.815 12.237 17.4011 15.5488 17.0792C18.8606 16.7573 22.1854 17.5456 25 19.3202C27.1424 20.671 28.9079 22.5422 30.1319 24.7594C31.3559 26.9766 31.9986 29.4676 32 32.0002V32.0002Z" fill="#9BE69D"/>
<path d="M32.0003 31.9998C31.9989 34.5325 31.3562 37.0235 30.1322 39.2407C28.9082 41.4579 27.1427 43.3291 25.0003 44.6798C24.6903 44.4898 24.3803 44.2798 24.0903 44.0598C22.2044 42.665 20.6719 40.8474 19.6159 38.7529C18.5599 36.6584 18.0098 34.3455 18.0098 31.9998C18.0098 29.6542 18.5599 27.3412 19.6159 25.2467C20.6719 23.1523 22.2044 21.3346 24.0903 19.9398C24.3903 19.7298 24.6903 19.5098 25.0103 19.3198C27.1508 20.6717 28.9143 22.5435 30.1366 24.7606C31.3588 26.9777 31.9999 29.4681 32.0003 31.9998Z" fill="#009FE3"/>
</svg>
