<svg width="148" height="36" viewBox="0 0 148 36" fill="none" xmlns="http://www.w3.org/2000/svg">
<path d="M107.739 4.83008H104.907V19.4594H107.739V4.83008Z" fill="black"/>
<path d="M88.9925 10.442H86.699V4.83008H83.8496V24.1332H86.699V12.7702H88.9925V10.442Z" fill="black"/>
<path d="M107.757 21.4749H92.7798V30.7528H107.757V21.4749ZM104.925 28.4247H95.5944V23.803H104.925V28.4247Z" fill="black"/>
<path d="M91.06 4.83008V7.15826H99.0522C99.0349 7.90537 98.948 9.05208 98.6005 10.303H91.06V12.6312H97.5928C96.3939 14.6293 94.2221 16.4884 90.2607 17.0965L91.06 19.3378C99.8515 18.3127 102.041 11.3455 102.041 4.83008H91.06V4.83008Z" fill="black"/>
<path d="M147.318 4.83008H144.486V30.7702H147.318V4.83008Z" fill="black"/>
<path d="M124.645 4.83008V8.96521H121.013V4.83008H118.199V8.96521H113.386V4.83008H110.537V17.5135H121.013V11.2934H124.645V17.5308H127.477V4.83008H124.905H124.645ZM118.181 11.2586V15.1679H113.369V11.2586H118.181Z" fill="black"/>
<path d="M66.7355 20.4325H49.917V22.7607H52.6795V30.753H55.5116V22.7607H61.1062V30.753H63.973V22.7607H66.7355V20.4325Z" fill="black"/>
<path d="M86.3688 28.4247H73.9808V23.1255H71.1313V30.7529H71.1487H86.3688V28.4247Z" fill="black"/>
<path d="M127.477 19.3899H112.5V21.7181H124.662V23.8899H112.5V30.7528H127.477V28.4246H115.332V26.2181H127.477V19.3899Z" fill="black"/>
<path d="M141.272 4.83008H130.309V7.14089H138.44V13.9343H130.309V26.2529H140.213C140.213 26.2529 141.724 26.2007 142.089 26.1486C144 25.8706 145.216 24.8629 145.216 24.8629L145.182 22.1525C145.182 22.1525 143.826 23.4903 141.707 23.8725C141.429 23.9247 140.16 23.9073 140.16 23.9073H133.141V16.2625H141.272V4.83008V4.83008Z" fill="black"/>
<path d="M81.5038 16.2626C81.5038 19.4074 78.7412 21.9788 75.3532 21.9788C71.9652 21.9788 69.2026 19.4248 69.2026 16.2626C69.2026 13.1178 71.9652 10.5464 75.3532 10.5464C78.7412 10.5464 81.5038 13.1178 81.5038 16.2626ZM75.3532 12.8051C73.303 12.8051 71.6351 14.3514 71.6351 16.2626C71.6351 18.1738 73.303 19.7201 75.3532 19.7201C77.4034 19.7201 79.0887 18.1738 79.0887 16.2626C79.0714 14.3514 77.4034 12.8051 75.3532 12.8051Z" fill="black"/>
<path d="M65.8671 11.6408C65.8671 15.5675 62.5138 18.747 58.3613 18.747C54.2261 18.747 50.8555 15.5675 50.8555 11.6408C50.8555 7.71421 54.2088 4.53467 58.3613 4.53467C62.5138 4.53467 65.8671 7.71421 65.8671 11.6408ZM58.3613 7.2451C55.8072 7.2451 53.7223 9.20841 53.7223 11.6408C53.7223 14.0733 55.8072 16.0366 58.3613 16.0366C60.9153 16.0366 63.0003 14.0733 63.0003 11.6408C63.0003 9.22579 60.9153 7.2451 58.3613 7.2451Z" fill="black"/>
<path d="M78.6198 4.83008H72.0522V6.79339H78.6198V4.83008Z" fill="black"/>
<path d="M81.3996 7.55786H69.168V9.88605H81.3996V7.55786Z" fill="black"/>
<path d="M23.2297 36C35.861 36 46.112 27.9382 46.112 18C46.112 8.06177 35.861 0 23.2297 0C10.5985 0 0 8.06177 0 18C0 27.9382 10.5811 36 23.2297 36Z" fill="#009FE3"/>
<path d="M26.7743 12.0405C30.2666 8.23548 35.5311 6.91502 38.45 8.09648C40.5697 8.94783 41.8207 10.9807 41.9944 13.1177C42.3072 17.0965 39.7879 21.0058 36.1218 22.8475C34.506 23.6641 32.1604 23.2818 30.5272 21.8397C29.7628 21.1621 28.6855 19.2162 29.1373 17.4961C26.5137 19.4594 26.9133 23.3687 28.6334 25.5057C30.8921 28.2857 35.2184 27.5212 38.0852 25.61C38.172 25.5579 37.6682 26.3745 37.4597 26.6351C34.9751 29.693 32.0214 31.361 28.4944 30.5617C24.7763 29.7278 23.3168 24.7586 24.672 21.4401C26.7048 15.1332 30.9442 14.0559 32.5079 13.8301C32.9423 13.7606 34.2106 13.8474 34.0021 14.0907C32.9076 15.4112 33.5504 17.1139 34.8361 17.3745C38.2589 18.0521 40.4655 13.5868 39.0408 10.7722C37.7377 8.16598 33.5504 8.70459 31.3786 10.1467C29.2242 11.5888 26.1315 14.2123 24.255 17.7915C23.1257 19.5984 21.0581 24.3243 19.5987 30.7181H11.6411C13.3786 28.2335 15.3767 25.4363 16.8709 21.4401C20.7628 11.415 14.3516 8.73934 11.5369 9.90343C8.91334 11.1544 8.63535 14.942 10.755 16.9749C11.6064 17.7915 13.1701 18 14.1431 17.5482C14.8207 17.2181 15.394 16.3146 15.255 14.8725C16.8361 16.3146 16.2801 19.1641 14.3516 20.1718C10.3554 22.2567 6.09867 20.1197 4.72608 17.027C3.85735 15.0637 3.8921 12.8745 5.00407 10.8764C6.37666 8.40923 9.15658 7.05402 11.8323 6.88027C15.394 6.6544 20.0504 9.99031 19.8593 15.359C22.2048 9.95556 23.1431 4.83008 23.1431 4.83008H31.2917C31.2917 4.83008 30.006 5.95942 26.7743 12.0405Z" fill="white"/>
</svg>
