<svg width="148" height="36" viewBox="0 0 148 36" fill="none" xmlns="http://www.w3.org/2000/svg">
<path d="M107.736 4.83014H104.903V19.4421H107.736V4.83014Z" fill="white"/>
<path d="M88.9863 10.4421H86.6926V4.83014H83.8428V24.1332H86.6926V12.7703H88.9863V10.4421Z" fill="white"/>
<path d="M107.753 21.4749H92.7744V30.7528H107.753V21.4749ZM104.921 28.4247H95.5894V23.803H104.921V28.4247Z" fill="white"/>
<path d="M91.0542 4.83014V7.15832H99.0475C99.0301 7.90542 98.9432 9.05215 98.5957 10.3031H91.0542V12.6313H97.5878C96.3888 14.6294 94.2167 16.4884 90.2722 17.0965L91.0715 19.3379C99.8642 18.2954 102.054 11.3456 102.054 4.83014H91.0542V4.83014Z" fill="white"/>
<path d="M147.32 4.83014H144.488V30.7703H147.32V4.83014Z" fill="white"/>
<path d="M124.643 4.83018V8.96531H120.994V4.83018H118.179V8.96531H113.366V4.83018H110.516V17.5136H120.994V11.2761H124.643V17.5136H127.476V4.81281H124.904L124.643 4.83018ZM118.179 11.2587V15.168H113.366V11.2587H118.179Z" fill="white"/>
<path d="M66.7267 20.4324H49.9061V22.7606H52.669V30.7529H55.5014V22.7606H61.0967V30.7529H63.9638V22.7606H66.7267V20.4324Z" fill="white"/>
<path d="M86.3624 28.4247H73.9728V23.1255H71.123V30.7529H71.1404H86.3624V28.4247Z" fill="white"/>
<path d="M127.476 19.3899H112.497V21.7181H124.661V23.8899H112.497V30.7528H127.476V28.4246H115.329V26.2181H127.476V19.3899Z" fill="white"/>
<path d="M141.273 4.83014H130.308V7.14095H138.44V13.9344H130.308V26.2529H140.213C140.213 26.2529 141.725 26.2008 142.09 26.1487C144.001 25.8707 145.217 24.863 145.217 24.863L145.183 22.1525C145.183 22.1525 143.827 23.4904 141.707 23.8726C141.447 23.9247 140.161 23.9073 140.161 23.9073H133.141V16.2626H141.273V4.83014V4.83014Z" fill="white"/>
<path d="M81.4795 16.2625C81.4795 19.4247 78.734 21.9787 75.3281 21.9787C71.9223 21.9787 69.1768 19.4247 69.1768 16.2625C69.1768 13.1178 71.9397 10.5463 75.3281 10.5463C78.734 10.5463 81.4795 13.1178 81.4795 16.2625ZM75.3455 12.805C73.295 12.805 71.6269 14.3513 71.6269 16.2625C71.6269 18.1737 73.295 19.7201 75.3455 19.7201C77.3959 19.7201 79.0641 18.1737 79.0641 16.2625C79.0641 14.3513 77.3959 12.805 75.3455 12.805Z" fill="white"/>
<path d="M65.8578 11.6409C65.8578 15.5675 62.5041 18.7471 58.351 18.7471C54.2154 18.7471 50.8443 15.5675 50.8443 11.6409C50.8443 7.71426 54.198 4.53473 58.351 4.53473C62.5041 4.53473 65.8578 7.71426 65.8578 11.6409ZM58.351 7.24515C55.7967 7.24515 53.7115 9.20847 53.7115 11.6409C53.7115 14.0733 55.7793 16.0366 58.351 16.0366C60.9054 16.0366 62.9906 14.0733 62.9906 11.6409C62.9906 9.22584 60.9054 7.24515 58.351 7.24515Z" fill="white"/>
<path d="M23.2153 36C35.8482 36 46.1005 27.9382 46.1005 18C46.1005 8.06178 35.8482 0 23.2153 0C10.5825 0 2.13695e-05 8.06178 2.13695e-05 18C-0.0173554 27.9382 10.5651 36 23.2153 36Z" fill="#009FE3"/>
<path d="M26.7602 12.0406C30.2529 8.23558 35.5181 6.91511 38.4373 8.09657C40.5573 8.94792 41.8084 10.9807 41.9648 13.1178C42.2776 17.0966 39.758 21.0058 36.0915 22.8475C34.4755 23.6641 32.1296 23.2819 30.4962 21.8398C29.7316 21.1622 28.6542 19.2163 29.106 17.4962C26.4822 19.4595 26.8818 23.3688 28.6021 25.5058C30.8611 28.2858 35.1879 27.5213 38.0551 25.6101C38.1419 25.558 37.6554 26.3746 37.4295 26.6352C34.9446 29.6931 31.9906 31.3611 28.4631 30.5618C24.7445 29.7278 23.2848 24.7587 24.6402 21.4402C26.6733 15.1333 30.9132 14.056 32.4771 13.8475C32.9115 13.778 34.18 13.8475 33.9715 14.1082C32.8768 15.4112 33.5197 17.1313 34.8056 17.3919C38.2288 18.0869 40.4357 13.6043 39.0108 10.7896C37.7075 8.18345 33.5197 8.72206 31.3476 10.1641C29.1929 11.6062 26.0999 14.2298 24.2232 17.8089C23.0937 19.6159 21.0259 24.3417 19.5662 30.7356H11.6077C13.3453 28.251 15.3437 25.4537 16.8381 21.4576C20.7305 11.4325 14.3184 8.75681 11.5034 9.9209C8.87952 11.1892 8.60149 14.9595 10.7215 16.9923C11.5729 17.8089 13.1368 18.0174 14.1099 17.5657C14.7876 17.2356 15.361 16.3321 15.222 14.89C16.8033 16.3321 16.2473 19.1815 14.3184 20.1892C10.3218 22.2742 6.0645 20.1371 4.69173 17.0445C3.8229 15.0811 3.85765 12.8919 4.96976 10.8939C6.34252 8.42669 9.1228 7.07149 11.7988 6.89774C15.361 6.67187 20.018 10.0078 19.8269 15.3765C22.1727 9.97302 23.0937 4.84755 23.0937 4.84755H31.2434C31.2781 4.83017 29.9923 5.95951 26.7602 12.0406Z" fill="white"/>
<path d="M78.6124 4.83014H72.044V6.79345H78.6124V4.83014Z" fill="white"/>
<path d="M81.3925 7.55786H69.1593V9.88604H81.3925V7.55786Z" fill="white"/>
</svg>
