<svg width="40" height="40" viewBox="0 0 40 40" fill="none" xmlns="http://www.w3.org/2000/svg">
<path d="M4.00752 19.9519C5.46748 23.1853 7.95381 26.6885 10.8288 29.5635C13.8952 32.6299 17.2783 35.0581 20.3549 36.4004C22.03 37.1313 23.5285 37.4968 24.7895 37.4968C26.0441 37.4968 27.0634 37.135 27.7871 36.4111L30.6889 33.5098C31.5705 32.6274 31.4914 31.1133 30.5124 30.1338L26.2363 25.8574C25.2568 24.8787 23.7419 24.7998 22.8603 25.6814L21.5288 27.0129C21.1601 27.2888 18.8796 26.5864 16.3137 24.0208C13.747 21.4543 13.0432 19.1724 13.3203 18.8069L14.6533 17.4741C15.5351 16.5918 15.456 15.0771 14.4768 14.0981L10.2006 9.82178C9.2209 8.84277 7.7065 8.76367 6.82466 9.64575L3.9233 12.5469C2.47505 13.9949 2.50484 16.6248 4.00752 19.9519ZM5.33736 13.9612L8.23872 11.0598C8.25874 11.0398 8.29854 11.0281 8.3503 11.0281C8.46358 11.0281 8.63496 11.0847 8.78658 11.2361L13.0627 15.5122C13.2836 15.7332 13.3024 15.9963 13.239 16.0598L11.906 17.3926C10.2487 19.0503 12.1574 22.6931 14.8996 25.4348C16.2651 26.8003 17.7666 27.8909 19.1276 28.5056C21.3679 29.5173 22.4787 28.8916 22.9416 28.4282L24.2744 27.0955C24.3386 27.0317 24.601 27.051 24.8222 27.2717L29.0981 31.5479C29.319 31.7688 29.3381 32.032 29.2746 32.0957L26.373 34.9971C25.5678 35.8025 23.6174 35.6421 21.1547 34.5674C18.3017 33.3225 15.1369 31.0432 12.2429 28.1494C9.53218 25.4385 7.19478 22.1506 5.83028 19.1287C4.72749 16.687 4.54317 14.7554 5.33736 13.9612ZM37.1474 22.1687C37.1474 11.3232 28.3242 2.5 17.479 2.5V4.5C27.2214 4.5 35.1474 12.4263 35.1474 22.1687H37.1474Z" fill="#009FE3"/>
<path d="M17.8506 7.96289V9.96289C24.7856 9.96289 30.4277 15.605 30.4277 22.54H32.4277C32.4277 14.5022 25.8884 7.96289 17.8506 7.96289Z" fill="#009FE3"/>
<path d="M25.3364 22.54H27.3364C27.3364 17.3096 23.0811 13.0542 17.8506 13.0542V15.0542C21.9783 15.0542 25.3364 18.4124 25.3364 22.54Z" fill="#009FE3"/>
</svg>
