<svg width="40" height="40" viewBox="0 0 40 40" fill="none" xmlns="http://www.w3.org/2000/svg">
<path d="M20 18.75C19.3097 18.75 18.75 19.3097 18.75 20C18.75 20.6903 19.3097 21.25 20 21.25C20.6903 21.25 21.25 20.6903 21.25 20C21.25 19.3097 20.6903 18.75 20 18.75ZM15 18.75C14.3097 18.75 13.75 19.3097 13.75 20C13.75 20.6903 14.3097 21.25 15 21.25C15.6903 21.25 16.25 20.6903 16.25 20C16.25 19.3097 15.6903 18.75 15 18.75ZM25 18.75C24.3097 18.75 23.75 19.3097 23.75 20C23.75 20.6903 24.3097 21.25 25 21.25C25.6903 21.25 26.25 20.6903 26.25 20C26.25 19.3097 25.6903 18.75 25 18.75ZM32.3588 8.81714C26.183 1.99128 15.643 1.46424 8.81714 7.63998C1.99128 13.8158 1.46424 24.3558 7.63998 31.1816L3.57748 35.2441C3.42123 35.4004 3.33344 35.6123 3.33344 35.8332C3.33334 36.2934 3.70647 36.6666 4.16667 36.6667H20C24.1324 36.6666 28.1174 35.1312 31.1816 32.3588C38.0076 26.183 38.5345 15.643 32.3588 8.81714ZM20 35H6.17829L9.39291 31.7855C9.39301 31.7854 9.39311 31.7853 9.39311 31.7852C9.71843 31.4598 9.71833 30.9323 9.39291 30.6071C6.58061 27.7948 5.00041 23.9806 5.00001 20.0034C4.99909 11.72 11.7133 5.00428 19.9966 5.00336C28.2799 5.00245 34.9957 11.7166 34.9966 20C34.9976 28.2833 28.2834 34.9991 20 35Z" fill="white"/>
</svg>
