<svg width="50" height="50" viewBox="0 0 50 50" fill="none" xmlns="http://www.w3.org/2000/svg">
<path d="M49.9723 16.2915L46.4269 0.454459C46.3847 0.255 46.2581 0.135325 46.1315 0.0954332C46.0471 0.0156497 45.8783 -0.024242 45.625 0.0156497C45.5406 0.0156497 45.4984 0.0555415 45.414 0.0954332L30.8106 8.35302C30.5152 8.51259 30.3885 8.91151 30.5996 9.19075C30.684 9.31043 30.7684 9.39021 30.895 9.4301L34.9046 11.0657L34.1027 13.0204C33.8495 13.6985 27.7295 28.4186 3.3343 28.4186C2.40576 28.4186 1.39281 28.3787 0.422063 28.3388H0.295444C0.211031 28.3388 0.168825 28.3787 0.0844125 28.4186C0.0422062 28.4585 0 28.5382 0 28.618C0 28.7377 0.0844126 28.8574 0.211032 28.8973L0.295444 28.9372C5.57123 30.6126 11.0581 31.4902 16.6293 31.57C36.7617 31.57 43.979 17.4084 44.0634 17.2489L45.0341 15.2942L49.1281 16.9696C49.297 17.0494 49.508 17.0095 49.5924 16.9696C49.719 16.9297 49.8457 16.85 49.9301 16.6505C50.0145 16.5308 50.0145 16.4112 49.9723 16.2915ZM2.87003 50H13.3794V35.5991C9.83407 35.3597 6.33095 34.8411 2.87003 34.0034V50V50ZM36.5929 30.5328V50H47.1022V20.6796H47.06C45.5406 22.9534 42.2063 27.142 36.5929 30.5328ZM19.7103 50H30.2197V33.5247C27.1809 34.6018 23.7199 35.3597 19.7103 35.639V50Z" fill="#009FE3"/>
</svg>
