<svg width="50" height="50" viewBox="0 0 50 50" fill="none" xmlns="http://www.w3.org/2000/svg">
<path d="M16.5623 18.0469L17.4998 23.8282C18.2029 27.4219 21.3279 30 24.9998 30C28.6326 30 31.7966 27.4219 32.4998 23.8282L33.4373 18.0469C30.9373 17.0313 28.0466 16.4453 24.9998 16.4453C21.9529 16.4453 19.1013 17.0313 16.5623 18.0469ZM14.6091 7.38284C14.6873 7.38284 14.7654 7.38284 14.8826 7.38284L16.1716 15.3125C18.8669 14.2969 21.8748 13.75 25.0388 13.75C28.2029 13.75 31.2107 14.336 33.906 15.3125L35.156 7.38284C35.2341 7.38284 35.3123 7.38284 35.4294 7.38284C36.6404 7.38284 37.6169 6.40628 37.6169 5.19534C37.6169 3.82816 36.3669 2.77347 34.9607 3.08597C34.1013 3.28128 33.4373 3.98441 33.281 4.80472C33.1248 5.66409 33.4763 6.44534 34.1013 6.91409C31.6013 10.2735 29.0623 10.5469 26.0935 4.96097C27.1482 4.41409 27.7341 3.04691 26.9138 1.67972C26.5232 1.05472 25.8201 0.742219 25.0779 0.781282C24.3357 0.703157 23.5935 1.05472 23.2419 1.67972C22.4216 3.04691 23.0076 4.41409 24.0623 4.96097C21.0935 10.5469 18.5544 10.2735 16.0544 6.91409C16.6794 6.44534 16.9919 5.66409 16.8748 4.80472C16.7185 3.94534 16.0544 3.28128 15.1951 3.08597C13.7888 2.77347 12.5388 3.86722 12.5388 5.19534C12.4216 6.40628 13.3982 7.38284 14.6091 7.38284ZM44.8826 48.7891L42.3435 36.875C42.1873 36.0938 41.6404 35.4688 40.8982 35.1953L32.8123 32.3438L27.7341 39.6094L27.1091 34.1407C27.0701 33.7891 26.7576 33.5157 26.4451 33.5157H23.6326C23.281 33.5157 23.0076 33.7891 22.9685 34.1407L22.3435 39.6094L17.1873 32.3438L9.06226 35.2344C8.32007 35.5078 7.7732 36.1328 7.61695 36.9141L5.07788 48.8282C4.9607 49.4141 5.39038 50 6.01538 50H43.9451C44.5701 49.961 45.0388 49.375 44.8826 48.7891Z" fill="#009FE3"/>
</svg>
