<svg width="50" height="50" viewBox="0 0 50 50" fill="none" xmlns="http://www.w3.org/2000/svg">
<g clip-path="url(#clip0_403_105)">
<path d="M25 0C11.2043 0 3.07697e-05 11.2042 4.36683e-10 25C-8.07688e-05 38.7958 11.2042 50 25 50C38.7958 50 50.0001 38.7958 50 25C50 11.2042 38.7957 0 25 0ZM25 1.92308C37.7565 1.92308 48.0769 12.2435 48.0769 25C48.077 37.7565 37.7565 48.0769 25 48.0769C12.2435 48.0769 1.923 37.7565 1.92308 25C1.92311 12.2435 12.2435 1.92308 25 1.92308ZM25 11.5385C24.5551 11.5385 24.068 11.7632 23.5126 12.3648C22.9573 12.9663 22.392 13.9241 21.9126 15.1517C21.4644 16.2996 21.099 17.6919 20.8271 19.2308H29.1729C28.901 17.6919 28.5356 16.2996 28.0874 15.1517C27.608 13.9241 27.0427 12.9663 26.4874 12.3648C25.932 11.7632 25.4449 11.5385 25 11.5385ZM21.3454 12.0493C17.5791 13.1074 14.4944 15.7556 12.8456 19.2308H18.8589C19.1522 17.4502 19.5812 15.8354 20.1209 14.4531C20.4766 13.5422 20.8855 12.7418 21.3454 12.0493ZM28.6546 12.0493C29.1145 12.7418 29.5234 13.5422 29.8791 14.4531C30.4188 15.8354 30.8478 17.4502 31.1411 19.2308H37.1544C35.5056 15.7556 32.4209 13.1074 28.6546 12.0493ZM12.1019 21.1538C11.7401 22.3727 11.5385 23.6623 11.5385 25C11.5385 26.339 11.7394 27.6263 12.1019 28.8462H18.6298C18.5005 27.61 18.4082 26.3377 18.4082 25C18.4082 23.6623 18.5005 22.3894 18.6298 21.1538H12.1019ZM20.5679 21.1538C20.4304 22.3812 20.3313 23.6554 20.3313 25C20.3313 26.346 20.4301 27.6171 20.5679 28.8462H29.4321C29.5699 27.6171 29.6687 26.346 29.6687 25C29.6687 23.6554 29.5696 22.3812 29.4321 21.1538H20.5679ZM31.3702 21.1538C31.4995 22.3894 31.5918 23.6623 31.5918 25C31.5918 26.3377 31.4995 27.61 31.3702 28.8462H37.8981C38.2606 27.6263 38.4615 26.339 38.4615 25C38.4615 23.6623 38.2599 22.3727 37.8981 21.1538H31.3702ZM12.8493 30.7692C14.4982 34.2412 17.5785 36.8889 21.3416 37.947C20.8829 37.2554 20.4759 36.4597 20.1209 35.5506C19.5812 34.1685 19.1522 32.5508 18.8589 30.7692H12.8493ZM20.8308 30.7692C21.1027 32.3075 21.4648 33.7053 21.9126 34.852C22.392 36.0799 22.9573 37.0374 23.5126 37.639C24.068 38.2405 24.5551 38.4615 25 38.4615C25.4449 38.4615 25.932 38.2405 26.4874 37.639C27.0427 37.0374 27.608 36.0799 28.0874 34.852C28.5352 33.7053 28.8973 32.3075 29.1692 30.7692H20.8308ZM31.1411 30.7692C30.8478 32.5508 30.4188 34.1685 29.8791 35.5506C29.5241 36.4597 29.1171 37.2554 28.6584 37.947C32.4215 36.8889 35.5018 34.2412 37.1507 30.7692H31.1411Z" fill="#009FE3"/>
</g>
<defs>
<clipPath id="clip0_403_105">
<rect width="50" height="50" fill="white"/>
</clipPath>
</defs>
</svg>
