<svg width="54" height="54" viewBox="0 0 54 54" fill="none" xmlns="http://www.w3.org/2000/svg">
<path d="M44.0954 2.48986C42.4576 1.8958 40.7174 1.63559 38.9774 1.72455C37.2374 1.81351 35.5329 2.24986 33.9642 3.00786C32.3955 3.76587 30.9944 4.83021 29.8434 6.13816C28.6924 7.44611 27.8149 8.9712 27.2626 10.6236C29.8878 8.77488 32.976 7.69385 36.181 7.50164C36.5607 7.50174 31.2029 9.30732 29.102 11.3999C28.6632 11.8302 28.0557 12.1002 27.5748 12.5558C32.5251 15.1259 39.3429 14.9541 42.7876 10.5561C44.3218 8.42971 44.9885 5.79891 44.6523 3.19855C44.6375 3.03936 44.5771 2.8878 44.4784 2.76209C44.3796 2.63637 44.2466 2.54185 44.0954 2.48986V2.48986ZM19.4326 11.7289C20.9742 11.9357 22.4103 12.6271 23.5332 13.7033C24.1918 7.95376 18.6585 2.99746 12.3365 4.97058C12.1909 5.01536 12.06 5.09852 11.9576 5.21133C11.8551 5.32415 11.785 5.46246 11.7545 5.61175C10.4009 10.7424 15.5322 18.2834 22.6051 15.2136C22.3709 14.6858 22.042 14.2054 21.6348 13.7961C20.5801 12.657 19.1794 11.7289 19.4326 11.7289Z" fill="#009FE3"/>
<path d="M26.9756 11.4931C27.0263 11.3075 27.1191 11.0121 27.2625 10.624C25.9009 11.6224 24.8411 12.9771 24.1997 14.539C24.0048 14.2399 23.7816 13.9601 23.5331 13.7037C23.5072 14.4828 23.3602 14.9784 22.605 15.214C23.6729 16.422 23.4816 17.75 23.5573 19.2437C18.8525 16.5316 13.2058 22.7408 17.4666 27.1025C17.0794 27.5649 16.8721 28.1516 16.883 28.7546C16.8938 29.3576 17.1221 29.9365 17.5257 30.3847C12.5813 32.8906 9.28223 37.7928 9.28223 42.1972C9.28223 48.3481 15.2475 52.3222 24.4697 52.3222C33.7004 52.3222 39.6572 48.3481 39.6572 42.1972C39.6572 37.7928 36.3582 32.8906 31.4138 30.3847C31.8158 29.9345 32.0436 29.3553 32.056 28.7518C32.0684 28.1484 31.8645 27.5604 31.4813 27.094C35.7537 22.595 30.0104 16.5117 25.2399 19.2883C25.0723 18.0616 25.1964 16.8127 25.6021 15.643C26.0078 14.4733 26.6836 13.4158 27.5747 12.5563C27.3568 12.4908 27.1727 12.3436 27.061 12.1453C26.9493 11.9471 26.9187 11.7134 26.9756 11.4931V11.4931ZM23.6259 48.1034V47.2596H21.0947C20.873 47.2565 20.6614 47.1662 20.5057 47.0083C20.3501 46.8504 20.2628 46.6376 20.2628 46.4159C20.2628 46.1941 20.3501 45.9813 20.5058 45.8234C20.6615 45.6655 20.873 45.5753 21.0947 45.5721H25.3134C25.761 45.5721 26.1902 45.3944 26.5067 45.0779C26.8232 44.7614 27.0009 44.3322 27.0009 43.8846C27.0009 43.4371 26.8232 43.0079 26.5067 42.6914C26.1902 42.3749 25.761 42.1971 25.3134 42.1971H23.6259C22.7362 42.1889 21.8857 41.8298 21.2595 41.1977C20.6333 40.5657 20.2819 39.7119 20.2819 38.8221C20.2819 37.9324 20.6333 37.0786 21.2595 36.4466C21.8857 35.8145 22.7362 35.4553 23.6259 35.4471V34.6034C23.6259 34.3796 23.7148 34.165 23.8731 34.0068C24.0313 33.8485 24.2459 33.7596 24.4697 33.7596C24.6935 33.7596 24.9081 33.8485 25.0663 34.0068C25.2245 34.165 25.3134 34.3796 25.3134 34.6034V35.4471H27.8447C28.0663 35.4504 28.2777 35.5408 28.4333 35.6987C28.5888 35.8565 28.676 36.0693 28.676 36.2909C28.676 36.5125 28.5888 36.7253 28.4333 36.8831C28.2777 37.041 28.0663 37.1314 27.8447 37.1346H23.6259C23.1817 37.1397 22.7574 37.3197 22.4451 37.6357C22.1328 37.9516 21.9576 38.3779 21.9576 38.8222C21.9576 39.2664 22.1328 39.6928 22.4451 40.0087C22.7575 40.3246 23.1818 40.5046 23.626 40.5096H25.3134C26.2033 40.5176 27.054 40.8767 27.6805 41.5088C28.3069 42.1408 28.6584 42.9947 28.6584 43.8846C28.6584 44.7746 28.3069 45.6285 27.6805 46.2605C27.054 46.8926 26.2033 47.2517 25.3134 47.2596V48.1034C25.31 48.3249 25.2196 48.5362 25.0618 48.6916C24.9039 48.8471 24.6912 48.9342 24.4697 48.9342C24.2482 48.9342 24.0355 48.8471 23.8777 48.6916C23.7198 48.5362 23.6294 48.3249 23.626 48.1034L23.6259 48.1034ZM24.4697 28.6971C22.7489 28.7171 21.0414 29.0017 19.4072 29.541C19.1871 29.5354 18.9779 29.4441 18.8242 29.2864C18.6705 29.1288 18.5845 28.9173 18.5845 28.6972C18.5845 28.477 18.6705 28.2656 18.8242 28.108C18.9779 27.9503 19.1871 27.859 19.4072 27.8534H29.5321C29.6458 27.8555 29.7578 27.8805 29.8616 27.9268C29.9653 27.9732 30.0587 28.04 30.136 28.1233C30.2134 28.2065 30.2732 28.3045 30.3118 28.4114C30.3504 28.5183 30.3671 28.6318 30.3609 28.7453C30.3546 28.8588 30.3256 28.9698 30.2755 29.0718C30.2253 29.1738 30.1552 29.2646 30.0692 29.3389C29.9831 29.4132 29.883 29.4693 29.7748 29.504C29.6666 29.5388 29.5525 29.5513 29.4393 29.5409C27.8418 28.9831 26.1618 28.6979 24.4697 28.6972L24.4697 28.6971Z" fill="#009FE3"/>
</svg>
