<svg width="36" height="47" viewBox="0 0 36 47" fill="none" xmlns="http://www.w3.org/2000/svg">
<path d="M20.8143 0C28.8607 0 36 5.74722 36 14.6895C36 19.4375 35.2955 21.8229 34.3391 23.8049C33.3827 25.7869 31.998 27.5044 30.7931 30.448C28.3732 36.3598 29.1264 41.2944 30.3911 44.6064C30.7952 45.6647 31.187 46.2751 31.5906 47H14.0652V38.6256C14.0651 37.7466 13.2613 36.9469 12.3779 36.9468H7.34235C5.64792 36.9468 5.06739 36.5588 4.68618 36.0878C4.30497 35.6167 4.06571 34.7628 4.00072 33.6286C3.95728 32.8704 3.98367 32.0183 3.99413 31.1628C3.99886 30.776 4.00362 30.4009 4.00733 30.0349C4.02218 28.6499 4.02795 27.4527 4.02052 26.5855C4.01681 26.1517 4.01458 25.8063 4.00075 25.5296C3.994 25.392 3.98803 25.281 3.96778 25.1296C3.95766 25.0558 3.94922 24.9765 3.89528 24.7952C3.88178 24.7515 3.86423 24.6952 3.83596 24.6247C3.80761 24.5575 3.6988 24.3558 3.69755 24.3558C3.69632 24.3538 3.30336 23.924 3.30209 23.923C3.30145 23.9223 2.86772 23.6803 2.86708 23.6803C2.86644 23.68 2.26796 23.5754 2.2673 23.5754H0C0.584469 22.5406 1.25634 21.2513 1.72684 20.3424C2.53589 18.7798 2.97254 16.9031 2.97254 13.2665C2.97254 7.93226 5.22152 4.88636 8.59466 2.85266C11.9678 0.81929 16.5831 0.00655863 20.8144 0.00655863L20.8143 0ZM18.9095 3.35761C18.1426 3.35965 17.4176 3.94824 17.2618 4.69541L16.9916 5.95451C16.5681 6.08546 16.1502 6.25344 15.7261 6.43979L14.6122 5.75122C13.9736 5.35319 13.0651 5.45331 12.5295 5.98074L9.93261 8.55797C9.39314 9.09342 9.29198 10.0108 9.70193 10.6499L10.4269 11.7779C10.2391 12.1593 10.0727 12.5507 9.92602 12.9583L8.59464 13.2796C7.86249 13.4522 7.29659 14.1639 7.29621 14.9125V18.5062C7.29952 19.2526 7.86463 19.9605 8.59464 20.1326L9.92602 20.4539C10.0734 20.8632 10.238 21.2577 10.4269 21.6409L9.70193 22.7688C9.29528 23.4027 9.39028 24.3107 9.91943 24.8476L12.457 27.4249C12.9951 27.9699 13.9265 28.0739 14.5727 27.6609L15.7261 26.933C16.1434 27.1278 16.5613 27.3028 16.9916 27.4445L17.2618 28.7233C17.4203 29.4681 18.1444 30.0531 18.9095 30.0546H22.5214C23.283 30.0544 24.0055 29.4765 24.1692 28.7364L24.4328 27.5101C24.8871 27.3624 25.3267 27.1811 25.7642 26.9789L26.8715 27.6675C27.5061 28.0656 28.4097 27.9714 28.9476 27.4511L31.4852 24.9853C32.0255 24.4603 32.1406 23.5555 31.7488 22.9131L31.0436 21.7589C31.2376 21.3553 31.4138 20.9509 31.5577 20.5326L32.8495 20.2637C33.6026 20.1082 34.195 19.383 34.1941 18.6177V14.9191C34.1963 14.1573 33.611 13.4338 32.8627 13.2731L31.6236 13.0107C31.4773 12.5753 31.3014 12.1552 31.1029 11.7385L31.7884 10.6434C32.19 10.0053 32.0863 9.09674 31.5511 8.56453L28.9608 5.9873C28.4259 5.45474 27.5128 5.35156 26.8715 5.75122L25.7708 6.43324C25.3535 6.23514 24.9283 6.06711 24.4921 5.92172L24.2285 4.68229C24.0669 3.93771 23.3397 3.35541 22.5741 3.35761H18.9095ZM20.2805 6.71522H21.2164L21.3812 7.46937C21.5148 8.08448 22.0247 8.60252 22.6401 8.74815C23.5331 8.95632 24.3571 9.28643 25.0721 9.72527C25.603 10.0531 26.3208 10.0531 26.8517 9.72527L27.524 9.31212L28.216 10.0007L27.8008 10.663C27.4694 11.1901 27.4667 11.9042 27.7941 12.4337C28.2344 13.1438 28.5659 13.9716 28.7761 14.8601C28.9225 15.4723 29.4431 15.9797 30.0614 16.1126L30.8193 16.2765V17.2668L30.0152 17.4307C29.3981 17.5594 28.8753 18.061 28.7235 18.6702C28.5023 19.5559 28.183 20.3548 27.7481 21.0441C27.4172 21.5685 27.4119 22.2789 27.7349 22.8081L28.1699 23.523L27.5372 24.1328L26.8517 23.7131C26.3208 23.3853 25.6031 23.3853 25.0721 23.7131C24.3559 24.1523 23.5188 24.4715 22.5939 24.6837C21.9722 24.8259 21.4552 25.3483 21.3219 25.969L21.1571 26.7166H20.2805L20.1091 25.9166C19.9787 25.3007 19.4714 24.78 18.8568 24.6312C17.9374 24.4096 17.1203 24.1014 16.4247 23.6672C15.8881 23.329 15.1554 23.329 14.6188 23.6672L13.9136 24.1132L13.2677 23.4574L13.7356 22.7295C14.0716 22.2022 14.0769 21.4844 13.7488 20.9523C13.3027 20.2247 12.9647 19.4405 12.7667 18.6242C12.6211 18.025 12.1175 17.5265 11.5145 17.3848L10.6708 17.1881V16.2503L11.5145 16.047C12.1175 15.9053 12.6211 15.4068 12.7667 14.8076C12.9647 13.9914 13.3027 13.2072 13.7488 12.4796C14.0769 11.9475 14.0716 11.2296 13.7356 10.7024L13.2742 9.98758L13.9663 9.30557L14.632 9.71871C15.1643 10.0491 15.8858 10.0491 16.4182 9.71871C17.062 9.31949 17.8964 9.0333 18.8568 8.80061C19.4714 8.65182 19.9787 8.13112 20.1091 7.51528L20.2805 6.71522ZM20.7418 11.7779C17.966 11.7779 15.68 14.0537 15.68 16.8143C15.68 19.5749 17.966 21.8507 20.7418 21.8507C23.5177 21.8507 25.8037 19.5749 25.8037 16.8143C25.8037 14.0537 23.5177 11.7779 20.7418 11.7779ZM20.7418 15.1355C21.6935 15.1355 22.4291 15.8681 22.4291 16.8143C22.4291 17.7608 21.6935 18.4931 20.7418 18.4931C19.7902 18.4931 19.0545 17.7608 19.0545 16.8143C19.0545 15.8681 19.7902 15.1355 20.7418 15.1355Z" fill="#009FE3"/>
</svg>
