<svg width="559" height="410" viewBox="0 0 559 410" fill="none" xmlns="http://www.w3.org/2000/svg">
<circle opacity="0.3" cx="281" cy="130" r="128" fill="white" stroke="#009FE3" stroke-width="3"/>
<circle opacity="0.3" cx="297" cy="130" r="128" fill="#009FE3" fill-opacity="0.5"/>
<path d="M262.777 111.625V112.35C262.777 114.825 261.527 117.2 258.602 118.275L260.127 120.725C263.752 119.375 265.252 116.05 265.252 112.35V111.625H262.777ZM263.452 111.625V112.35C263.452 115.9 264.952 119.1 268.602 120.35L270.077 117.9C267.177 116.9 265.902 114.675 265.902 112.35V111.625H263.452ZM259.252 109.675V112.275H269.402V109.675H259.252ZM262.777 107.3V110.875H265.902V107.3H262.777ZM275.202 107.1V121.275H278.352V107.1H275.202ZM272.427 112.875V115.525H276.102V112.875H272.427ZM270.377 107.45V121.175H273.477V107.45H270.377ZM262.452 122.25V124.9H275.052V130.225H278.352V122.25H262.452ZM297.275 107.1V120.175H300.625V107.1H297.275ZM285.225 121.225V129.975H300.625V121.225H285.225ZM297.35 123.825V127.35H288.475V123.825H297.35ZM288.025 108.15C284.425 108.15 281.725 110.45 281.725 113.7C281.725 116.925 284.425 119.25 288.025 119.25C291.625 119.25 294.3 116.925 294.3 113.7C294.3 110.45 291.625 108.15 288.025 108.15ZM288.025 110.9C289.775 110.9 291.05 111.925 291.05 113.7C291.05 115.45 289.775 116.475 288.025 116.475C286.275 116.475 284.975 115.45 284.975 113.7C284.975 111.925 286.275 110.9 288.025 110.9Z" fill="#009FE3"/>
<path d="M230.169 154H231.939L233.724 148.015C234.099 146.815 234.429 145.585 234.759 144.34H234.819C235.164 145.57 235.494 146.815 235.869 148.015L237.639 154H239.484L235.839 142.96H233.814L230.169 154ZM232.224 150.865H237.384V149.5H232.224V150.865ZM244 154.21C244.96 154.21 245.935 153.85 246.685 153.19L245.98 152.035C245.485 152.455 244.87 152.785 244.18 152.785C242.8 152.785 241.855 151.63 241.855 149.89C241.855 148.135 242.83 146.98 244.24 146.98C244.795 146.98 245.26 147.22 245.71 147.61L246.55 146.5C245.965 145.96 245.2 145.54 244.15 145.54C241.975 145.54 240.07 147.13 240.07 149.89C240.07 152.62 241.78 154.21 244 154.21ZM251.145 154.21C252.105 154.21 253.08 153.85 253.83 153.19L253.125 152.035C252.63 152.455 252.015 152.785 251.325 152.785C249.945 152.785 249 151.63 249 149.89C249 148.135 249.975 146.98 251.385 146.98C251.94 146.98 252.405 147.22 252.855 147.61L253.695 146.5C253.11 145.96 252.345 145.54 251.295 145.54C249.12 145.54 247.215 147.13 247.215 149.89C247.215 152.62 248.925 154.21 251.145 154.21ZM258.245 154.21C260.285 154.21 262.13 152.62 262.13 149.89C262.13 147.13 260.285 145.54 258.245 145.54C256.19 145.54 254.36 147.13 254.36 149.89C254.36 152.62 256.19 154.21 258.245 154.21ZM258.245 152.785C256.94 152.785 256.145 151.63 256.145 149.89C256.145 148.135 256.94 146.98 258.245 146.98C259.535 146.98 260.36 148.135 260.36 149.89C260.36 151.63 259.535 152.785 258.245 152.785ZM266.438 154.21C267.578 154.21 268.373 153.625 269.123 152.755H269.168L269.303 154H270.728V145.75H269.003V151.48C268.313 152.35 267.788 152.71 267.023 152.71C266.048 152.71 265.628 152.155 265.628 150.73V145.75H263.903V150.94C263.903 153.04 264.683 154.21 266.438 154.21ZM273.16 154H274.9V148.15C275.62 147.43 276.145 147.04 276.91 147.04C277.87 147.04 278.29 147.595 278.29 149.035V154H280.03V148.81C280.03 146.725 279.25 145.54 277.495 145.54C276.37 145.54 275.515 146.155 274.765 146.905H274.72L274.57 145.75H273.16V154ZM285.145 154.21C285.76 154.21 286.315 154.045 286.78 153.895L286.465 152.62C286.21 152.725 285.865 152.83 285.58 152.83C284.725 152.83 284.365 152.305 284.365 151.33V147.13H286.525V145.75H284.365V143.47H282.925L282.73 145.75L281.44 145.84V147.13H282.64V151.315C282.64 153.04 283.3 154.21 285.145 154.21ZM289.693 154.21C290.683 154.21 291.568 153.715 292.318 153.07H292.378L292.513 154H293.938V149.05C293.938 146.845 292.993 145.54 290.938 145.54C289.618 145.54 288.448 146.095 287.608 146.62L288.253 147.805C288.943 147.355 289.768 146.95 290.638 146.95C291.838 146.95 292.183 147.79 292.198 148.75C288.778 149.125 287.278 150.04 287.278 151.81C287.278 153.265 288.283 154.21 289.693 154.21ZM290.233 152.83C289.498 152.83 288.943 152.5 288.943 151.69C288.943 150.76 289.753 150.145 292.198 149.86V151.87C291.523 152.5 290.953 152.83 290.233 152.83ZM300.076 154.21C301.936 154.21 303.631 152.575 303.631 149.74C303.631 147.205 302.446 145.54 300.361 145.54C299.476 145.54 298.606 146.005 297.886 146.62L297.961 145.21V142.06H296.221V154H297.586L297.736 153.145H297.796C298.486 153.82 299.326 154.21 300.076 154.21ZM299.746 152.77C299.236 152.77 298.576 152.575 297.961 152.02V147.985C298.636 147.325 299.266 146.98 299.896 146.98C301.276 146.98 301.846 148.045 301.846 149.77C301.846 151.705 300.931 152.77 299.746 152.77ZM305.504 154H307.244V145.75H305.504V154ZM306.374 144.205C307.004 144.205 307.454 143.8 307.454 143.17C307.454 142.555 307.004 142.15 306.374 142.15C305.729 142.15 305.309 142.555 305.309 143.17C305.309 143.8 305.729 144.205 306.374 144.205ZM311.401 154.21C311.836 154.21 312.106 154.135 312.331 154.06L312.106 152.755C311.956 152.785 311.896 152.785 311.821 152.785C311.611 152.785 311.416 152.62 311.416 152.155V142.06H309.676V152.065C309.676 153.4 310.141 154.21 311.401 154.21ZM313.993 154H315.733V145.75H313.993V154ZM314.863 144.205C315.493 144.205 315.943 143.8 315.943 143.17C315.943 142.555 315.493 142.15 314.863 142.15C314.218 142.15 313.798 142.555 313.798 143.17C313.798 143.8 314.218 144.205 314.863 144.205ZM320.94 154.21C321.555 154.21 322.11 154.045 322.575 153.895L322.26 152.62C322.005 152.725 321.66 152.83 321.375 152.83C320.52 152.83 320.16 152.305 320.16 151.33V147.13H322.32V145.75H320.16V143.47H318.72L318.525 145.75L317.235 145.84V147.13H318.435V151.315C318.435 153.04 319.095 154.21 320.94 154.21ZM324.352 157.45C326.092 157.45 326.962 156.265 327.607 154.51L330.637 145.75H328.957L327.622 149.995C327.412 150.76 327.187 151.57 326.992 152.335H326.917C326.647 151.555 326.407 150.73 326.152 149.995L324.637 145.75H322.867L326.137 153.94L325.972 154.51C325.672 155.395 325.132 156.055 324.247 156.055C324.037 156.055 323.797 155.995 323.647 155.935L323.317 157.285C323.602 157.39 323.932 157.45 324.352 157.45Z" fill="#009FE3"/>
<circle cx="151.5" cy="129.5" r="6.5" fill="#009FE3"/>
<circle cx="407.5" cy="129.5" r="6.5" fill="#009FE3"/>
<circle cx="280.5" cy="258.5" r="6.5" fill="#009FE3"/>
<line x1="145" y1="128.5" x2="-4.37114e-08" y2="128.5" stroke="#009FE3" stroke-opacity="0.5"/>
<line x1="559" y1="130.5" x2="414" y2="130.5" stroke="#009FE3" stroke-opacity="0.5"/>
<line x1="280.5" y1="410" x2="280.5" y2="265" stroke="#009FE3" stroke-opacity="0.5"/>
<path d="M310.693 108.94H313.283V101.31H320.388V98.93H313.283V91.265H310.693V98.93H303.588V101.31H310.693V108.94Z" fill="#009FE3"/>
</svg>
