<?xml version="1.0" encoding="utf-8"?>
<!-- Generator: Adobe Illustrator 25.2.3, SVG Export Plug-In . SVG Version: 6.00 Build 0)  -->
<svg version="1.1" id="Layer_1" xmlns="http://www.w3.org/2000/svg" xmlns:xlink="http://www.w3.org/1999/xlink" x="0px" y="0px"
	 viewBox="0 0 141.73 141.73" style="enable-background:new 0 0 141.73 141.73;" xml:space="preserve">
<style type="text/css">
	.st0{fill:#009FE3;}
	.st1{fill:#FFFFFF;}
</style>
<g>
	<rect x="86.21" y="33.72" width="1.63" height="8.42"/>
	<polygon points="77.05,36.95 75.73,36.95 75.73,33.72 74.09,33.72 74.09,44.83 75.73,44.83 75.73,38.29 77.05,38.29 	"/>
	<path d="M87.85,43.3L87.85,43.3L87.85,43.3h-8.62l0,0v5.34l0,0v0l8.62,0l0,0V43.3 M86.22,47.3h-5.37v-2.66h5.37V47.3z"/>
	<path d="M78.24,33.72v1.34h4.6c-0.01,0.43-0.06,1.09-0.26,1.81h-4.34v1.34H82c-0.69,1.15-1.94,2.22-4.22,2.57l0.46,1.29
		c5.06-0.59,6.32-4.6,6.32-8.35H78.24z"/>
	<rect x="108.99" y="33.72" width="1.63" height="14.93"/>
	<path d="M97.57,33.72v2.38h-2.09v-2.38h-1.62v2.38h-2.77v-2.38h-1.64v7.3h6.03v-3.58h2.09v3.59h1.63v-7.31h-1.48 M93.85,37.42v2.25
		h-2.77v-2.25H93.85z"/>
	<polygon points="64.24,42.7 54.56,42.7 54.56,44.04 56.15,44.04 56.15,48.64 57.78,48.64 57.78,44.04 61,44.04 61,48.64 
		62.65,48.64 62.65,44.04 64.24,44.04 	"/>
	<polygon points="75.54,47.3 68.41,47.3 68.41,44.25 66.77,44.25 66.77,48.64 66.78,48.64 66.78,48.64 75.54,48.64 	"/>
	<polygon points="99.2,42.1 90.58,42.1 90.58,43.44 97.58,43.44 97.58,44.69 90.58,44.69 90.58,48.64 90.58,48.64 90.58,48.64 
		99.2,48.64 99.2,47.3 92.21,47.3 92.21,46.03 99.2,46.03 	"/>
	<path d="M107.14,33.72h-6.31v1.33h4.68v3.91h-4.68v7.09l0,0l0,0h5.7c0,0,0.87-0.03,1.08-0.06c1.1-0.16,1.8-0.74,1.8-0.74
		l-0.02-1.56c0,0-0.78,0.77-2,0.99c-0.16,0.03-0.89,0.02-0.89,0.02h-4.04v-4.4h4.68V33.72z"/>
	<path d="M72.74,40.3c0,1.81-1.59,3.29-3.54,3.29c-1.95,0-3.54-1.47-3.54-3.29c0-1.81,1.59-3.29,3.54-3.29
		C71.15,37.01,72.74,38.49,72.74,40.3 M69.2,38.31c-1.18,0-2.14,0.89-2.14,1.99c0,1.1,0.96,1.99,2.14,1.99
		c1.18,0,2.15-0.89,2.15-1.99C71.34,39.2,70.38,38.31,69.2,38.31z"/>
	<path d="M63.74,37.64c0,2.26-1.93,4.09-4.32,4.09c-2.38,0-4.32-1.83-4.32-4.09c0-2.26,1.93-4.09,4.32-4.09
		C61.81,33.55,63.74,35.38,63.74,37.64 M59.42,35.11c-1.47,0-2.67,1.13-2.67,2.53c0,1.4,1.2,2.53,2.67,2.53
		c1.47,0,2.67-1.13,2.67-2.53C62.09,36.25,60.89,35.11,59.42,35.11z"/>
	<g>
		<path class="st0" d="M39.2,51.66c7.27,0,13.17-4.64,13.17-10.36c0-5.72-5.9-10.36-13.17-10.36c-7.27,0-13.37,4.64-13.37,10.36
			C25.83,47.02,31.92,51.66,39.2,51.66z"/>
		<path class="st1" d="M41.24,37.87c2.01-2.19,5.04-2.95,6.72-2.27c1.22,0.49,1.94,1.66,2.04,2.89c0.18,2.29-1.27,4.54-3.38,5.6
			c-0.93,0.47-2.28,0.25-3.22-0.58c-0.44-0.39-1.06-1.51-0.8-2.5c-1.51,1.13-1.28,3.38-0.29,4.61c1.3,1.6,3.79,1.16,5.44,0.06
			c0.05-0.03-0.24,0.44-0.36,0.59c-1.43,1.76-3.13,2.72-5.16,2.26c-2.14-0.48-2.98-3.34-2.2-5.25c1.17-3.63,3.61-4.25,4.51-4.38
			c0.25-0.04,0.98,0.01,0.86,0.15c-0.63,0.76-0.26,1.74,0.48,1.89c1.97,0.39,3.24-2.18,2.42-3.8c-0.75-1.5-3.16-1.19-4.41-0.36
			c-1.24,0.83-3.02,2.34-4.1,4.4c-0.65,1.04-1.84,3.76-2.68,7.44h-4.58c1-1.43,2.15-3.04,3.01-5.34c2.24-5.77-1.45-7.31-3.07-6.64
			c-1.51,0.72-1.67,2.9-0.45,4.07c0.49,0.47,1.39,0.59,1.95,0.33c0.39-0.19,0.72-0.71,0.64-1.54c0.91,0.83,0.59,2.47-0.52,3.05
			c-2.3,1.2-4.75-0.03-5.54-1.81c-0.5-1.13-0.48-2.39,0.16-3.54c0.79-1.42,2.39-2.2,3.93-2.3c2.05-0.13,4.73,1.79,4.62,4.88
			c1.35-3.11,1.89-6.06,1.89-6.06h4.69C43.84,33.72,43.1,34.37,41.24,37.87z"/>
	</g>
	<rect x="67.3" y="33.72" width="3.78" height="1.13"/>
	<rect x="65.64" y="35.29" width="7.04" height="1.34"/>
</g>
<rect x="11.7" y="74.71" class="st0" width="119.06" height="52.19"/>
<g>
	<rect x="86.21" y="93.22" class="st1" width="1.63" height="8.41"/>
	<polygon class="st1" points="77.05,96.45 75.73,96.45 75.73,93.22 74.09,93.22 74.09,104.33 75.73,104.33 75.73,97.79 77.05,97.79 
			"/>
	<path class="st1" d="M87.85,102.8L87.85,102.8L87.85,102.8h-8.62l0,0v5.34l0,0v0l8.62,0l0,0V102.8 M86.22,106.8h-5.37v-2.66h5.37
		V106.8z"/>
	<path class="st1" d="M78.24,93.22v1.34h4.6c-0.01,0.43-0.06,1.09-0.26,1.81h-4.34v1.34H82c-0.69,1.15-1.94,2.22-4.21,2.57
		l0.46,1.29c5.06-0.6,6.32-4.6,6.32-8.35H78.24z"/>
	<rect x="108.99" y="93.22" class="st1" width="1.63" height="14.93"/>
	<path class="st1" d="M97.57,93.22v2.38h-2.1v-2.38h-1.62v2.38h-2.77v-2.38h-1.64v7.3h6.03v-3.59h2.1v3.59h1.63v-7.31h-1.48
		 M93.85,96.92v2.25h-2.77v-2.25H93.85z"/>
	<polygon class="st1" points="64.24,102.2 54.56,102.2 54.56,103.54 56.15,103.54 56.15,108.14 57.78,108.14 57.78,103.54 
		61,103.54 61,108.14 62.65,108.14 62.65,103.54 64.24,103.54 	"/>
	<polygon class="st1" points="75.54,106.8 68.41,106.8 68.41,103.75 66.77,103.75 66.77,108.14 66.78,108.14 66.78,108.14 
		75.54,108.14 	"/>
	<polygon class="st1" points="99.2,101.6 90.58,101.6 90.58,102.94 97.58,102.94 97.58,104.19 90.58,104.19 90.58,108.14 
		90.58,108.14 90.58,108.14 99.2,108.14 99.2,106.8 92.21,106.8 92.21,105.53 99.2,105.53 	"/>
	<path class="st1" d="M107.14,93.22h-6.31v1.33h4.68v3.91h-4.68v7.09l0,0l0,0h5.7c0,0,0.87-0.03,1.08-0.06
		c1.1-0.16,1.8-0.74,1.8-0.74l-0.02-1.56c0,0-0.78,0.77-2,0.99c-0.15,0.03-0.89,0.02-0.89,0.02h-4.04v-4.4h4.68V93.22z"/>
	<path class="st1" d="M72.73,99.8c0,1.82-1.58,3.29-3.54,3.29c-1.96,0-3.54-1.47-3.54-3.29c0-1.81,1.59-3.29,3.54-3.29
		C71.15,96.51,72.73,97.99,72.73,99.8 M69.2,97.81c-1.18,0-2.14,0.89-2.14,1.99c0,1.1,0.96,1.99,2.14,1.99
		c1.18,0,2.14-0.89,2.14-1.99C71.34,98.7,70.38,97.81,69.2,97.81z"/>
	<path class="st1" d="M63.74,97.14c0,2.26-1.93,4.09-4.32,4.09c-2.38,0-4.32-1.83-4.32-4.09c0-2.26,1.93-4.09,4.32-4.09
		C61.81,93.05,63.74,94.88,63.74,97.14 M59.42,94.61c-1.47,0-2.67,1.13-2.67,2.53c0,1.4,1.19,2.53,2.67,2.53
		c1.47,0,2.67-1.13,2.67-2.53C62.09,95.75,60.89,94.61,59.42,94.61z"/>
	<g>
		<path class="st1" d="M39.2,111.16c7.27,0,13.17-4.64,13.17-10.36c0-5.72-5.9-10.36-13.17-10.36c-7.27,0-13.36,4.64-13.36,10.36
			C25.83,106.52,31.92,111.16,39.2,111.16z"/>
		<path class="st0" d="M41.24,97.37c2.01-2.19,5.04-2.95,6.72-2.27c1.22,0.49,1.94,1.66,2.03,2.89c0.18,2.29-1.27,4.54-3.38,5.6
			c-0.93,0.47-2.28,0.25-3.22-0.58c-0.44-0.39-1.06-1.51-0.8-2.5c-1.51,1.13-1.28,3.38-0.29,4.61c1.3,1.6,3.79,1.16,5.44,0.06
			c0.05-0.03-0.23,0.44-0.36,0.59c-1.43,1.76-3.13,2.72-5.16,2.26c-2.14-0.48-2.98-3.34-2.2-5.25c1.17-3.63,3.61-4.25,4.51-4.37
			c0.25-0.04,0.98,0,0.86,0.15c-0.63,0.75-0.26,1.74,0.48,1.89c1.97,0.4,3.24-2.18,2.42-3.8c-0.75-1.5-3.16-1.19-4.41-0.36
			c-1.24,0.83-3.02,2.34-4.1,4.4c-0.65,1.04-1.84,3.76-2.68,7.44h-4.58c1-1.43,2.15-3.04,3.01-5.34c2.24-5.77-1.45-7.31-3.07-6.64
			c-1.51,0.73-1.67,2.9-0.45,4.07c0.49,0.47,1.39,0.59,1.95,0.33c0.39-0.19,0.72-0.71,0.64-1.54c0.91,0.83,0.59,2.47-0.52,3.05
			c-2.3,1.2-4.75-0.03-5.54-1.81c-0.5-1.13-0.48-2.39,0.16-3.54c0.79-1.42,2.39-2.2,3.93-2.3c2.05-0.13,4.73,1.79,4.62,4.88
			c1.35-3.11,1.88-6.06,1.88-6.06h4.69C43.84,93.22,43.1,93.87,41.24,97.37z"/>
	</g>
	<rect x="67.3" y="93.22" class="st1" width="3.78" height="1.13"/>
	<rect x="65.64" y="94.79" class="st1" width="7.04" height="1.34"/>
</g>
</svg>
